<?xml version="1.0" encoding="UTF-8"?>
<svg width="563px" height="563px" viewBox="0 0 563 563" version="1.1" xmlns="http://www.w3.org/2000/svg" xmlns:xlink="http://www.w3.org/1999/xlink">
    <title>Ash-MediumTree</title>
    <defs>
        <filter x="-6.1%" y="-3.4%" width="112.1%" height="106.8%" filterUnits="objectBoundingBox" id="filter-1">
            <feOffset dx="0" dy="2" in="SourceAlpha" result="shadowOffsetOuter1"></feOffset>
            <feGaussianBlur stdDeviation="2" in="shadowOffsetOuter1" result="shadowBlurOuter1"></feGaussianBlur>
            <feColorMatrix values="0 0 0 0 0   0 0 0 0 0   0 0 0 0 0  0 0 0 0.5 0" type="matrix" in="shadowBlurOuter1" result="shadowMatrixOuter1"></feColorMatrix>
            <feMerge>
                <feMergeNode in="shadowMatrixOuter1"></feMergeNode>
                <feMergeNode in="SourceGraphic"></feMergeNode>
            </feMerge>
        </filter>
        <filter x="-9.2%" y="-5.2%" width="118.3%" height="110.3%" filterUnits="objectBoundingBox" id="filter-2">
            <feOffset dx="0" dy="2" in="SourceAlpha" result="shadowOffsetOuter1"></feOffset>
            <feGaussianBlur stdDeviation="2" in="shadowOffsetOuter1" result="shadowBlurOuter1"></feGaussianBlur>
            <feColorMatrix values="0 0 0 0 0   0 0 0 0 0   0 0 0 0 0  0 0 0 0.5 0" type="matrix" in="shadowBlurOuter1" result="shadowMatrixOuter1"></feColorMatrix>
            <feMerge>
                <feMergeNode in="shadowMatrixOuter1"></feMergeNode>
                <feMergeNode in="SourceGraphic"></feMergeNode>
            </feMerge>
        </filter>
    </defs>
    <g id="Ash-MediumTree" stroke="none" stroke-width="1" fill="none" fill-rule="evenodd">
        <g id="Group" transform="translate(117.000000, 106.000000)" fill-rule="nonzero">
            <g id="treeC-Copy-4" filter="url(#filter-1)">
                <path d="M91.600154,250 L91.600154,346.656674 C91.600154,349.607883 89.0930591,352 86,352 L97.199538,352 L100,352 L100,250.480481 C97.1564184,250.480481 94.3544165,250.314443 91.600154,250 Z" id="Path" fill="#826E77"></path>
                <path d="M98.00077,352 L100.800462,352 L112,352 C108.906941,352 106.399846,349.607883 106.399846,346.656674 L106.399846,250 C103.645584,250.314443 100.843582,250.480481 98,250.480481 L98,352 L98.00077,352 Z" id="Path" fill="#695A69"></path>
                <path d="M128,13 C128.337633,13.3278282 128.669954,13.6622626 129,14 C128.669954,13.6630884 128.338392,13.328654 128,13 Z" id="Path" fill="#7CDAAF"></path>
                <path d="M132,16 C132.338055,16.3301663 132.672332,16.6627078 133,17 C132.672332,16.6627078 132.338055,16.3301663 132,16 Z" id="Path" fill="#7CDAAF"></path>
                <path d="M131,15 C131.3383,15.3287891 131.671341,15.6631917 132,16 C131.670465,15.6631917 131.337423,15.329591 131,15 Z" id="Path" fill="#7CDAAF"></path>
                <path d="M129,14 C129.338223,14.3287225 129.670742,14.6631408 130,15 C129.670742,14.6623271 129.338223,14.3287225 129,14 Z" id="Path" fill="#7CDAAF"></path>
                <path d="M135.0475,20 C135.3535,20.3304954 135.6565,20.6633127 135.9525,21 C135.6575,20.6633127 135.3545,20.3304954 135.0475,20 Z" id="Path" fill="#7CDAAF"></path>
                <path d="M134.01,18 C134.342,18.3302034 134.669,18.6627543 134.99,19 C134.669,18.6627543 134.342,18.3302034 134.01,18 Z" id="Path" fill="#7CDAAF"></path>
                <path d="M136.0855,22 C136.3655,22.3312836 136.6445,22.6633359 136.9145,23 C136.6445,22.6633359 136.3655,22.3312836 136.0855,22 Z" id="Path" fill="#7CDAAF"></path>
                <path d="M120,6 C120.337507,6.32226212 120.669797,6.65888689 121,7 C120.669797,6.65798923 120.338028,6.32226212 120,6 Z" id="Path" fill="#7CDAAF"></path>
                <path d="M124,8 C124.33783,8.32491289 124.670141,8.66114983 125,9 C124.669528,8.66114983 124.33783,8.32578397 124,8 Z" id="Path" fill="#7CDAAF"></path>
                <path d="M122,7 C122.337493,7.32329495 122.669314,7.66076174 123,8 C122.669881,7.66076174 122.33806,7.32418069 122,7 Z" id="Path" fill="#7CDAAF"></path>
                <path d="M125,10 C125.337731,10.3259196 125.670185,10.6621044 126,11 C125.669525,10.6612489 125.337731,10.3259196 125,10 Z" id="Path" fill="#7CDAAF"></path>
                <path d="M127,11 C127.337819,11.3268908 127.669972,11.6621849 128,12 C127.669972,11.6613445 127.337819,11.3268908 127,11 Z" id="Path" fill="#7CDAAF"></path>
                <path d="M142.3335,36 C142.4445,36.3335968 142.5635,36.6640316 142.6665,37 C142.5635,36.6640316 142.4445,36.3335968 142.3335,36 Z" id="Path" fill="#7CDAAF"></path>
                <path d="M100,0 C106.431947,0.375819485 112.516665,2.13599634 118,5 C112.516665,2.13523403 106.432662,0.376581796 100,0 Z" id="Path" fill="#7CDAAF"></path>
                <path d="M143.371,38 C143.456,38.3338884 143.551,38.6644463 143.629,39 C143.552,38.6636137 143.457,38.3330558 143.371,38 Z" id="Path" fill="#7CDAAF"></path>
                <path d="M143.415,41 C143.47,41.3339901 143.536,41.6640394 143.585,42 C143.536,41.6640394 143.47,41.3339901 143.415,41 Z" id="Path" fill="#7CDAAF"></path>
                <path d="M142.2975,34 C142.4335,34.3333333 142.5755,34.6643572 142.7025,35 C142.5755,34.6643572 142.4335,34.3333333 142.2975,34 Z" id="Path" fill="#7CDAAF"></path>
                <path d="M138.1565,25 C138.3885,25.3318182 138.6215,25.6636364 138.8435,26 C138.6215,25.6636364 138.3885,25.3318182 138.1565,25 Z" id="Path" fill="#7CDAAF"></path>
                <path d="M139.1915,27 C139.3995,27.3320755 139.6095,27.6633962 139.8085,28 C139.6095,27.6633962 139.3995,27.3320755 139.1915,27 Z" id="Path" fill="#7CDAAF"></path>
                <path d="M140.227,30 C140.411,30.3325775 140.598,30.6636432 140.773,31 C140.598,30.6628874 140.411,30.3318216 140.227,30 Z" id="Path" fill="#7CDAAF"></path>
                <path d="M141.262,32 C141.422,32.332574 141.587,32.6636295 141.738,33 C141.587,32.6636295 141.422,32.332574 141.262,32 Z" id="Path" fill="#7CDAAF"></path>
                <path d="M137.121,24 C137.377,24.3315549 137.632,24.6631098 137.879,25 C137.633,24.6631098 137.377,24.3315549 137.121,24 Z" id="Path" fill="#7CDAAF"></path>
                <path d="M118,5 C118.674905,5.32032668 119.339354,5.6569873 120,6 C119.339354,5.6569873 118.674905,5.32032668 118,5 Z" id="Path" fill="#7CDAAF"></path>
                <path d="M98.9437211,236.701988 C87.8672838,236.701988 78.8874421,227.771797 78.8874421,216.7557 C78.8874421,205.738873 87.8665484,196.808682 98.9437211,196.808682 L98.9437211,183.510669 C76.7901112,183.510669 58.8318986,165.649556 58.8318986,143.617364 C58.8318986,121.58444 76.7908466,103.723326 98.9437211,103.723326 L98.9437211,67.8189855 C110.020158,67.8189855 119,58.8887946 119,47.871967 C119,36.8551393 110.020894,27.9249484 98.9437211,27.9249484 L98.9437211,0.0797207871 C98.0575767,0.0314494848 97.1677553,0 96.2698447,0 C71.2930744,0 50.76394,18.9201563 48.3717178,43.1355283 C32.3233118,51.6290833 21.3932171,68.4253024 21.3932171,87.7660041 C21.3932171,94.3550369 22.6750011,100.64274 24.9811827,106.414086 C9.87628152,117.005248 0,134.477997 0,154.255335 C0,178.90588 15.3350781,199.981423 37.0290695,208.598582 C46.0206774,230.524724 66.4328849,246.607113 90.9206212,249.521675 C93.5511096,249.834707 96.2271921,250 98.9429857,250 L98.9429857,236.701988 L98.9437211,236.701988 Z M52.1464723,86.4363492 C52.1464723,79.8268377 57.5339361,74.4679917 64.1803867,74.4679917 C70.826102,74.4679917 76.2143012,79.8261063 76.2143012,86.4363492 C76.2143012,93.046592 70.8268374,98.4047066 64.1803867,98.4047066 C57.5339361,98.4039752 52.1464723,93.0458607 52.1464723,86.4363492 Z" id="Shape" fill="#7CDAAF"></path>
                <path d="M168.696721,103.600275 C170.358782,98.6026163 171.27104,93.2654883 171.27104,87.712534 C171.27104,68.3657195 160.345254,51.5641919 144.303908,43.0679524 C144.230398,42.324632 144.139246,41.5864329 144.031921,40.8533552 C143.995166,40.6038746 143.94665,40.3587838 143.906954,40.1107664 C143.829034,39.6293641 143.752583,39.1472301 143.659961,38.6709491 C143.602623,38.3761084 143.532789,38.0856574 143.470305,37.79228 C143.379888,37.3686752 143.292411,36.9428755 143.190967,36.5236604 C143.115252,36.2127242 143.027775,35.9061778 142.946179,35.598168 C142.841795,35.2023646 142.740351,34.8058295 142.625676,34.4136841 C142.532318,34.0939686 142.427934,33.7801059 142.32796,33.4633168 C142.210344,33.0901934 142.095669,32.7156068 141.968496,32.3461415 C141.857496,32.0220362 141.736205,31.7030523 141.618589,31.3826051 C141.488476,31.0270405 141.359834,30.6707442 141.2209,30.3188376 C141.092258,29.9932691 140.954794,29.672822 140.819536,29.3509116 C140.677661,29.0121741 140.536522,28.6727049 140.387297,28.3383571 C140.241012,28.012057 140.086641,27.6908782 139.933741,27.3689678 C139.78084,27.0463258 139.627939,26.7229522 139.467687,26.4046999 C139.304495,26.079863 139.133217,25.7594159 138.962674,25.4389687 C138.799482,25.1316906 138.63629,24.8244125 138.466482,24.5215241 C138.285647,24.1988821 138.098197,23.8806298 137.909276,23.5616458 C137.736528,23.2697316 137.563779,22.9778174 137.38515,22.6895613 C137.186673,22.3691142 136.98158,22.0530567 136.775752,21.7377308 C136.595653,21.4619121 136.414083,21.1860935 136.228103,20.9146645 C136.010514,20.5964122 135.787778,20.2818179 135.562838,19.9694185 C135.376122,19.710427 135.188672,19.452167 134.996811,19.1968336 C134.760844,18.8815077 134.519731,18.5705715 134.276413,18.2618302 C134.084552,18.0182026 133.891221,17.7767698 133.694214,17.5375318 C133.4384,17.225864 133.17891,16.9178543 132.915744,16.6135027 C132.720942,16.3874338 132.523201,16.1635597 132.323989,15.9411489 C132.048326,15.6338708 131.768988,15.3295192 131.48524,15.0288256 C131.288233,14.8203155 131.088286,14.6140002 130.887604,14.4084165 C130.590624,14.1047965 130.290703,13.8048345 129.985636,13.5092622 C129.789365,13.3190425 129.590153,13.1317491 129.390941,12.9444558 C129.071908,12.6452255 128.749934,12.3489216 128.422079,12.0584706 C128.228013,11.8865412 128.030271,11.7175383 127.833265,11.5478037 C127.490708,11.2536947 127.145946,10.9617805 126.795304,10.6771824 C126.606383,10.524275 126.414522,10.374294 126.222661,10.224313 C125.854376,9.93459366 125.484621,9.64780077 125.10825,9.36905563 C124.928151,9.23517017 124.744376,9.10640602 124.562071,8.97544702 C124.165852,8.69084897 123.768163,8.40844576 123.363123,8.13555354 C123.196256,8.0228849 123.026448,7.91533757 122.857375,7.80486377 C122.428812,7.5239238 121.999513,7.24591027 121.561394,6.97887097 C121.415109,6.88888239 121.265149,6.8040151 121.117394,6.71622136 C120.651341,6.43820784 120.183817,6.16385239 119.708208,5.90120277 C119.589857,5.83608908 119.4693,5.77536508 119.350949,5.710983 C118.840055,5.43516432 118.32622,5.16300372 117.8043,4.90474379 C117.731525,4.86889468 117.656545,4.83524041 117.583035,4.7993913 C111.952906,2.05071552 105.705294,0.361417576 99.1011582,0 C99.099688,0 99.0974827,0 99.0960125,0 L99.0960125,0 L99.0960125,27.8547599 C110.168084,27.8547599 119.144386,36.7877733 119.144386,47.8080829 C119.144386,58.8276609 110.168819,67.7614059 99.0960125,67.7614059 L99.0960125,103.677095 C76.9511344,103.677095 59,121.543853 59,143.583741 C59,165.623628 76.9518695,183.489655 99.0960125,183.489655 L99.0960125,196.79187 C88.023941,196.79187 79.0476387,205.724884 79.0476387,216.745193 C79.0476387,227.764771 88.0232059,236.697785 99.0960125,236.697785 L99.0960125,250 C101.810736,250 104.485763,249.834655 107.115215,249.521524 C131.593299,246.60604 151.997462,230.518568 160.985525,208.585496 C182.670966,199.965614 198,178.88341 198,154.225074 C198.00147,132.602938 186.214882,113.735331 168.696721,103.600275 Z M144.539875,190.138568 C130.514908,190.138568 119.145856,178.822686 119.145856,164.864944 C119.145856,150.90647 130.514908,139.59132 144.539875,139.59132 C158.564842,139.59132 169.933894,150.90647 169.933894,164.864944 C169.934629,178.822686 158.564842,190.138568 144.539875,190.138568 Z" id="Shape" fill="#65B1A8"></path>
                <circle id="Oval" fill="#7CDAAF" cx="144" cy="165" r="25"></circle>
                <circle id="Oval" fill="#65B1A8" cx="64" cy="87" r="12"></circle>
            </g>
            <g id="treeC-Copy-5" filter="url(#filter-2)" transform="translate(198.000000, 119.000000)">
                <path d="M60.600099,165 L60.600099,229.437783 C60.600099,231.405255 58.9883951,233 57,233 L64.199703,233 L66,233 L66,165.32032 C64.1719833,165.32032 62.3706963,165.209629 60.600099,165 Z" id="Path" fill="#826E77"></path>
                <path d="M65.000495,233 L66.800297,233 L74,233 C72.0116049,233 70.399901,231.405255 70.399901,229.437783 L70.399901,165 C68.6293037,165.209629 66.8280167,165.32032 65,165.32032 L65,233 L65.000495,233 Z" id="Path" fill="#695A69"></path>
                <path d="M85,8 C85.3376328,8.32782824 85.6699545,8.66226259 86,9 C85.6699545,8.66308836 85.3383915,8.328654 85,8 Z" id="Path" fill="#7CDAAF"></path>
                <path d="M87,10 C87.3380548,10.3301663 87.6723324,10.6627078 88,11 C87.6723324,10.6627078 87.3380548,10.3301663 87,10 Z" id="Path" fill="#7CDAAF"></path>
                <path d="M87,10 C87.3382997,10.3287891 87.6713409,10.6631917 88,11 C87.6704645,10.6631917 87.3374233,10.329591 87,10 Z" id="Path" fill="#7CDAAF"></path>
                <path d="M85,9 C85.3382233,9.32872254 85.6707416,9.66314076 86,10 C85.6707416,9.6623271 85.3382233,9.32872254 85,9 Z" id="Path" fill="#7CDAAF"></path>
                <path d="M89.0475,13 C89.3535,13.3304954 89.6565,13.6633127 89.9525,14 C89.6575,13.6633127 89.3545,13.3304954 89.0475,13 Z" id="Path" fill="#7CDAAF"></path>
                <path d="M88.01,12 C88.342,12.3302034 88.669,12.6627543 88.99,13 C88.669,12.6627543 88.342,12.3302034 88.01,12 Z" id="Path" fill="#7CDAAF"></path>
                <path d="M90.0855,14 C90.3655,14.3312836 90.6445,14.6633359 90.9145,15 C90.6445,14.6633359 90.3655,14.3312836 90.0855,14 Z" id="Path" fill="#7CDAAF"></path>
                <path d="M79,4 C79.3375065,4.32226212 79.6697966,4.65888689 80,5 C79.6697966,4.65798923 79.3380282,4.32226212 79,4 Z" id="Path" fill="#7CDAAF"></path>
                <path d="M82,5 C82.3378296,5.32491289 82.670141,5.66114983 83,6 C82.6695279,5.66114983 82.3378296,5.32578397 82,5 Z" id="Path" fill="#7CDAAF"></path>
                <path d="M81,4 C81.3374929,4.32329495 81.6693137,4.66076174 82,5 C81.6698809,4.66076174 81.3380601,4.32418069 81,4 Z" id="Path" fill="#7CDAAF"></path>
                <path d="M83,6 C83.3377309,6.32591959 83.6701847,6.66210436 84,7 C83.6695251,6.66124893 83.3377309,6.32591959 83,6 Z" id="Path" fill="#7CDAAF"></path>
                <path d="M84,7 C84.3378187,7.32689076 84.6699717,7.66218487 85,8 C84.6699717,7.66134454 84.3378187,7.32689076 84,7 Z" id="Path" fill="#7CDAAF"></path>
                <path d="M94.3335,24 C94.4445,24.3335968 94.5635,24.6640316 94.6665,25 C94.5635,24.6640316 94.4445,24.3335968 94.3335,24 Z" id="Path" fill="#7CDAAF"></path>
                <path d="M66,0 C70.2879644,0.225491691 74.3444436,1.2815978 78,3 C74.3444436,1.28114042 70.2884417,0.225949078 66,0 Z" id="Path" fill="#7CDAAF"></path>
                <path d="M94.371,25 C94.456,25.3338884 94.551,25.6644463 94.629,26 C94.552,25.6636137 94.457,25.3330558 94.371,25 Z" id="Path" fill="#7CDAAF"></path>
                <path d="M94.415,27 C94.47,27.3339901 94.536,27.6640394 94.585,28 C94.536,27.6640394 94.47,27.3339901 94.415,27 Z" id="Path" fill="#7CDAAF"></path>
                <path d="M94.2975,22 C94.4335,22.3333333 94.5755,22.6643572 94.7025,23 C94.5755,22.6643572 94.4335,22.3333333 94.2975,22 Z" id="Path" fill="#7CDAAF"></path>
                <path d="M91.1565,16 C91.3885,16.3318182 91.6215,16.6636364 91.8435,17 C91.6215,16.6636364 91.3885,16.3318182 91.1565,16 Z" id="Path" fill="#7CDAAF"></path>
                <path d="M92.1915,18 C92.3995,18.3320755 92.6095,18.6633962 92.8085,19 C92.6095,18.6633962 92.3995,18.3320755 92.1915,18 Z" id="Path" fill="#7CDAAF"></path>
                <path d="M92.227,20 C92.411,20.3325775 92.598,20.6636432 92.773,21 C92.598,20.6628874 92.411,20.3318216 92.227,20 Z" id="Path" fill="#7CDAAF"></path>
                <path d="M93.262,21 C93.422,21.332574 93.587,21.6636295 93.738,22 C93.587,21.6636295 93.422,21.332574 93.262,21 Z" id="Path" fill="#7CDAAF"></path>
                <path d="M90.121,16 C90.377,16.3315549 90.632,16.6631098 90.879,17 C90.633,16.6631098 90.377,16.3315549 90.121,16 Z" id="Path" fill="#7CDAAF"></path>
                <path d="M78,3 C78.3374525,3.32032668 78.6696768,3.6569873 79,4 C78.6696768,3.6569873 78.3374525,3.32032668 78,3 Z" id="Path" fill="#7CDAAF"></path>
                <path d="M65.6853274,156.223312 C58.3320624,156.223312 52.3706549,150.329386 52.3706549,143.058762 C52.3706549,135.787656 58.3315742,129.89373 65.6853274,129.89373 L65.6853274,121.117042 C50.9783091,121.117042 39.0564705,109.328707 39.0564705,94.78746 C39.0564705,80.2457302 50.9787973,68.4573955 65.6853274,68.4573955 L65.6853274,44.7605305 C73.0385925,44.7605305 79,38.8666045 79,31.5954982 C79,24.3243919 73.0390807,18.4304659 65.6853274,18.4304659 L65.6853274,0.0526157195 C65.0970467,0.02075666 64.506325,0 63.910233,0 C47.3290158,0 33.7004307,12.4873032 32.1123168,28.4694487 C21.4583331,34.075195 14.2022198,45.1606996 14.2022198,57.9255627 C14.2022198,62.2743243 15.053152,66.4242082 16.5841465,70.2332967 C6.55652303,77.2234639 0,88.7554781 0,101.808521 C0,118.077881 10.18043,131.987739 24.5823235,137.675064 C30.5515422,152.146318 44.1025034,162.760694 60.3590678,164.684306 C62.1053585,164.890907 63.8819175,165 65.6848392,165 L65.6848392,156.223312 L65.6853274,156.223312 Z M34.6182463,57.0479905 C34.6182463,52.6857129 38.1947979,49.1488745 42.6071475,49.1488745 C47.0190089,49.1488745 50.5960487,52.6852302 50.5960487,57.0479905 C50.5960487,61.4107508 47.0194971,64.9471064 42.6071475,64.9471064 C38.1947979,64.9466236 34.6182463,61.410268 34.6182463,57.0479905 Z" id="Shape" fill="#7CDAAF"></path>
                <path d="M111.605024,68.3761816 C112.705093,65.0777267 113.30889,61.5552223 113.30889,57.8902725 C113.30889,45.1213749 106.077434,34.0323666 95.4601407,28.4248486 C95.4114866,27.9342571 95.3511555,27.4470457 95.2801206,26.9632144 C95.2557935,26.7985573 95.2236818,26.6367973 95.1974086,26.4731058 C95.1458353,26.1553803 95.0952351,25.8371719 95.0339309,25.5228264 C94.9959807,25.3282315 94.9497594,25.1365339 94.9084034,24.9429048 C94.8485589,24.6633256 94.7906605,24.3822979 94.7235179,24.1056159 C94.6734042,23.900398 94.6155058,23.6980773 94.5614998,23.4947909 C94.492411,23.2335606 94.4252684,22.9718475 94.349368,22.7130315 C94.2875773,22.5020193 94.2184886,22.2948699 94.152319,22.0857891 C94.0744725,21.8395277 93.9985721,21.5923005 93.9144006,21.3484534 C93.8409329,21.1345439 93.7606537,20.9240145 93.6828071,20.7125194 C93.5966894,20.4778467 93.5115448,20.2426912 93.4195886,20.0104328 C93.3344439,19.7955576 93.2434608,19.5840625 93.1539373,19.3716017 C93.0600349,19.1480349 92.9666191,18.9239853 92.8678513,18.7033157 C92.7710297,18.4879576 92.6688561,18.2759796 92.5676556,18.0635188 C92.4664551,17.850575 92.3652546,17.6371485 92.2591887,17.4271019 C92.1511767,17.2127096 92.0378127,17.0012145 91.9249352,16.7897194 C91.8169232,16.5869158 91.7089111,16.3841123 91.5965202,16.1842059 C91.4768311,15.9712622 91.3527632,15.7612157 91.2277222,15.5506863 C91.1133852,15.3580229 90.9990481,15.1653595 90.8808187,14.9751105 C90.7494526,14.7636153 90.6137078,14.5550174 90.4774763,14.3469023 C90.3582738,14.164862 90.2380983,13.9828217 90.1150034,13.8036786 C89.9709874,13.593632 89.8235655,13.3859998 89.674684,13.1798162 C89.5511026,13.0088818 89.4270347,12.8384302 89.3000476,12.6699102 C89.143868,12.4617951 88.9842826,12.2565772 88.8232376,12.0528079 C88.6962505,11.8920137 88.5682902,11.7326681 88.4378973,11.574771 C88.2685811,11.3690703 88.0968322,11.1657839 87.9226506,10.9649118 C87.7937173,10.8157063 87.6628378,10.6679494 87.5309852,10.5211583 C87.3485324,10.3183547 87.1636469,10.1174827 86.9758422,9.9190249 C86.8454493,9.78140821 86.7131102,9.64524012 86.5802845,9.50955489 C86.383722,9.30916567 86.1852134,9.11119078 85.983299,8.91611308 C85.8533926,8.79056803 85.72154,8.66695444 85.5896875,8.54334084 C85.3785287,8.34584882 85.1654239,8.15028826 84.9484267,7.95859062 C84.8199799,7.8451172 84.6891004,7.73357525 84.5587075,7.62155044 C84.3319795,7.42743847 84.1037918,7.2347751 83.8717119,7.04694039 C83.7466709,6.94602148 83.6196837,6.84703403 83.4926966,6.74804659 C83.2489397,6.55683182 83.0042096,6.36754851 82.7551007,6.18357672 C82.6358982,6.09521231 82.514263,6.01022797 82.3936009,5.92379503 C82.1313554,5.73596032 81.8681369,5.5495742 81.6000529,5.36946534 C81.4896081,5.29510404 81.3772172,5.22412279 81.2653128,5.15121009 C80.9816595,4.9657897 80.6975197,4.78230078 80.4075414,4.60605484 C80.3107198,4.54666237 80.2114654,4.49064997 80.1136707,4.4327061 C79.8052039,4.24921717 79.4957639,4.06814258 79.180972,3.89479383 C79.102639,3.85181879 79.0228463,3.81174095 78.9445132,3.76924878 C78.6063673,3.58720845 78.2662753,3.40758245 77.9208314,3.2371309 C77.8726638,3.21347049 77.8230366,3.19125867 77.7743826,3.16759826 C74.0479666,1.35347224 69.9128563,0.2385356 65.5417738,0 C65.5408007,0 65.5393411,0 65.538368,0 L65.538368,0 L65.538368,18.3841415 C72.8666455,18.3841415 78.8077952,24.2799304 78.8077952,31.5533347 C78.8077952,38.8262562 72.8671321,44.7225279 65.538368,44.7225279 L65.538368,68.4268824 C50.8813264,68.4268824 39,80.218943 39,94.7652688 C39,109.311595 50.8818129,121.103172 65.538368,121.103172 L65.538368,129.882634 C58.2100904,129.882634 52.2689407,135.778423 52.2689407,143.051828 C52.2689407,150.324749 58.2096039,156.220538 65.538368,156.220538 L65.538368,165 C67.3351631,165 69.1056851,164.890872 70.8460416,164.684206 C87.0473637,162.759987 100.552277,152.142255 106.501211,137.666428 C120.854165,131.977305 131,118.063051 131,101.788549 C131.000973,87.5179392 123.199778,75.0653185 111.605024,68.3761816 Z M95.6163203,125.491455 C86.3336083,125.491455 78.8087683,118.022973 78.8087683,108.810863 C78.8087683,99.5982705 86.3336083,92.1302713 95.6163203,92.1302713 C104.899032,92.1302713 112.423872,99.5982705 112.423872,108.810863 C112.424359,118.022973 104.899032,125.491455 95.6163203,125.491455 Z" id="Shape" fill="#65B1A8"></path>
                <circle id="Oval" fill="#7CDAAF" cx="95.5" cy="109.5" r="16.5"></circle>
                <circle id="Oval" fill="#65B1A8" cx="42" cy="58" r="8"></circle>
            </g>
        </g>
    </g>
</svg>