<?xml version="1.0" encoding="UTF-8"?>
<svg width="563px" height="563px" viewBox="0 0 563 563" version="1.1" xmlns="http://www.w3.org/2000/svg" xmlns:xlink="http://www.w3.org/1999/xlink">
    <title>Ash-SmallTree</title>
    <defs>
        <filter x="-6.9%" y="-3.8%" width="113.7%" height="107.7%" filterUnits="objectBoundingBox" id="filter-1">
            <feOffset dx="0" dy="2" in="SourceAlpha" result="shadowOffsetOuter1"></feOffset>
            <feGaussianBlur stdDeviation="2" in="shadowOffsetOuter1" result="shadowBlurOuter1"></feGaussianBlur>
            <feColorMatrix values="0 0 0 0 0   0 0 0 0 0   0 0 0 0 0  0 0 0 0.5 0" type="matrix" in="shadowBlurOuter1" result="shadowMatrixOuter1"></feColorMatrix>
            <feMerge>
                <feMergeNode in="shadowMatrixOuter1"></feMergeNode>
                <feMergeNode in="SourceGraphic"></feMergeNode>
            </feMerge>
        </filter>
    </defs>
    <g id="Ash-SmallTree" stroke="none" stroke-width="1" fill="none" fill-rule="evenodd">
        <g id="treeC-Copy-6" filter="url(#filter-1)" transform="translate(194.000000, 125.000000)" fill-rule="nonzero">
            <path d="M80.800132,221 L80.800132,307.232915 C80.800132,309.865856 78.6511935,312 76,312 L85.599604,312 L88,312 L88,221.428664 C85.5626444,221.428664 83.1609284,221.280532 80.800132,221 Z" id="Path" fill="#826E77"></path>
            <path d="M87.00066,312 L89.400396,312 L99,312 C96.3488065,312 94.199868,309.865856 94.199868,307.232915 L94.199868,221 C91.8390716,221.280532 89.4373556,221.428664 87,221.428664 L87,312 L87.00066,312 Z" id="Path" fill="#695A69"></path>
            <path d="M114,11 C114.337633,11.3278282 114.669954,11.6622626 115,12 C114.669954,11.6630884 114.338392,11.328654 114,11 Z" id="Path" fill="#7CDAAF"></path>
            <path d="M116,14 C116.338055,14.3301663 116.672332,14.6627078 117,15 C116.672332,14.6627078 116.338055,14.3301663 116,14 Z" id="Path" fill="#7CDAAF"></path>
            <path d="M116,14 C116.3383,14.3287891 116.671341,14.6631917 117,15 C116.670465,14.6631917 116.337423,14.329591 116,14 Z" id="Path" fill="#7CDAAF"></path>
            <path d="M114,12 C114.338223,12.3287225 114.670742,12.6631408 115,13 C114.670742,12.6623271 114.338223,12.3287225 114,12 Z" id="Path" fill="#7CDAAF"></path>
            <path d="M119.0475,18 C119.3535,18.3304954 119.6565,18.6633127 119.9525,19 C119.6575,18.6633127 119.3545,18.3304954 119.0475,18 Z" id="Path" fill="#7CDAAF"></path>
            <path d="M118.01,16 C118.342,16.3302034 118.669,16.6627543 118.99,17 C118.669,16.6627543 118.342,16.3302034 118.01,16 Z" id="Path" fill="#7CDAAF"></path>
            <path d="M120.0855,19 C120.3655,19.3312836 120.6445,19.6633359 120.9145,20 C120.6445,19.6633359 120.3655,19.3312836 120.0855,19 Z" id="Path" fill="#7CDAAF"></path>
            <path d="M106,6 C106.337507,6.32226212 106.669797,6.65888689 107,7 C106.669797,6.65798923 106.338028,6.32226212 106,6 Z" id="Path" fill="#7CDAAF"></path>
            <path d="M110,7 C110.33783,7.32491289 110.670141,7.66114983 111,8 C110.669528,7.66114983 110.33783,7.32578397 110,7 Z" id="Path" fill="#7CDAAF"></path>
            <path d="M108,6 C108.337493,6.32329495 108.669314,6.66076174 109,7 C108.669881,6.66076174 108.33806,6.32418069 108,6 Z" id="Path" fill="#7CDAAF"></path>
            <path d="M111,8 C111.337731,8.32591959 111.670185,8.66210436 112,9 C111.669525,8.66124893 111.337731,8.32591959 111,8 Z" id="Path" fill="#7CDAAF"></path>
            <path d="M112,10 C112.337819,10.3268908 112.669972,10.6621849 113,11 C112.669972,10.6613445 112.337819,10.3268908 112,10 Z" id="Path" fill="#7CDAAF"></path>
            <path d="M126.3335,32 C126.4445,32.3335968 126.5635,32.6640316 126.6665,33 C126.5635,32.6640316 126.4445,32.3335968 126.3335,32 Z" id="Path" fill="#7CDAAF"></path>
            <path d="M88,0 C93.7172858,0.300655588 99.1259247,1.70879707 104,4 C99.1259247,1.70818722 93.7179222,0.301265437 88,0 Z" id="Path" fill="#7CDAAF"></path>
            <path d="M126.371,34 C126.456,34.3338884 126.551,34.6644463 126.629,35 C126.552,34.6636137 126.457,34.3330558 126.371,34 Z" id="Path" fill="#7CDAAF"></path>
            <path d="M126.415,36 C126.47,36.3339901 126.536,36.6640394 126.585,37 C126.536,36.6640394 126.47,36.3339901 126.415,36 Z" id="Path" fill="#7CDAAF"></path>
            <path d="M126.2975,30 C126.4335,30.3333333 126.5755,30.6643572 126.7025,31 C126.5755,30.6643572 126.4335,30.3333333 126.2975,30 Z" id="Path" fill="#7CDAAF"></path>
            <path d="M122.1565,22 C122.3885,22.3318182 122.6215,22.6636364 122.8435,23 C122.6215,22.6636364 122.3885,22.3318182 122.1565,22 Z" id="Path" fill="#7CDAAF"></path>
            <path d="M123.1915,24 C123.3995,24.3320755 123.6095,24.6633962 123.8085,25 C123.6095,24.6633962 123.3995,24.3320755 123.1915,24 Z" id="Path" fill="#7CDAAF"></path>
            <path d="M123.227,27 C123.411,27.3325775 123.598,27.6636432 123.773,28 C123.598,27.6628874 123.411,27.3318216 123.227,27 Z" id="Path" fill="#7CDAAF"></path>
            <path d="M124.262,28 C124.422,28.332574 124.587,28.6636295 124.738,29 C124.587,28.6636295 124.422,28.332574 124.262,28 Z" id="Path" fill="#7CDAAF"></path>
            <path d="M120.121,22 C120.377,22.3315549 120.632,22.6631098 120.879,23 C120.633,22.6631098 120.377,22.3315549 120.121,22 Z" id="Path" fill="#7CDAAF"></path>
            <path d="M104,4 C104.337452,4.32032668 104.669677,4.6569873 105,5 C104.669677,4.6569873 104.337452,4.32032668 104,4 Z" id="Path" fill="#7CDAAF"></path>
            <path d="M88.1347431,209.244557 C78.2683368,209.244557 70.2694863,201.350268 70.2694863,191.612039 C70.2694863,181.873163 78.2676818,173.978875 88.1347431,173.978875 L88.1347431,162.223432 C68.4012755,162.223432 52.4048845,146.434208 52.4048845,126.957749 C52.4048845,107.480645 68.4019306,91.6914206 88.1347431,91.6914206 L88.1347431,59.9519832 C98.0011494,59.9519832 106,52.0576944 106,42.3188188 C106,32.5799431 98.0018045,24.6856544 88.1347431,24.6856544 L88.1347431,0.0704731758 C87.3454044,0.0278013446 86.5527905,0 85.7529709,0 C63.5047553,0 45.2182995,16.7254182 43.0874125,38.131807 C28.7921937,45.6401096 19.056143,60.4879673 19.056143,77.5851477 C19.056143,83.4098526 20.1979001,88.9681819 22.2521459,94.0700519 C8.79736001,103.43264 0,118.878549 0,136.361716 C0,158.152798 13.6598175,176.783578 32.983877,184.401146 C40.9932085,203.783856 59.1755109,218.000688 80.9881164,220.577161 C83.3312405,220.853881 85.7149778,221 88.1340881,221 L88.1340881,209.244557 L88.1347431,209.244557 Z M46.4497988,76.4097327 C46.4497988,70.5669245 51.2487162,65.8297047 57.169084,65.8297047 C63.0887967,65.8297047 67.8883691,70.566278 67.8883691,76.4097327 C67.8883691,82.2531874 63.0894518,86.9897606 57.169084,86.9897606 C51.2487162,86.9891141 46.4497988,82.2525408 46.4497988,76.4097327 Z" id="Shape" fill="#7CDAAF"></path>
            <path d="M149.06976,91.5826432 C150.540505,87.1647128 151.347755,82.4466916 151.347755,77.5378801 C151.347755,60.435296 141.679613,45.5827456 127.484753,38.0720699 C127.419705,37.4149747 127.339045,36.7624067 127.244074,36.114366 C127.21155,35.8938252 127.168618,35.6771648 127.133492,35.4579175 C127.064541,35.0323578 126.99689,34.6061514 126.914929,34.185119 C126.864192,33.9244798 126.802396,33.6677212 126.747105,33.4083755 C126.667095,33.0339089 126.589687,32.657502 126.499921,32.2869158 C126.432921,32.0120482 126.355513,31.7410611 126.28331,31.4687805 C126.190941,31.1188903 126.101174,30.7683533 125.999699,30.4216968 C125.917087,30.1390682 125.824718,29.8616136 125.736253,29.5815721 C125.632175,29.251731 125.5307,28.9205964 125.418166,28.5939891 C125.319943,28.30748 125.212613,28.0254982 125.108536,27.7422229 C124.9934,27.4279038 124.879565,27.1129379 124.756624,26.8018524 C124.642789,26.5140499 124.521149,26.2307746 124.40146,25.9462058 C124.275916,25.6467619 124.151023,25.3466712 124.018975,25.0511077 C123.889529,24.7626584 123.752927,24.4787364 123.617627,24.1941676 C123.482326,23.908952 123.347025,23.6230898 123.20522,23.3417547 C123.060812,23.0545989 122.90925,22.7713236 122.758337,22.4880483 C122.61393,22.2164145 122.469522,21.9447807 122.319261,21.6770273 C122.159242,21.3918118 121.993368,21.1104767 121.826194,20.8284949 C121.67333,20.5704428 121.520466,20.3123906 121.362399,20.0575722 C121.186768,19.7742969 121.005283,19.4949021 120.823148,19.216154 C120.663779,18.9723303 120.50311,18.7285066 120.338537,18.4885634 C120.145994,18.2072284 119.948897,17.929127 119.749849,17.652966 C119.584626,17.4240174 119.418753,17.1957157 119.248977,16.9700009 C119.040171,16.6912528 118.826813,16.4163852 118.611502,16.1434579 C118.441726,15.9280911 118.270649,15.7146645 118.096319,15.5031781 C117.869951,15.2276638 117.64033,14.9553832 117.407457,14.6863364 C117.235079,14.4864915 117.060098,14.2885868 116.883817,14.0919757 C116.639886,13.8203418 116.392702,13.551295 116.141615,13.2854818 C115.967285,13.1011589 115.790354,12.9187762 115.612772,12.7370402 C115.349976,12.4686401 115.084579,12.2034737 114.814628,11.9421878 C114.640949,11.7740335 114.464668,11.6084662 114.288386,11.4428989 C114.006076,11.1783793 113.721165,10.9164467 113.431049,10.659688 C113.259321,10.5077024 113.084341,10.3583038 112.910011,10.2082585 C112.606886,9.94826607 112.301809,9.69021392 111.991528,9.43862925 C111.824353,9.30345907 111.654577,9.17087589 111.484801,9.0382927 C111.158908,8.7821808 110.831715,8.52865588 110.498667,8.28224518 C110.339299,8.16389043 110.176678,8.05006292 110.015358,7.93429516 C109.664747,7.68271049 109.312835,7.43306605 108.954419,7.19182933 C108.806759,7.09223025 108.656497,6.99715841 108.506886,6.89949958 C108.127653,6.65114863 107.747771,6.40538468 107.360083,6.16932194 C107.230636,6.08977203 107.097937,6.01474935 106.96719,5.93713968 C106.554783,5.69137573 106.141076,5.44884551 105.720213,5.21666325 C105.615485,5.15910275 105.508805,5.10542273 105.404077,5.04850897 C104.951991,4.80468526 104.497303,4.56409529 104.035459,4.33579351 C103.971061,4.30410289 103.904712,4.27435252 103.839664,4.24266191 C98.8576075,1.81283252 93.3291449,0.319493137 87.4851975,0 C87.4838966,0 87.4819451,0 87.4806441,0 L87.4806441,0 L87.4806441,24.6236077 C97.2782326,24.6236077 105.221291,32.5203916 105.221291,42.2623453 C105.221291,52.0036522 97.2788831,59.9010828 87.4806441,59.9010828 L87.4806441,91.6505516 C67.8848168,91.6505516 52,107.444766 52,126.928027 C52,146.411287 67.8854672,162.204855 87.4806441,162.204855 L87.4806441,173.964013 C77.6830557,173.964013 69.7399968,181.860797 69.7399968,191.602751 C69.7399968,201.344058 77.6824052,209.240842 87.4806441,209.240842 L87.4806441,221 C89.8828812,221 92.2499921,220.853835 94.576773,220.577027 C116.237236,217.99974 134.292718,203.778414 142.246184,184.389579 C161.435459,176.769603 175,158.132934 175,136.334965 C175.001301,117.220997 164.571442,100.542033 149.06976,91.5826432 Z M127.693559,168.082494 C115.282976,168.082494 105.222592,158.079254 105.222592,145.74061 C105.222592,133.40132 115.282976,123.398727 127.693559,123.398727 C140.104141,123.398727 150.164525,133.40132 150.164525,145.74061 C150.165175,158.079254 140.104141,168.082494 127.693559,168.082494 Z" id="Shape" fill="#65B1A8"></path>
            <circle id="Oval" fill="#7CDAAF" cx="128" cy="147" r="22"></circle>
            <circle id="Oval" fill="#65B1A8" cx="56.5" cy="77.5" r="10.5"></circle>
        </g>
    </g>
</svg>