<?xml version="1.0" encoding="UTF-8"?>
<svg width="563px" height="563px" viewBox="0 0 563 563" version="1.1" xmlns="http://www.w3.org/2000/svg" xmlns:xlink="http://www.w3.org/1999/xlink">
    <title>Ash-LargeTree</title>
    <defs>
        <filter x="-6.1%" y="-3.4%" width="112.1%" height="106.8%" filterUnits="objectBoundingBox" id="filter-1">
            <feOffset dx="0" dy="2" in="SourceAlpha" result="shadowOffsetOuter1"></feOffset>
            <feGaussianBlur stdDeviation="2" in="shadowOffsetOuter1" result="shadowBlurOuter1"></feGaussianBlur>
            <feColorMatrix values="0 0 0 0 0   0 0 0 0 0   0 0 0 0 0  0 0 0 0.5 0" type="matrix" in="shadowBlurOuter1" result="shadowMatrixOuter1"></feColorMatrix>
            <feMerge>
                <feMergeNode in="shadowMatrixOuter1"></feMergeNode>
                <feMergeNode in="SourceGraphic"></feMergeNode>
            </feMerge>
        </filter>
        <filter x="-6.1%" y="-3.4%" width="112.1%" height="106.8%" filterUnits="objectBoundingBox" id="filter-2">
            <feOffset dx="0" dy="2" in="SourceAlpha" result="shadowOffsetOuter1"></feOffset>
            <feGaussianBlur stdDeviation="2" in="shadowOffsetOuter1" result="shadowBlurOuter1"></feGaussianBlur>
            <feColorMatrix values="0 0 0 0 0   0 0 0 0 0   0 0 0 0 0  0 0 0 0.5 0" type="matrix" in="shadowBlurOuter1" result="shadowMatrixOuter1"></feColorMatrix>
            <feMerge>
                <feMergeNode in="shadowMatrixOuter1"></feMergeNode>
                <feMergeNode in="SourceGraphic"></feMergeNode>
            </feMerge>
        </filter>
        <filter x="-4.4%" y="-2.3%" width="108.9%" height="104.7%" filterUnits="objectBoundingBox" id="filter-3">
            <feOffset dx="0" dy="2" in="SourceAlpha" result="shadowOffsetOuter1"></feOffset>
            <feGaussianBlur stdDeviation="2" in="shadowOffsetOuter1" result="shadowBlurOuter1"></feGaussianBlur>
            <feColorMatrix values="0 0 0 0 0   0 0 0 0 0   0 0 0 0 0  0 0 0 0.5 0" type="matrix" in="shadowBlurOuter1" result="shadowMatrixOuter1"></feColorMatrix>
            <feMerge>
                <feMergeNode in="shadowMatrixOuter1"></feMergeNode>
                <feMergeNode in="SourceGraphic"></feMergeNode>
            </feMerge>
        </filter>
    </defs>
    <g id="Ash-LargeTree" stroke="none" stroke-width="1" fill="none" fill-rule="evenodd">
        <g id="Group" transform="translate(41.000000, 23.000000)" fill-rule="nonzero">
            <g id="treeC-Copy-2" filter="url(#filter-1)" transform="translate(0.000000, 144.000000)">
                <path d="M91.600154,250 L91.600154,346.656674 C91.600154,349.607883 89.0930591,352 86,352 L97.199538,352 L100,352 L100,250.480481 C97.1564184,250.480481 94.3544165,250.314443 91.600154,250 Z" id="Path" fill="#826E77"></path>
                <path d="M98.00077,352 L100.800462,352 L112,352 C108.906941,352 106.399846,349.607883 106.399846,346.656674 L106.399846,250 C103.645584,250.314443 100.843582,250.480481 98,250.480481 L98,352 L98.00077,352 Z" id="Path" fill="#695A69"></path>
                <path d="M128,13 C128.337633,13.3278282 128.669954,13.6622626 129,14 C128.669954,13.6630884 128.338392,13.328654 128,13 Z" id="Path" fill="#7CDAAF"></path>
                <path d="M132,16 C132.338055,16.3301663 132.672332,16.6627078 133,17 C132.672332,16.6627078 132.338055,16.3301663 132,16 Z" id="Path" fill="#7CDAAF"></path>
                <path d="M131,15 C131.3383,15.3287891 131.671341,15.6631917 132,16 C131.670465,15.6631917 131.337423,15.329591 131,15 Z" id="Path" fill="#7CDAAF"></path>
                <path d="M129,14 C129.338223,14.3287225 129.670742,14.6631408 130,15 C129.670742,14.6623271 129.338223,14.3287225 129,14 Z" id="Path" fill="#7CDAAF"></path>
                <path d="M135.0475,20 C135.3535,20.3304954 135.6565,20.6633127 135.9525,21 C135.6575,20.6633127 135.3545,20.3304954 135.0475,20 Z" id="Path" fill="#7CDAAF"></path>
                <path d="M134.01,18 C134.342,18.3302034 134.669,18.6627543 134.99,19 C134.669,18.6627543 134.342,18.3302034 134.01,18 Z" id="Path" fill="#7CDAAF"></path>
                <path d="M136.0855,22 C136.3655,22.3312836 136.6445,22.6633359 136.9145,23 C136.6445,22.6633359 136.3655,22.3312836 136.0855,22 Z" id="Path" fill="#7CDAAF"></path>
                <path d="M120,6 C120.337507,6.32226212 120.669797,6.65888689 121,7 C120.669797,6.65798923 120.338028,6.32226212 120,6 Z" id="Path" fill="#7CDAAF"></path>
                <path d="M124,8 C124.33783,8.32491289 124.670141,8.66114983 125,9 C124.669528,8.66114983 124.33783,8.32578397 124,8 Z" id="Path" fill="#7CDAAF"></path>
                <path d="M122,7 C122.337493,7.32329495 122.669314,7.66076174 123,8 C122.669881,7.66076174 122.33806,7.32418069 122,7 Z" id="Path" fill="#7CDAAF"></path>
                <path d="M125,10 C125.337731,10.3259196 125.670185,10.6621044 126,11 C125.669525,10.6612489 125.337731,10.3259196 125,10 Z" id="Path" fill="#7CDAAF"></path>
                <path d="M127,11 C127.337819,11.3268908 127.669972,11.6621849 128,12 C127.669972,11.6613445 127.337819,11.3268908 127,11 Z" id="Path" fill="#7CDAAF"></path>
                <path d="M142.3335,36 C142.4445,36.3335968 142.5635,36.6640316 142.6665,37 C142.5635,36.6640316 142.4445,36.3335968 142.3335,36 Z" id="Path" fill="#7CDAAF"></path>
                <path d="M100,0 C106.431947,0.375819485 112.516665,2.13599634 118,5 C112.516665,2.13523403 106.432662,0.376581796 100,0 Z" id="Path" fill="#7CDAAF"></path>
                <path d="M143.371,38 C143.456,38.3338884 143.551,38.6644463 143.629,39 C143.552,38.6636137 143.457,38.3330558 143.371,38 Z" id="Path" fill="#7CDAAF"></path>
                <path d="M143.415,41 C143.47,41.3339901 143.536,41.6640394 143.585,42 C143.536,41.6640394 143.47,41.3339901 143.415,41 Z" id="Path" fill="#7CDAAF"></path>
                <path d="M142.2975,34 C142.4335,34.3333333 142.5755,34.6643572 142.7025,35 C142.5755,34.6643572 142.4335,34.3333333 142.2975,34 Z" id="Path" fill="#7CDAAF"></path>
                <path d="M138.1565,25 C138.3885,25.3318182 138.6215,25.6636364 138.8435,26 C138.6215,25.6636364 138.3885,25.3318182 138.1565,25 Z" id="Path" fill="#7CDAAF"></path>
                <path d="M139.1915,27 C139.3995,27.3320755 139.6095,27.6633962 139.8085,28 C139.6095,27.6633962 139.3995,27.3320755 139.1915,27 Z" id="Path" fill="#7CDAAF"></path>
                <path d="M140.227,30 C140.411,30.3325775 140.598,30.6636432 140.773,31 C140.598,30.6628874 140.411,30.3318216 140.227,30 Z" id="Path" fill="#7CDAAF"></path>
                <path d="M141.262,32 C141.422,32.332574 141.587,32.6636295 141.738,33 C141.587,32.6636295 141.422,32.332574 141.262,32 Z" id="Path" fill="#7CDAAF"></path>
                <path d="M137.121,24 C137.377,24.3315549 137.632,24.6631098 137.879,25 C137.633,24.6631098 137.377,24.3315549 137.121,24 Z" id="Path" fill="#7CDAAF"></path>
                <path d="M118,5 C118.674905,5.32032668 119.339354,5.6569873 120,6 C119.339354,5.6569873 118.674905,5.32032668 118,5 Z" id="Path" fill="#7CDAAF"></path>
                <path d="M98.9437211,236.701988 C87.8672838,236.701988 78.8874421,227.771797 78.8874421,216.7557 C78.8874421,205.738873 87.8665484,196.808682 98.9437211,196.808682 L98.9437211,183.510669 C76.7901112,183.510669 58.8318986,165.649556 58.8318986,143.617364 C58.8318986,121.58444 76.7908466,103.723326 98.9437211,103.723326 L98.9437211,67.8189855 C110.020158,67.8189855 119,58.8887946 119,47.871967 C119,36.8551393 110.020894,27.9249484 98.9437211,27.9249484 L98.9437211,0.0797207871 C98.0575767,0.0314494848 97.1677553,0 96.2698447,0 C71.2930744,0 50.76394,18.9201563 48.3717178,43.1355283 C32.3233118,51.6290833 21.3932171,68.4253024 21.3932171,87.7660041 C21.3932171,94.3550369 22.6750011,100.64274 24.9811827,106.414086 C9.87628152,117.005248 0,134.477997 0,154.255335 C0,178.90588 15.3350781,199.981423 37.0290695,208.598582 C46.0206774,230.524724 66.4328849,246.607113 90.9206212,249.521675 C93.5511096,249.834707 96.2271921,250 98.9429857,250 L98.9429857,236.701988 L98.9437211,236.701988 Z M52.1464723,86.4363492 C52.1464723,79.8268377 57.5339361,74.4679917 64.1803867,74.4679917 C70.826102,74.4679917 76.2143012,79.8261063 76.2143012,86.4363492 C76.2143012,93.046592 70.8268374,98.4047066 64.1803867,98.4047066 C57.5339361,98.4039752 52.1464723,93.0458607 52.1464723,86.4363492 Z" id="Shape" fill="#7CDAAF"></path>
                <path d="M168.696721,103.600275 C170.358782,98.6026163 171.27104,93.2654883 171.27104,87.712534 C171.27104,68.3657195 160.345254,51.5641919 144.303908,43.0679524 C144.230398,42.324632 144.139246,41.5864329 144.031921,40.8533552 C143.995166,40.6038746 143.94665,40.3587838 143.906954,40.1107664 C143.829034,39.6293641 143.752583,39.1472301 143.659961,38.6709491 C143.602623,38.3761084 143.532789,38.0856574 143.470305,37.79228 C143.379888,37.3686752 143.292411,36.9428755 143.190967,36.5236604 C143.115252,36.2127242 143.027775,35.9061778 142.946179,35.598168 C142.841795,35.2023646 142.740351,34.8058295 142.625676,34.4136841 C142.532318,34.0939686 142.427934,33.7801059 142.32796,33.4633168 C142.210344,33.0901934 142.095669,32.7156068 141.968496,32.3461415 C141.857496,32.0220362 141.736205,31.7030523 141.618589,31.3826051 C141.488476,31.0270405 141.359834,30.6707442 141.2209,30.3188376 C141.092258,29.9932691 140.954794,29.672822 140.819536,29.3509116 C140.677661,29.0121741 140.536522,28.6727049 140.387297,28.3383571 C140.241012,28.012057 140.086641,27.6908782 139.933741,27.3689678 C139.78084,27.0463258 139.627939,26.7229522 139.467687,26.4046999 C139.304495,26.079863 139.133217,25.7594159 138.962674,25.4389687 C138.799482,25.1316906 138.63629,24.8244125 138.466482,24.5215241 C138.285647,24.1988821 138.098197,23.8806298 137.909276,23.5616458 C137.736528,23.2697316 137.563779,22.9778174 137.38515,22.6895613 C137.186673,22.3691142 136.98158,22.0530567 136.775752,21.7377308 C136.595653,21.4619121 136.414083,21.1860935 136.228103,20.9146645 C136.010514,20.5964122 135.787778,20.2818179 135.562838,19.9694185 C135.376122,19.710427 135.188672,19.452167 134.996811,19.1968336 C134.760844,18.8815077 134.519731,18.5705715 134.276413,18.2618302 C134.084552,18.0182026 133.891221,17.7767698 133.694214,17.5375318 C133.4384,17.225864 133.17891,16.9178543 132.915744,16.6135027 C132.720942,16.3874338 132.523201,16.1635597 132.323989,15.9411489 C132.048326,15.6338708 131.768988,15.3295192 131.48524,15.0288256 C131.288233,14.8203155 131.088286,14.6140002 130.887604,14.4084165 C130.590624,14.1047965 130.290703,13.8048345 129.985636,13.5092622 C129.789365,13.3190425 129.590153,13.1317491 129.390941,12.9444558 C129.071908,12.6452255 128.749934,12.3489216 128.422079,12.0584706 C128.228013,11.8865412 128.030271,11.7175383 127.833265,11.5478037 C127.490708,11.2536947 127.145946,10.9617805 126.795304,10.6771824 C126.606383,10.524275 126.414522,10.374294 126.222661,10.224313 C125.854376,9.93459366 125.484621,9.64780077 125.10825,9.36905563 C124.928151,9.23517017 124.744376,9.10640602 124.562071,8.97544702 C124.165852,8.69084897 123.768163,8.40844576 123.363123,8.13555354 C123.196256,8.0228849 123.026448,7.91533757 122.857375,7.80486377 C122.428812,7.5239238 121.999513,7.24591027 121.561394,6.97887097 C121.415109,6.88888239 121.265149,6.8040151 121.117394,6.71622136 C120.651341,6.43820784 120.183817,6.16385239 119.708208,5.90120277 C119.589857,5.83608908 119.4693,5.77536508 119.350949,5.710983 C118.840055,5.43516432 118.32622,5.16300372 117.8043,4.90474379 C117.731525,4.86889468 117.656545,4.83524041 117.583035,4.7993913 C111.952906,2.05071552 105.705294,0.361417576 99.1011582,0 C99.099688,0 99.0974827,0 99.0960125,0 L99.0960125,0 L99.0960125,27.8547599 C110.168084,27.8547599 119.144386,36.7877733 119.144386,47.8080829 C119.144386,58.8276609 110.168819,67.7614059 99.0960125,67.7614059 L99.0960125,103.677095 C76.9511344,103.677095 59,121.543853 59,143.583741 C59,165.623628 76.9518695,183.489655 99.0960125,183.489655 L99.0960125,196.79187 C88.023941,196.79187 79.0476387,205.724884 79.0476387,216.745193 C79.0476387,227.764771 88.0232059,236.697785 99.0960125,236.697785 L99.0960125,250 C101.810736,250 104.485763,249.834655 107.115215,249.521524 C131.593299,246.60604 151.997462,230.518568 160.985525,208.585496 C182.670966,199.965614 198,178.88341 198,154.225074 C198.00147,132.602938 186.214882,113.735331 168.696721,103.600275 Z M144.539875,190.138568 C130.514908,190.138568 119.145856,178.822686 119.145856,164.864944 C119.145856,150.90647 130.514908,139.59132 144.539875,139.59132 C158.564842,139.59132 169.933894,150.90647 169.933894,164.864944 C169.934629,178.822686 158.564842,190.138568 144.539875,190.138568 Z" id="Shape" fill="#65B1A8"></path>
                <circle id="Oval" fill="#7CDAAF" cx="144" cy="165" r="25"></circle>
                <circle id="Oval" fill="#65B1A8" cx="64" cy="87" r="12"></circle>
            </g>
            <g id="treeC-Copy-3" filter="url(#filter-2)" transform="translate(283.000000, 144.000000)">
                <path d="M91.600154,250 L91.600154,346.656674 C91.600154,349.607883 89.0930591,352 86,352 L97.199538,352 L100,352 L100,250.480481 C97.1564184,250.480481 94.3544165,250.314443 91.600154,250 Z" id="Path" fill="#826E77"></path>
                <path d="M98.00077,352 L100.800462,352 L112,352 C108.906941,352 106.399846,349.607883 106.399846,346.656674 L106.399846,250 C103.645584,250.314443 100.843582,250.480481 98,250.480481 L98,352 L98.00077,352 Z" id="Path" fill="#695A69"></path>
                <path d="M128,13 C128.337633,13.3278282 128.669954,13.6622626 129,14 C128.669954,13.6630884 128.338392,13.328654 128,13 Z" id="Path" fill="#7CDAAF"></path>
                <path d="M132,16 C132.338055,16.3301663 132.672332,16.6627078 133,17 C132.672332,16.6627078 132.338055,16.3301663 132,16 Z" id="Path" fill="#7CDAAF"></path>
                <path d="M131,15 C131.3383,15.3287891 131.671341,15.6631917 132,16 C131.670465,15.6631917 131.337423,15.329591 131,15 Z" id="Path" fill="#7CDAAF"></path>
                <path d="M129,14 C129.338223,14.3287225 129.670742,14.6631408 130,15 C129.670742,14.6623271 129.338223,14.3287225 129,14 Z" id="Path" fill="#7CDAAF"></path>
                <path d="M135.0475,20 C135.3535,20.3304954 135.6565,20.6633127 135.9525,21 C135.6575,20.6633127 135.3545,20.3304954 135.0475,20 Z" id="Path" fill="#7CDAAF"></path>
                <path d="M134.01,18 C134.342,18.3302034 134.669,18.6627543 134.99,19 C134.669,18.6627543 134.342,18.3302034 134.01,18 Z" id="Path" fill="#7CDAAF"></path>
                <path d="M136.0855,22 C136.3655,22.3312836 136.6445,22.6633359 136.9145,23 C136.6445,22.6633359 136.3655,22.3312836 136.0855,22 Z" id="Path" fill="#7CDAAF"></path>
                <path d="M120,6 C120.337507,6.32226212 120.669797,6.65888689 121,7 C120.669797,6.65798923 120.338028,6.32226212 120,6 Z" id="Path" fill="#7CDAAF"></path>
                <path d="M124,8 C124.33783,8.32491289 124.670141,8.66114983 125,9 C124.669528,8.66114983 124.33783,8.32578397 124,8 Z" id="Path" fill="#7CDAAF"></path>
                <path d="M122,7 C122.337493,7.32329495 122.669314,7.66076174 123,8 C122.669881,7.66076174 122.33806,7.32418069 122,7 Z" id="Path" fill="#7CDAAF"></path>
                <path d="M125,10 C125.337731,10.3259196 125.670185,10.6621044 126,11 C125.669525,10.6612489 125.337731,10.3259196 125,10 Z" id="Path" fill="#7CDAAF"></path>
                <path d="M127,11 C127.337819,11.3268908 127.669972,11.6621849 128,12 C127.669972,11.6613445 127.337819,11.3268908 127,11 Z" id="Path" fill="#7CDAAF"></path>
                <path d="M142.3335,36 C142.4445,36.3335968 142.5635,36.6640316 142.6665,37 C142.5635,36.6640316 142.4445,36.3335968 142.3335,36 Z" id="Path" fill="#7CDAAF"></path>
                <path d="M100,0 C106.431947,0.375819485 112.516665,2.13599634 118,5 C112.516665,2.13523403 106.432662,0.376581796 100,0 Z" id="Path" fill="#7CDAAF"></path>
                <path d="M143.371,38 C143.456,38.3338884 143.551,38.6644463 143.629,39 C143.552,38.6636137 143.457,38.3330558 143.371,38 Z" id="Path" fill="#7CDAAF"></path>
                <path d="M143.415,41 C143.47,41.3339901 143.536,41.6640394 143.585,42 C143.536,41.6640394 143.47,41.3339901 143.415,41 Z" id="Path" fill="#7CDAAF"></path>
                <path d="M142.2975,34 C142.4335,34.3333333 142.5755,34.6643572 142.7025,35 C142.5755,34.6643572 142.4335,34.3333333 142.2975,34 Z" id="Path" fill="#7CDAAF"></path>
                <path d="M138.1565,25 C138.3885,25.3318182 138.6215,25.6636364 138.8435,26 C138.6215,25.6636364 138.3885,25.3318182 138.1565,25 Z" id="Path" fill="#7CDAAF"></path>
                <path d="M139.1915,27 C139.3995,27.3320755 139.6095,27.6633962 139.8085,28 C139.6095,27.6633962 139.3995,27.3320755 139.1915,27 Z" id="Path" fill="#7CDAAF"></path>
                <path d="M140.227,30 C140.411,30.3325775 140.598,30.6636432 140.773,31 C140.598,30.6628874 140.411,30.3318216 140.227,30 Z" id="Path" fill="#7CDAAF"></path>
                <path d="M141.262,32 C141.422,32.332574 141.587,32.6636295 141.738,33 C141.587,32.6636295 141.422,32.332574 141.262,32 Z" id="Path" fill="#7CDAAF"></path>
                <path d="M137.121,24 C137.377,24.3315549 137.632,24.6631098 137.879,25 C137.633,24.6631098 137.377,24.3315549 137.121,24 Z" id="Path" fill="#7CDAAF"></path>
                <path d="M118,5 C118.674905,5.32032668 119.339354,5.6569873 120,6 C119.339354,5.6569873 118.674905,5.32032668 118,5 Z" id="Path" fill="#7CDAAF"></path>
                <path d="M98.9437211,236.701988 C87.8672838,236.701988 78.8874421,227.771797 78.8874421,216.7557 C78.8874421,205.738873 87.8665484,196.808682 98.9437211,196.808682 L98.9437211,183.510669 C76.7901112,183.510669 58.8318986,165.649556 58.8318986,143.617364 C58.8318986,121.58444 76.7908466,103.723326 98.9437211,103.723326 L98.9437211,67.8189855 C110.020158,67.8189855 119,58.8887946 119,47.871967 C119,36.8551393 110.020894,27.9249484 98.9437211,27.9249484 L98.9437211,0.0797207871 C98.0575767,0.0314494848 97.1677553,0 96.2698447,0 C71.2930744,0 50.76394,18.9201563 48.3717178,43.1355283 C32.3233118,51.6290833 21.3932171,68.4253024 21.3932171,87.7660041 C21.3932171,94.3550369 22.6750011,100.64274 24.9811827,106.414086 C9.87628152,117.005248 0,134.477997 0,154.255335 C0,178.90588 15.3350781,199.981423 37.0290695,208.598582 C46.0206774,230.524724 66.4328849,246.607113 90.9206212,249.521675 C93.5511096,249.834707 96.2271921,250 98.9429857,250 L98.9429857,236.701988 L98.9437211,236.701988 Z M52.1464723,86.4363492 C52.1464723,79.8268377 57.5339361,74.4679917 64.1803867,74.4679917 C70.826102,74.4679917 76.2143012,79.8261063 76.2143012,86.4363492 C76.2143012,93.046592 70.8268374,98.4047066 64.1803867,98.4047066 C57.5339361,98.4039752 52.1464723,93.0458607 52.1464723,86.4363492 Z" id="Shape" fill="#7CDAAF"></path>
                <path d="M168.696721,103.600275 C170.358782,98.6026163 171.27104,93.2654883 171.27104,87.712534 C171.27104,68.3657195 160.345254,51.5641919 144.303908,43.0679524 C144.230398,42.324632 144.139246,41.5864329 144.031921,40.8533552 C143.995166,40.6038746 143.94665,40.3587838 143.906954,40.1107664 C143.829034,39.6293641 143.752583,39.1472301 143.659961,38.6709491 C143.602623,38.3761084 143.532789,38.0856574 143.470305,37.79228 C143.379888,37.3686752 143.292411,36.9428755 143.190967,36.5236604 C143.115252,36.2127242 143.027775,35.9061778 142.946179,35.598168 C142.841795,35.2023646 142.740351,34.8058295 142.625676,34.4136841 C142.532318,34.0939686 142.427934,33.7801059 142.32796,33.4633168 C142.210344,33.0901934 142.095669,32.7156068 141.968496,32.3461415 C141.857496,32.0220362 141.736205,31.7030523 141.618589,31.3826051 C141.488476,31.0270405 141.359834,30.6707442 141.2209,30.3188376 C141.092258,29.9932691 140.954794,29.672822 140.819536,29.3509116 C140.677661,29.0121741 140.536522,28.6727049 140.387297,28.3383571 C140.241012,28.012057 140.086641,27.6908782 139.933741,27.3689678 C139.78084,27.0463258 139.627939,26.7229522 139.467687,26.4046999 C139.304495,26.079863 139.133217,25.7594159 138.962674,25.4389687 C138.799482,25.1316906 138.63629,24.8244125 138.466482,24.5215241 C138.285647,24.1988821 138.098197,23.8806298 137.909276,23.5616458 C137.736528,23.2697316 137.563779,22.9778174 137.38515,22.6895613 C137.186673,22.3691142 136.98158,22.0530567 136.775752,21.7377308 C136.595653,21.4619121 136.414083,21.1860935 136.228103,20.9146645 C136.010514,20.5964122 135.787778,20.2818179 135.562838,19.9694185 C135.376122,19.710427 135.188672,19.452167 134.996811,19.1968336 C134.760844,18.8815077 134.519731,18.5705715 134.276413,18.2618302 C134.084552,18.0182026 133.891221,17.7767698 133.694214,17.5375318 C133.4384,17.225864 133.17891,16.9178543 132.915744,16.6135027 C132.720942,16.3874338 132.523201,16.1635597 132.323989,15.9411489 C132.048326,15.6338708 131.768988,15.3295192 131.48524,15.0288256 C131.288233,14.8203155 131.088286,14.6140002 130.887604,14.4084165 C130.590624,14.1047965 130.290703,13.8048345 129.985636,13.5092622 C129.789365,13.3190425 129.590153,13.1317491 129.390941,12.9444558 C129.071908,12.6452255 128.749934,12.3489216 128.422079,12.0584706 C128.228013,11.8865412 128.030271,11.7175383 127.833265,11.5478037 C127.490708,11.2536947 127.145946,10.9617805 126.795304,10.6771824 C126.606383,10.524275 126.414522,10.374294 126.222661,10.224313 C125.854376,9.93459366 125.484621,9.64780077 125.10825,9.36905563 C124.928151,9.23517017 124.744376,9.10640602 124.562071,8.97544702 C124.165852,8.69084897 123.768163,8.40844576 123.363123,8.13555354 C123.196256,8.0228849 123.026448,7.91533757 122.857375,7.80486377 C122.428812,7.5239238 121.999513,7.24591027 121.561394,6.97887097 C121.415109,6.88888239 121.265149,6.8040151 121.117394,6.71622136 C120.651341,6.43820784 120.183817,6.16385239 119.708208,5.90120277 C119.589857,5.83608908 119.4693,5.77536508 119.350949,5.710983 C118.840055,5.43516432 118.32622,5.16300372 117.8043,4.90474379 C117.731525,4.86889468 117.656545,4.83524041 117.583035,4.7993913 C111.952906,2.05071552 105.705294,0.361417576 99.1011582,0 C99.099688,0 99.0974827,0 99.0960125,0 L99.0960125,0 L99.0960125,27.8547599 C110.168084,27.8547599 119.144386,36.7877733 119.144386,47.8080829 C119.144386,58.8276609 110.168819,67.7614059 99.0960125,67.7614059 L99.0960125,103.677095 C76.9511344,103.677095 59,121.543853 59,143.583741 C59,165.623628 76.9518695,183.489655 99.0960125,183.489655 L99.0960125,196.79187 C88.023941,196.79187 79.0476387,205.724884 79.0476387,216.745193 C79.0476387,227.764771 88.0232059,236.697785 99.0960125,236.697785 L99.0960125,250 C101.810736,250 104.485763,249.834655 107.115215,249.521524 C131.593299,246.60604 151.997462,230.518568 160.985525,208.585496 C182.670966,199.965614 198,178.88341 198,154.225074 C198.00147,132.602938 186.214882,113.735331 168.696721,103.600275 Z M144.539875,190.138568 C130.514908,190.138568 119.145856,178.822686 119.145856,164.864944 C119.145856,150.90647 130.514908,139.59132 144.539875,139.59132 C158.564842,139.59132 169.933894,150.90647 169.933894,164.864944 C169.934629,178.822686 158.564842,190.138568 144.539875,190.138568 Z" id="Shape" fill="#65B1A8"></path>
                <circle id="Oval" fill="#7CDAAF" cx="144" cy="165" r="25"></circle>
                <circle id="Oval" fill="#65B1A8" cx="64" cy="87" r="12"></circle>
            </g>
            <g id="treeC-Copy" filter="url(#filter-3)" transform="translate(99.000000, 0.000000)">
                <path d="M117.600319,342 L117.600319,506.884915 C117.600319,511.919329 112.407051,516 106,516 L129.199043,516 L135,516 L135,342.819643 C129.109724,342.819643 123.305577,342.536403 117.600319,342 Z" id="Path" fill="#826E77"></path>
                <path d="M135.001595,516 L140.800957,516 L164,516 C157.592949,516 152.399681,511.919329 152.399681,506.884915 L152.399681,342 C146.694423,342.536403 140.890276,342.819643 135,342.819643 L135,516 L135.001595,516 Z" id="Path" fill="#695A69"></path>
                <path d="M174.894,16.591 C175.339,16.988 175.777,17.393 176.212,17.802 C175.777,17.394 175.34,16.989 174.894,16.591 Z" id="Path" fill="#7CDAAF"></path>
                <path d="M181.006,22.818 C181.364,23.235 181.718,23.655 182.065,24.081 C181.718,23.655 181.364,23.235 181.006,22.818 Z" id="Path" fill="#7CDAAF"></path>
                <path d="M179.061,20.652 C179.447,21.062 179.827,21.479 180.202,21.899 C179.826,21.479 179.446,21.063 179.061,20.652 Z" id="Path" fill="#7CDAAF"></path>
                <path d="M177.021,18.575 C177.436,18.979 177.844,19.39 178.248,19.804 C177.844,19.389 177.436,18.979 177.021,18.575 Z" id="Path" fill="#7CDAAF"></path>
                <path d="M184.607,27.406 C184.913,27.833 185.216,28.263 185.512,28.698 C185.217,28.263 184.914,27.833 184.607,27.406 Z" id="Path" fill="#7CDAAF"></path>
                <path d="M182.857,25.071 C183.189,25.493 183.516,25.918 183.837,26.349 C183.516,25.918 183.189,25.493 182.857,25.071 Z" id="Path" fill="#7CDAAF"></path>
                <path d="M186.257,29.823 C186.537,30.254 186.816,30.686 187.086,31.124 C186.816,30.686 186.537,30.254 186.257,29.823 Z" id="Path" fill="#7CDAAF"></path>
                <path d="M163.04,8.174 C163.687,8.533 164.324,8.908 164.957,9.288 C164.324,8.907 163.688,8.533 163.04,8.174 Z" id="Path" fill="#7CDAAF"></path>
                <path d="M168.012,11.228 C168.563,11.601 169.105,11.987 169.643,12.376 C169.104,11.987 168.563,11.602 168.012,11.228 Z" id="Path" fill="#7CDAAF"></path>
                <path d="M165.561,9.646 C166.156,10.011 166.741,10.392 167.324,10.775 C166.742,10.392 166.157,10.012 165.561,9.646 Z" id="Path" fill="#7CDAAF"></path>
                <path d="M170.386,12.915 C170.898,13.296 171.402,13.689 171.902,14.084 C171.401,13.688 170.898,13.296 170.386,12.915 Z" id="Path" fill="#7CDAAF"></path>
                <path d="M172.681,14.704 C173.158,15.093 173.627,15.492 174.093,15.894 C173.627,15.491 173.158,15.093 172.681,14.704 Z" id="Path" fill="#7CDAAF"></path>
                <path d="M194.649,48.767 C194.76,49.189 194.879,49.607 194.982,50.032 C194.879,49.607 194.76,49.189 194.649,48.767 Z" id="Path" fill="#7CDAAF"></path>
                <path d="M135.007,0.109 C143.991,0.602 152.49,2.911 160.149,6.668 C152.49,2.91 143.992,0.603 135.007,0.109 Z" id="Path" fill="#7CDAAF"></path>
                <path d="M195.362,51.767 C195.447,52.168 195.542,52.565 195.62,52.968 C195.543,52.564 195.448,52.167 195.362,51.767 Z" id="Path" fill="#7CDAAF"></path>
                <path d="M195.956,54.936 C196.011,55.275 196.077,55.61 196.126,55.951 C196.077,55.61 196.011,55.275 195.956,54.936 Z" id="Path" fill="#7CDAAF"></path>
                <path d="M193.809,45.849 C193.945,46.282 194.087,46.712 194.214,47.148 C194.087,46.712 193.945,46.282 193.809,45.849 Z" id="Path" fill="#7CDAAF"></path>
                <path d="M189.232,34.882 C189.464,35.32 189.697,35.758 189.919,36.202 C189.697,35.758 189.464,35.32 189.232,34.882 Z" id="Path" fill="#7CDAAF"></path>
                <path d="M190.553,37.52 C190.761,37.96 190.971,38.399 191.17,38.845 C190.971,38.399 190.761,37.96 190.553,37.52 Z" id="Path" fill="#7CDAAF"></path>
                <path d="M191.758,40.229 C191.942,40.669 192.129,41.107 192.304,41.552 C192.129,41.106 191.942,40.668 191.758,40.229 Z" id="Path" fill="#7CDAAF"></path>
                <path d="M192.844,43.005 C193.004,43.443 193.169,43.879 193.32,44.322 C193.169,43.879 193.004,43.443 192.844,43.005 Z" id="Path" fill="#7CDAAF"></path>
                <path d="M187.799,32.316 C188.055,32.751 188.31,33.186 188.557,33.628 C188.311,33.186 188.055,32.751 187.799,32.316 Z" id="Path" fill="#7CDAAF"></path>
                <path d="M160.45,6.812 C161.16,7.165 161.859,7.536 162.554,7.914 C161.859,7.536 161.16,7.165 160.45,6.812 Z" id="Path" fill="#7CDAAF"></path>
                <path d="M135,323.636 C119.938,323.636 107.727,311.426 107.727,296.364 C107.727,281.301 119.937,269.091 135,269.091 L135,250.909 C104.875,250.909 80.455,226.488 80.455,196.364 C80.455,166.239 104.876,141.818 135,141.818 L135,92.727 C150.062,92.727 162.273,80.517 162.273,65.454 C162.273,50.391 150.063,38.181 135,38.181 L135,0.109 C133.795,0.043 132.585,0 131.364,0 C97.4,0 69.484,25.869 66.231,58.978 C44.408,70.591 29.545,93.556 29.545,120 C29.545,129.009 31.288,137.606 34.424,145.497 C13.884,159.978 0.454,183.868 0.454,210.909 C0.454,244.613 21.307,273.429 50.807,285.211 C63.034,315.19 90.791,337.179 124.09,341.164 C127.667,341.592 131.306,341.818 134.999,341.818 L134.999,323.636 L135,323.636 Z M71.364,118.182 C71.364,109.145 78.69,101.818 87.728,101.818 C96.765,101.818 104.092,109.144 104.092,118.182 C104.092,127.22 96.766,134.546 87.728,134.546 C78.69,134.545 71.364,127.219 71.364,118.182 Z" id="Shape" fill="#7CDAAF"></path>
                <path d="M229.68,141.716 C231.941,134.885 233.182,127.59 233.182,120 C233.182,93.556 218.319,70.591 196.497,58.978 C196.397,57.962 196.273,56.953 196.127,55.951 C196.077,55.61 196.011,55.275 195.957,54.936 C195.851,54.278 195.747,53.619 195.621,52.968 C195.543,52.565 195.448,52.168 195.363,51.767 C195.24,51.188 195.121,50.606 194.983,50.033 C194.88,49.608 194.761,49.189 194.65,48.768 C194.508,48.227 194.37,47.685 194.214,47.149 C194.087,46.712 193.945,46.283 193.809,45.85 C193.649,45.34 193.493,44.828 193.32,44.323 C193.169,43.88 193.004,43.444 192.844,43.006 C192.667,42.52 192.492,42.033 192.303,41.552 C192.128,41.107 191.941,40.669 191.757,40.229 C191.564,39.766 191.372,39.302 191.169,38.845 C190.97,38.399 190.76,37.96 190.552,37.52 C190.344,37.079 190.136,36.637 189.918,36.202 C189.696,35.758 189.463,35.32 189.231,34.882 C189.009,34.462 188.787,34.042 188.556,33.628 C188.31,33.187 188.055,32.752 187.798,32.316 C187.563,31.917 187.328,31.518 187.085,31.124 C186.815,30.686 186.536,30.254 186.256,29.823 C186.011,29.446 185.764,29.069 185.511,28.698 C185.215,28.263 184.912,27.833 184.606,27.406 C184.352,27.052 184.097,26.699 183.836,26.35 C183.515,25.919 183.187,25.494 182.856,25.072 C182.595,24.739 182.332,24.409 182.064,24.082 C181.716,23.656 181.363,23.235 181.005,22.819 C180.74,22.51 180.471,22.204 180.2,21.9 C179.825,21.48 179.445,21.064 179.059,20.653 C178.791,20.368 178.519,20.086 178.246,19.805 C177.842,19.39 177.434,18.98 177.019,18.576 C176.752,18.316 176.481,18.06 176.21,17.804 C175.776,17.395 175.338,16.99 174.892,16.593 C174.628,16.358 174.359,16.127 174.091,15.895 C173.625,15.493 173.156,15.094 172.679,14.705 C172.422,14.496 172.161,14.291 171.9,14.086 C171.399,13.69 170.896,13.298 170.384,12.917 C170.139,12.734 169.889,12.558 169.641,12.379 C169.102,11.99 168.561,11.604 168.01,11.231 C167.783,11.077 167.552,10.93 167.322,10.779 C166.739,10.395 166.155,10.015 165.559,9.65 C165.36,9.527 165.156,9.411 164.955,9.291 C164.321,8.911 163.685,8.536 163.038,8.177 C162.877,8.088 162.713,8.005 162.552,7.917 C161.857,7.54 161.158,7.168 160.448,6.815 C160.349,6.766 160.247,6.72 160.147,6.671 C152.488,2.914 143.989,0.605 135.005,0.111 C135.003,0.111 135,0.111 134.998,0.111 L134.998,0.111 L134.998,38.184 C150.06,38.184 162.271,50.394 162.271,65.457 C162.271,80.519 150.061,92.73 134.998,92.73 L134.998,141.821 C104.873,141.821 80.453,166.242 80.453,196.367 C80.453,226.492 104.874,250.912 134.998,250.912 L134.998,269.094 C119.936,269.094 107.725,281.304 107.725,296.367 C107.725,311.429 119.935,323.639 134.998,323.639 L134.998,341.821 C138.691,341.821 142.33,341.595 145.907,341.167 C179.206,337.182 206.963,315.193 219.19,285.214 C248.69,273.432 269.543,244.616 269.543,210.912 C269.545,181.358 253.511,155.569 229.68,141.716 Z M196.818,260 C177.739,260 162.273,244.533 162.273,225.455 C162.273,206.376 177.739,190.91 196.818,190.91 C215.897,190.91 231.363,206.376 231.363,225.455 C231.364,244.533 215.897,260 196.818,260 Z" id="Shape" fill="#65B1A8"></path>
                <circle id="Oval" fill="#7CDAAF" cx="196.818" cy="225.455" r="34.545"></circle>
                <circle id="Oval" fill="#65B1A8" cx="87.727" cy="118.182" r="16.364"></circle>
            </g>
        </g>
    </g>
</svg>