<?xml version="1.0" encoding="UTF-8"?>
<svg width="563px" height="563px" viewBox="0 0 563 563" version="1.1" xmlns="http://www.w3.org/2000/svg" xmlns:xlink="http://www.w3.org/1999/xlink">
    <title>Aspen-Seed</title>
    <g id="Aspen-Seed" stroke="none" stroke-width="1" fill="none" fill-rule="evenodd">
        <g id="sproutB" transform="translate(165.000000, 138.000000)" fill-rule="nonzero">
            <g id="Group" fill="#3EAD26">
                <path d="M233.541176,113.96917 C233.541176,113.96917 227.729412,194.220553 134.741176,192.389723 C134.741176,192.389723 139.635294,101.763636 233.541176,113.96917 Z" id="Path"></path>
                <path d="M0.458823529,113.96917 C0.458823529,113.96917 6.27058824,194.220553 99.2588235,192.389723 C99.2588235,192.389723 94.3647059,101.763636 0.458823529,113.96917 Z" id="Path"></path>
                <path d="M117,0.15256917 L117,0.15256917 L117,0.15256917 C74.7882353,42.2616601 74.7882353,110.002372 117,152.111462 L117,152.111462 C159.211765,110.002372 159.211765,41.9565217 117,0.15256917 Z" id="Path"></path>
            </g>
            <path d="M64.151436,154.142521 C66.5953003,156.583039 69.0391645,159.023557 71.7885117,161.464075 C74.232376,164.209658 76.6762402,166.650177 78.8146214,169.700824 C83.7023499,175.191991 87.6736292,181.293286 91.6449086,187.699647 C92.5613577,189.224971 93.4778068,190.750294 94.3942559,192.580683 C95.310705,194.106007 96.227154,195.631331 97.1436031,197.46172 C98.6710183,200.817432 100.503916,203.86808 101.725849,207.528857 C102.336815,209.054181 102.947781,210.88457 103.86423,212.409894 C104.475196,213.935218 105.086162,215.765607 105.391645,217.595995 C106.002611,219.426384 106.613577,220.951708 106.91906,222.477032 C107.224543,224.30742 107.835509,225.832744 108.140992,227.663133 C108.446475,229.188457 109.057441,231.018846 109.362924,232.54417 C109.668407,234.069494 109.97389,235.899882 110.279373,237.425206 C110.584856,238.95053 110.890339,240.780919 111.195822,242.306243 C111.501305,243.831567 111.501305,245.35689 111.806789,247.187279 C112.417755,251.763251 112.417755,256.034158 112.723238,260 L121.582245,260 C121.582245,256.034158 121.887728,251.458186 122.498695,247.187279 C122.804178,245.661955 122.804178,244.136631 123.109661,242.306243 C123.415144,240.780919 123.720627,239.255595 124.02611,237.425206 C124.331593,235.899882 124.637076,234.069494 124.942559,232.54417 C125.248042,231.018846 125.859008,229.188457 126.164491,227.663133 C126.469974,226.137809 127.08094,224.30742 127.386423,222.477032 C127.997389,220.951708 128.302872,219.121319 128.913838,217.595995 C129.524804,216.070671 129.830287,214.240283 130.441253,212.409894 C131.052219,210.88457 131.663185,209.054181 132.579634,207.528857 C133.801567,204.173145 135.634465,200.817432 137.16188,197.46172 C137.772846,195.631331 138.994778,194.106007 139.911227,192.580683 C140.827676,191.055359 141.744125,189.224971 142.660574,187.699647 C146.631854,181.598351 150.603133,175.497055 155.490862,169.700824 C157.629243,166.955241 160.37859,164.209658 162.516971,161.464075 C164.960836,159.023557 167.4047,156.277974 170.154047,154.142521 C175.347258,149.261484 180.54047,144.990577 185.733681,141.3298 C190.926893,137.669022 195.814621,134.008245 200.70235,131.262662 C210.172324,125.466431 218.725849,121.195524 224.530026,118.755006 C230.639687,116.009423 234,114.789164 234,114.789164 C234,114.789164 230.334204,115.704358 224.224543,118.144876 C218.114883,120.585395 209.561358,124.246172 199.480418,129.737338 C194.592689,132.482921 189.399478,135.838634 183.900783,139.194346 C178.707572,142.855124 173.208877,146.820966 167.710183,151.702002 C164.960836,153.837456 162.516971,156.583039 159.767624,159.023557 C157.32376,161.76914 154.574413,164.209658 152.130548,166.955241 C146.937337,172.446408 142.355091,178.547703 138.078329,184.954064 C137.16188,186.479388 135.939948,188.309776 135.023499,189.8351 C134.10705,191.360424 132.885117,193.190813 131.968668,194.716137 C130.13577,198.071849 128.302872,201.427562 126.775457,204.783274 C125.859008,206.613663 125.248042,208.138987 124.331593,209.969376 C123.720627,211.799764 123.109661,213.325088 122.498695,215.155477 C121.887728,216.680801 121.276762,218.206125 120.971279,219.426384 L116.694517,1 L113.028721,219.731449 C112.417755,218.206125 111.806789,216.680801 111.501305,215.460542 C110.890339,213.630153 110.279373,212.104829 109.668407,210.274441 C108.751958,208.444052 108.140992,206.918728 107.224543,205.088339 C105.697128,201.732627 103.86423,198.376914 102.031332,195.021201 C101.114883,193.190813 100.198433,191.665489 98.9765013,190.140165 C98.0600522,188.614841 97.1436031,186.784452 95.921671,185.259128 C91.6449086,178.852768 87.0626632,172.751472 81.8694517,167.260306 C79.4255875,164.514723 76.6762402,161.76914 74.232376,159.328622 C71.4830287,156.888104 69.0391645,154.447585 66.2898172,152.007067 C60.7911227,147.431095 55.2924282,143.160188 50.0992167,139.499411 C44.6005222,135.838634 39.4073107,132.787986 34.5195822,130.042403 C24.7441253,124.551237 15.8851175,120.890459 9.77545692,118.449941 C3.66579634,116.009423 0,115.094229 0,115.094229 C0,115.094229 3.66579634,116.314488 9.46997389,119.060071 C15.5796345,121.805654 23.8276762,125.771496 33.2976501,131.567727 C38.1853786,134.31331 43.073107,137.974087 48.2663185,141.634865 C54.0704961,145.295642 59.2637076,149.566549 64.151436,154.142521 Z" id="Path" fill="#2C9984"></path>
            <path d="M196,286 L152.785855,257.519348 C133.477407,244.826884 102.522593,244.826884 83.2141454,257.519348 L40,286 L196,286 Z" id="Path" fill="#FFD05B"></path>
        </g>
    </g>
</svg>