<?xml version="1.0" encoding="UTF-8"?>
<svg width="563px" height="563px" viewBox="0 0 563 563" version="1.1" xmlns="http://www.w3.org/2000/svg" xmlns:xlink="http://www.w3.org/1999/xlink">
    <title>Aspen-LargeTree</title>
    <defs>
        <filter x="-10.2%" y="-6.8%" width="120.5%" height="113.6%" filterUnits="objectBoundingBox" id="filter-1">
            <feOffset dx="0" dy="2" in="SourceAlpha" result="shadowOffsetOuter1"></feOffset>
            <feGaussianBlur stdDeviation="2" in="shadowOffsetOuter1" result="shadowBlurOuter1"></feGaussianBlur>
            <feColorMatrix values="0 0 0 0 0   0 0 0 0 0   0 0 0 0 0  0 0 0 0.5 0" type="matrix" in="shadowBlurOuter1" result="shadowMatrixOuter1"></feColorMatrix>
            <feMerge>
                <feMergeNode in="shadowMatrixOuter1"></feMergeNode>
                <feMergeNode in="SourceGraphic"></feMergeNode>
            </feMerge>
        </filter>
        <filter x="-5.9%" y="-3.9%" width="111.7%" height="107.8%" filterUnits="objectBoundingBox" id="filter-2">
            <feOffset dx="0" dy="2" in="SourceAlpha" result="shadowOffsetOuter1"></feOffset>
            <feGaussianBlur stdDeviation="2" in="shadowOffsetOuter1" result="shadowBlurOuter1"></feGaussianBlur>
            <feColorMatrix values="0 0 0 0 0   0 0 0 0 0   0 0 0 0 0  0 0 0 0.5 0" type="matrix" in="shadowBlurOuter1" result="shadowMatrixOuter1"></feColorMatrix>
            <feMerge>
                <feMergeNode in="shadowMatrixOuter1"></feMergeNode>
                <feMergeNode in="SourceGraphic"></feMergeNode>
            </feMerge>
        </filter>
        <filter x="-7.2%" y="-4.8%" width="114.5%" height="109.6%" filterUnits="objectBoundingBox" id="filter-3">
            <feOffset dx="0" dy="2" in="SourceAlpha" result="shadowOffsetOuter1"></feOffset>
            <feGaussianBlur stdDeviation="2" in="shadowOffsetOuter1" result="shadowBlurOuter1"></feGaussianBlur>
            <feColorMatrix values="0 0 0 0 0   0 0 0 0 0   0 0 0 0 0  0 0 0 0.5 0" type="matrix" in="shadowBlurOuter1" result="shadowMatrixOuter1"></feColorMatrix>
            <feMerge>
                <feMergeNode in="shadowMatrixOuter1"></feMergeNode>
                <feMergeNode in="SourceGraphic"></feMergeNode>
            </feMerge>
        </filter>
        <filter x="-3.9%" y="-2.4%" width="107.8%" height="104.9%" filterUnits="objectBoundingBox" id="filter-4">
            <feOffset dx="0" dy="2" in="SourceAlpha" result="shadowOffsetOuter1"></feOffset>
            <feGaussianBlur stdDeviation="2" in="shadowOffsetOuter1" result="shadowBlurOuter1"></feGaussianBlur>
            <feColorMatrix values="0 0 0 0 0   0 0 0 0 0   0 0 0 0 0  0 0 0 0.5 0" type="matrix" in="shadowBlurOuter1" result="shadowMatrixOuter1"></feColorMatrix>
            <feMerge>
                <feMergeNode in="shadowMatrixOuter1"></feMergeNode>
                <feMergeNode in="SourceGraphic"></feMergeNode>
            </feMerge>
        </filter>
    </defs>
    <g id="Aspen-LargeTree" stroke="none" stroke-width="1" fill="none" fill-rule="evenodd">
        <g id="Group-2" transform="translate(73.000000, 34.000000)" fill-rule="nonzero">
            <g id="treeB-Copy-11" filter="url(#filter-1)" transform="translate(0.000000, 187.000000)">
                <g id="Group" filter="url(#filter-2)">
                    <path d="M91.7183883,167.124419 C90.7836263,167.124419 89.854564,166.804434 89.1050445,166.144818 L41.0645474,124.224071 C39.4429633,122.800983 39.2890696,120.353384 40.7339608,118.750656 C42.1703024,117.142314 44.6696508,117.00197 46.2912349,118.419444 L94.3260323,160.342998 C95.9533161,161.766086 96.1072099,164.219298 94.6623186,165.816413 C93.8843002,166.680932 92.8041941,167.124419 91.7183883,167.124419 Z" id="Path" fill="#FF7526"></path>
                    <path d="M95.0812516,176.538693 C93.5394642,176.538693 92.0717739,175.637685 91.4447994,174.147231 C90.6154831,172.162768 91.5673444,169.897616 93.5793626,169.0752 L157.522213,142.993675 C159.522832,142.17968 161.836938,143.111564 162.669104,145.093221 C163.49842,147.077685 162.546559,149.342836 160.534541,150.162445 L96.5888403,176.246777 C96.0958103,176.443259 95.5856811,176.538693 95.0812516,176.538693 Z" id="Path" fill="#FF7526"></path>
                    <ellipse id="Oval" fill="#299113" cx="37.4907927" cy="122.910451" rx="37.2308865" ry="36.6690752"></ellipse>
                    <path d="M90.7066794,307.88101 C90.6867302,307.88101 90.6639311,307.88101 90.6468318,307.88101 C86.2950587,307.844521 82.7925511,304.347149 82.8295996,300.061044 L84.7589712,59.8567076 C84.7960197,55.5902506 88.3127767,52.1630506 92.636051,52.1630506 C92.65885,52.1630506 92.6816491,52.1630506 92.6987484,52.1630506 C97.0448218,52.1939263 100.547329,55.696912 100.513131,59.9774034 L98.5809093,300.18174 C98.5467107,304.45381 95.0299537,307.88101 90.7066794,307.88101 Z" id="Path" fill="#FF7526"></path>
                    <ellipse id="Oval" fill="#3EAD26" cx="92.610402" cy="62.7477936" rx="63.7063103" ry="62.7449867"></ellipse>
                    <ellipse id="Oval" fill="#299113" cx="156.008925" cy="131.148643" rx="48.8698134" ry="48.1323715"></ellipse>
                </g>
                <path d="M91,0 C56.7204271,0.876348548 29.0473796,28.2144909 28.747083,62.1477178 C28.6698639,70.7370571 30.3629648,78.9359719 33.4746096,86.4186403 C14.8104604,88.3173955 0.16742575,103.715289 0.00154762319,122.579253 C-0.184350278,142.842004 16.4006024,159.41398 37.0352694,159.593744 C48.7725769,159.69767 59.2858181,154.456432 66.20694,146.198532 L83.9787793,161.65541 L82.8605319,300.174657 C82.8233523,304.463709 86.3382526,307.963485 90.7054233,308 C90.7225831,308 90.7454629,308 90.7654826,308 C90.8427018,308 90.9199209,307.980338 90.99714,307.97753 L90.99714,0 L91,0 Z M84.0645783,151.363932 L70.5826906,139.631535 C73.1623814,134.702075 74.6724444,129.140632 74.7267838,123.22247 C74.7267838,123.118545 74.7124839,123.017427 74.7124839,122.919119 C77.8126889,123.806703 80.995833,124.480817 84.2762159,124.89933 L84.0645783,151.363932 Z" id="Shape" fill="#FFFFFF" opacity="0.1"></path>
            </g>
            <g id="treeB-Copy-11" filter="url(#filter-3)" transform="translate(251.000000, 246.000000)">
                <g id="Group">
                    <path d="M74.2695242,135.110325 C73.5125949,135.110325 72.7602811,134.851637 72.1533531,134.318375 L33.2522676,100.427901 C31.93918,99.2774179 31.8145636,97.2986771 32.9845731,96.002965 C34.1476595,94.7027145 36.1715221,94.5892546 37.4846097,95.7351996 L76.3810798,129.627943 C77.6987828,130.778426 77.8233992,132.761705 76.6533897,134.052879 C76.0233846,134.751792 75.1487621,135.110325 74.2695242,135.110325 Z" id="Path" fill="#FF7526"></path>
                    <path d="M76.9926232,142.721216 C75.7441515,142.721216 74.5556803,141.992803 74.0479839,140.787859 C73.37644,139.183536 74.1472155,137.352293 75.7764595,136.687418 L127.554573,115.602029 C129.174586,114.943962 131.048447,115.697336 131.722299,117.299389 C132.393843,118.903712 131.623067,120.734955 129.993823,121.397561 L78.2134024,142.485219 C77.8141684,142.644063 77.4010881,142.721216 76.9926232,142.721216 Z" id="Path" fill="#FF7526"></path>
                    <ellipse id="Oval" fill="#299113" cx="30.358398" cy="99.3659166" rx="30.1479374" ry="29.6448043"></ellipse>
                    <path d="M73.4502867,248.903804 C73.4341328,248.903804 73.4156711,248.903804 73.4018248,248.903804 C69.87795,248.874304 67.0417731,246.046883 67.0717733,242.581818 L68.6340937,48.39065 C68.664094,44.9414688 71.5118094,42.1707779 75.0126071,42.1707779 C75.0310688,42.1707779 75.0495305,42.1707779 75.0633768,42.1707779 C78.5826362,42.1957391 81.4188131,45.0276984 81.3911205,48.4882255 L79.8264924,242.679393 C79.7987999,246.133113 76.9510844,248.903804 73.4502867,248.903804 Z" id="Path" fill="#FF7526"></path>
                    <ellipse id="Oval" fill="#3EAD26" cx="74.9918377" cy="50.7279241" rx="51.5865732" ry="50.7256549"></ellipse>
                    <ellipse id="Oval" fill="#299113" cx="126.329178" cy="106.026013" rx="39.5726294" ry="38.9122094"></ellipse>
                </g>
                <path d="M73,0 C45.501002,0.708476586 23.3017441,22.809767 23.0608468,50.2427979 C22.9989018,57.1867767 24.3571036,63.8151201 26.8532583,69.8644202 C11.8809188,71.3994528 0.134308569,83.8477498 0.00124149993,99.0981624 C-0.147885387,115.479413 13.1565272,128.876887 29.7096117,129.022215 C39.125254,129.106233 47.558953,124.868998 53.1110617,118.192969 L67.3675922,130.688952 L66.4705366,242.673667 C66.4407112,246.141115 69.2603565,248.97048 72.7636912,249 C72.7774568,249 72.7958109,249 72.8118707,249 C72.8738157,249 72.9357607,248.984105 72.9977057,248.981834 L72.9977057,0 L73,0 Z M67.43642,122.368893 L56.6212792,112.883936 C58.6907016,108.898755 59.9020708,104.402654 59.9456617,99.6181661 C59.9456617,99.534148 59.9341904,99.4524007 59.9341904,99.3729242 C62.421168,100.090484 64.9746792,100.635466 67.6061952,100.973809 L67.43642,122.368893 Z" id="Shape" fill="#FFFFFF" opacity="0.1"></path>
            </g>
            <g id="treeB-Copy-8" filter="url(#filter-4)" transform="translate(78.000000, 0.000000)">
                <g id="Group">
                    <path d="M137.801286,250.294742 C136.396863,250.294742 135.001004,249.815516 133.874896,248.827637 L61.6969785,186.044816 C59.2606473,183.913521 59.0294313,180.247862 61.2002923,177.847528 C63.358308,175.438786 67.1134266,175.228599 69.5497578,177.351487 L141.719112,240.138512 C144.164007,242.269807 144.395223,245.943873 142.224362,248.3358 C141.055436,249.630551 139.432643,250.294742 137.801286,250.294742 Z" id="Path" fill="#FF7526"></path>
                    <path d="M142.853783,264.394078 C140.537341,264.394078 138.332226,263.044678 137.390235,260.812493 C136.144238,257.840451 137.574352,254.448035 140.597286,253.216339 L236.667521,214.155209 C239.673328,212.936126 243.150131,214.331766 244.40041,217.299605 C245.646407,220.271648 244.216294,223.664064 241.193359,224.891555 L145.118843,263.956889 C144.378096,264.251151 143.611657,264.394078 142.853783,264.394078 Z" id="Path" fill="#FF7526"></path>
                    <ellipse id="Oval" fill="#299113" cx="56.3276299" cy="184.077467" rx="55.9371369" ry="54.9176283"></ellipse>
                    <path d="M129.947973,492.955593 C129.915846,492.955593 129.879129,492.955593 129.851591,492.955593 C122.843244,492.896399 117.202603,487.222857 117.262268,480.269809 L120.369439,90.6031408 C120.429104,83.6819665 126.092694,78.12226 133.055145,78.12226 C133.091862,78.12226 133.128579,78.12226 133.156117,78.12226 C140.155285,78.1723474 145.795926,83.8549958 145.740851,90.7989372 L142.629089,480.465606 C142.574014,487.395887 136.910425,492.955593 129.947973,492.955593 Z" id="Path" fill="#FF7526"></path>
                    <ellipse id="Oval" fill="#3EAD26" cx="139.141482" cy="93.9745545" rx="95.7148467" ry="93.9703508"></ellipse>
                    <ellipse id="Oval" fill="#299113" cx="234.393897" cy="196.415437" rx="73.4239148" ry="72.0856927"></ellipse>
                </g>
                <path d="M137,1 C85.3922914,2.31167753 43.7306704,43.2301309 43.2785755,94.0197985 C43.1623225,106.87592 45.7112766,119.147672 50.3958409,130.34738 C22.2970667,133.189348 0.252058547,156.236195 0.00232993822,184.470895 C-0.27753833,214.799234 24.6910168,239.603392 55.7563946,239.872455 C73.4268465,240.028006 89.2544735,232.183165 99.6741844,219.823127 L126.429591,242.95826 L124.746076,450.287392 C124.690102,456.707045 129.981765,461.945347 136.556516,462 C136.58235,462 136.616796,462 136.646935,462 C136.763188,462 136.879441,461.970571 136.995694,461.966367 L136.995694,1 L137,1 Z M126.558761,227.554457 L106.261853,209.993954 C110.145563,202.615768 112.418955,194.29166 112.500762,185.433633 C112.500762,185.278081 112.479234,185.126734 112.479234,184.979591 C117.146576,186.308084 121.938782,187.317067 126.87738,187.943477 L126.558761,227.554457 Z" id="Shape" fill="#FFFFFF" opacity="0.1"></path>
            </g>
        </g>
    </g>
</svg>