<?xml version="1.0" encoding="UTF-8"?>
<svg width="563px" height="563px" viewBox="0 0 563 563" version="1.1" xmlns="http://www.w3.org/2000/svg" xmlns:xlink="http://www.w3.org/1999/xlink">
    <title>Aspen-MediumTree</title>
    <defs>
        <filter x="-4.8%" y="-2.9%" width="109.7%" height="105.8%" filterUnits="objectBoundingBox" id="filter-1">
            <feOffset dx="0" dy="2" in="SourceAlpha" result="shadowOffsetOuter1"></feOffset>
            <feGaussianBlur stdDeviation="2" in="shadowOffsetOuter1" result="shadowBlurOuter1"></feGaussianBlur>
            <feColorMatrix values="0 0 0 0 0   0 0 0 0 0   0 0 0 0 0  0 0 0 0.5 0" type="matrix" in="shadowBlurOuter1" result="shadowMatrixOuter1"></feColorMatrix>
            <feMerge>
                <feMergeNode in="shadowMatrixOuter1"></feMergeNode>
                <feMergeNode in="SourceGraphic"></feMergeNode>
            </feMerge>
        </filter>
        <filter x="-16.5%" y="-11.0%" width="133.1%" height="122.0%" filterUnits="objectBoundingBox" id="filter-2">
            <feOffset dx="0" dy="2" in="SourceAlpha" result="shadowOffsetOuter1"></feOffset>
            <feGaussianBlur stdDeviation="2" in="shadowOffsetOuter1" result="shadowBlurOuter1"></feGaussianBlur>
            <feColorMatrix values="0 0 0 0 0   0 0 0 0 0   0 0 0 0 0  0 0 0 0.5 0" type="matrix" in="shadowBlurOuter1" result="shadowMatrixOuter1"></feColorMatrix>
            <feMerge>
                <feMergeNode in="shadowMatrixOuter1"></feMergeNode>
                <feMergeNode in="SourceGraphic"></feMergeNode>
            </feMerge>
        </filter>
        <filter x="-9.4%" y="-6.3%" width="118.9%" height="112.6%" filterUnits="objectBoundingBox" id="filter-3">
            <feOffset dx="0" dy="2" in="SourceAlpha" result="shadowOffsetOuter1"></feOffset>
            <feGaussianBlur stdDeviation="2" in="shadowOffsetOuter1" result="shadowBlurOuter1"></feGaussianBlur>
            <feColorMatrix values="0 0 0 0 0   0 0 0 0 0   0 0 0 0 0  0 0 0 0.5 0" type="matrix" in="shadowBlurOuter1" result="shadowMatrixOuter1"></feColorMatrix>
            <feMerge>
                <feMergeNode in="shadowMatrixOuter1"></feMergeNode>
                <feMergeNode in="SourceGraphic"></feMergeNode>
            </feMerge>
        </filter>
    </defs>
    <g id="Aspen-MediumTree" stroke="none" stroke-width="1" fill="none" fill-rule="evenodd">
        <g id="Group-2" transform="translate(107.000000, 75.000000)" fill-rule="nonzero">
            <g id="treeB-Copy-13" filter="url(#filter-1)" transform="translate(124.000000, 206.500000) scale(-1, 1) translate(-124.000000, -206.500000) ">
                <g id="Group">
                    <path d="M110.956879,202.394182 C109.826045,202.394182 108.702107,202.006669 107.795371,201.207847 L49.6780866,150.44019 C47.7163654,148.716775 47.5301915,145.752637 49.2781575,143.81167 C51.0157805,141.863906 54.0393825,141.693944 56.0011037,143.41056 L114.111493,194.181617 C116.080109,195.905032 116.266283,198.875968 114.518317,200.810136 C113.577105,201.857102 112.27044,202.394182 110.956879,202.394182 Z" id="Path" fill="#FF7526"></path>
                    <path d="M115.025124,213.795235 C113.159937,213.795235 111.38439,212.704079 110.625904,210.899082 C109.622633,208.495819 110.774153,205.752632 113.208205,204.756655 L190.563458,173.170911 C192.983719,172.185131 195.783222,173.313679 196.789941,175.713543 C197.793211,178.116806 196.641691,180.859993 194.20764,181.852572 L116.848938,213.441714 C116.252493,213.679661 115.635361,213.795235 115.025124,213.795235 Z" id="Path" fill="#FF7526"></path>
                    <ellipse id="Oval" fill="#299113" cx="45.354715" cy="148.849345" rx="45.040292" ry="44.4076787"></ellipse>
                    <path d="M110.894063,412.171487 C110.866989,412.171487 110.836047,412.171487 110.812841,412.171487 C104.906816,412.121686 100.153376,407.348526 100.203656,401.498915 L102.82211,73.6716732 C102.87239,67.8488773 107.64517,63.1714866 113.512517,63.1714866 C113.543459,63.1714866 113.5744,63.1714866 113.597607,63.1714866 C119.495896,63.2136253 124.249337,67.9944472 124.202924,73.8363971 L121.580603,401.663638 C121.53419,407.494096 116.76141,412.171487 110.894063,412.171487 Z" id="Path" fill="#FF7526"></path>
                    <ellipse id="Oval" fill="#3EAD26" cx="112.035999" cy="75.9900228" rx="77.0690974" ry="75.9866235"></ellipse>
                    <ellipse id="Oval" fill="#299113" cx="188.732748" cy="158.826116" rx="59.1205548" ry="58.2901772"></ellipse>
                </g>
                <path d="M110,0 C68.5631537,1.06129223 35.1122171,34.1688477 34.7492212,75.2633076 C34.6558794,85.6653322 36.7024849,95.5945374 40.4638138,104.65634 C17.9027543,106.955807 0.202382775,125.603256 0.00187075331,148.448251 C-0.222840995,172.987233 19.824904,193.056541 44.7679081,193.274242 C58.9558621,193.4001 71.6641758,187.052756 80.030367,177.052118 L101.51281,195.771 L100.161083,363.523205 C100.11614,368.717414 104.364921,372.955779 109.643918,373 C109.664661,373 109.692318,373 109.716517,373 C109.809859,373 109.903201,372.976189 109.996543,372.972787 L109.996543,0 L110,0 Z M101.616523,183.307619 L85.3197359,169.099229 C88.4380435,163.129461 90.2633943,156.394337 90.3290793,149.227213 C90.3290793,149.101354 90.3117938,148.978897 90.3117938,148.859842 C94.0592943,149.934741 97.9070508,150.751119 101.872349,151.257954 L101.616523,183.307619 Z" id="Shape" fill="#FFFFFF" opacity="0.1"></path>
            </g>
            <g id="treeB-Copy-12" filter="url(#filter-2)" transform="translate(223.000000, 214.000000)">
                <g id="Group" filter="url(#filter-3)">
                    <path d="M56.8206601,103.638844 C56.2415636,103.638844 55.6659982,103.440412 55.2016617,103.031364 L25.4399879,77.0350569 C24.4353968,76.1525575 24.3400577,74.6347283 25.2351855,73.6408286 C26.1250166,72.6434477 27.6733934,72.5564162 28.6779846,73.4354343 L58.4361273,99.4334822 C59.4442495,100.315982 59.5395886,101.837292 58.6444608,102.827711 C58.1624689,103.363825 57.49333,103.638844 56.8206601,103.638844 Z" id="Path" fill="#FF7526"></path>
                    <path d="M58.9039949,109.476917 C57.9488388,109.476917 57.0395868,108.918174 56.6511684,107.9939 C56.1373969,106.763275 56.7270865,105.358586 57.9735564,104.848582 L97.5869322,88.6746489 C98.8263398,88.1698662 100.259957,88.7477554 100.775494,89.9766401 C101.289265,91.2072654 100.699576,92.6119537 99.4531058,93.1202176 L59.8379645,109.295891 C59.5325264,109.417735 59.2164951,109.476917 58.9039949,109.476917 Z" id="Path" fill="#FF7526"></path>
                    <ellipse id="Oval" fill="#299113" cx="23.2260033" cy="76.2204421" rx="23.0649883" ry="22.7395888"></ellipse>
                    <path d="M56.1938941,190.926211 C56.1815353,190.926211 56.167411,190.926211 56.1568178,190.926211 C53.4608413,190.903583 51.2909951,188.734758 51.3139471,186.076816 L52.5092163,37.1189323 C52.5321683,34.4731749 54.7108422,32.3478658 57.3891633,32.3478658 C57.4032876,32.3478658 57.4174119,32.3478658 57.4280051,32.3478658 C60.1204506,32.3670127 62.2902967,34.5393188 62.2691103,37.1937794 L61.0720755,186.151663 C61.0508891,188.800902 58.8722152,190.926211 56.1938941,190.926211 Z" id="Path" fill="#FF7526"></path>
                    <ellipse id="Oval" fill="#3EAD26" cx="57.3732734" cy="38.9117811" rx="39.4668361" ry="38.9100405"></ellipse>
                    <ellipse id="Oval" fill="#299113" cx="96.6494315" cy="81.3291908" rx="30.2754454" ry="29.8483213"></ellipse>
                </g>
                <path d="M56,0 C34.9048782,0.543449911 17.8753105,17.4966486 17.6905126,38.5396562 C17.6429932,43.8661621 18.6849014,48.950554 20.5997598,53.5907802 C9.11412947,54.768255 0.103031231,64.3169486 0.000952383504,76.0150563 C-0.113446325,88.5805937 10.0926784,98.8573708 22.790935,98.9688477 C30.0138935,99.0332953 36.4835804,95.7830468 40.7427323,90.6620765 L51.6792488,100.247349 L50.9910966,186.147271 C50.9682168,188.80704 53.1312324,190.977356 55.818722,191 C55.8292819,191 55.8433618,191 55.8556816,191 C55.9032011,191 55.9507206,190.987807 55.99824,190.986065 L55.99824,0 L56,0 Z M51.7320482,93.8652957 L43.4355019,86.5896858 C45.023004,83.5327801 45.9522735,80.0839633 45.9857131,76.4139346 C45.9857131,76.349487 45.9769132,76.2867813 45.9769132,76.2258173 C47.8847316,76.7762346 49.8435895,77.1942729 51.8622867,77.4538051 L51.7320482,93.8652957 Z" id="Shape" fill="#FFFFFF" opacity="0.1"></path>
            </g>
        </g>
    </g>
</svg>