<?xml version="1.0" encoding="UTF-8"?>
<svg width="563px" height="563px" viewBox="0 0 563 563" version="1.1" xmlns="http://www.w3.org/2000/svg" xmlns:xlink="http://www.w3.org/1999/xlink">
    <title>Aspen-SmallTree</title>
    <defs>
        <filter x="-6.5%" y="-4.3%" width="113.0%" height="108.6%" filterUnits="objectBoundingBox" id="filter-1">
            <feOffset dx="0" dy="2" in="SourceAlpha" result="shadowOffsetOuter1"></feOffset>
            <feGaussianBlur stdDeviation="2" in="shadowOffsetOuter1" result="shadowBlurOuter1"></feGaussianBlur>
            <feColorMatrix values="0 0 0 0 0   0 0 0 0 0   0 0 0 0 0  0 0 0 0.5 0" type="matrix" in="shadowBlurOuter1" result="shadowMatrixOuter1"></feColorMatrix>
            <feMerge>
                <feMergeNode in="shadowMatrixOuter1"></feMergeNode>
                <feMergeNode in="SourceGraphic"></feMergeNode>
            </feMerge>
        </filter>
    </defs>
    <g id="Aspen-SmallTree" stroke="none" stroke-width="1" fill="none" fill-rule="evenodd">
        <g id="treeB-Copy-14" filter="url(#filter-1)" transform="translate(189.000000, 142.000000)" fill-rule="nonzero">
            <g id="Group">
                <path d="M82.7702528,150.846066 C81.9266871,150.846066 81.0882651,150.557249 80.4118694,149.961881 L37.0582501,112.124324 C35.5948693,110.839848 35.4559896,108.630652 36.7599159,107.184033 C38.0561266,105.732348 40.3116361,105.605674 41.7750169,106.885082 L85.1234925,144.725173 C86.592017,146.009649 86.7308967,148.223912 85.4269704,149.665463 C84.7248563,150.445776 83.7501264,150.846066 82.7702528,150.846066 Z" id="Path" fill="#FF7526"></path>
                <path d="M85.8050319,159.343366 C84.4136629,159.343366 83.0891618,158.530118 82.5233556,157.184839 C81.7749482,155.393667 82.633945,153.349147 84.4496687,152.606836 L142.154193,129.065719 C143.959629,128.33101 146.047968,129.172126 146.798948,130.960764 C147.547355,132.751936 146.688358,134.796456 144.872634,135.536233 L87.1655388,159.079883 C86.7206093,159.257227 86.2602488,159.343366 85.8050319,159.343366 Z" id="Path" fill="#FF7526"></path>
                <ellipse id="Oval" fill="#299113" cx="33.8331543" cy="110.938654" rx="33.5986049" ry="33.097412"></ellipse>
                <path d="M81.8572473,277.8926 C81.8392443,277.8926 81.8186696,277.8926 81.8032385,277.8926 C77.8760286,277.859665 74.7152291,274.702946 74.7486631,270.834319 L76.4898033,54.0265088 C76.5232373,50.1756158 79.6968961,47.082234 83.5983875,47.082234 C83.6189622,47.082234 83.639537,47.082234 83.6549681,47.082234 C87.5770343,47.1101023 90.7378338,50.2718881 90.7069717,54.1354486 L88.9632596,270.943258 C88.9323975,274.799218 85.7587387,277.8926 81.8572473,277.8926 Z" id="Path" fill="#FF7526"></path>
                <ellipse id="Oval" fill="#3EAD26" cx="83.5752408" cy="56.6359955" rx="57.4910605" ry="56.6334621"></ellipse>
                <ellipse id="Oval" fill="#299113" cx="140.788542" cy="118.374424" rx="44.1020267" ry="43.4441535"></ellipse>
            </g>
            <path d="M81,0 C50.4874131,0.790989923 25.8553599,25.4663262 25.5880629,56.0943687 C25.5193294,63.847084 27.0263752,71.2474032 29.7960811,78.0012403 C13.1829373,79.7150518 0.149027316,93.6131503 0.00137755471,110.639715 C-0.164092005,128.928822 14.5983384,143.886644 32.9654596,144.048899 C43.412953,144.142702 52.7708931,139.411974 58.9314521,131.958415 L74.750342,145.909753 L73.754979,270.936866 C73.721885,274.808153 76.8505326,277.967042 80.7377944,278 C80.7530685,278 80.773434,278 80.7912538,278 C80.8599873,278 80.9287208,277.982253 80.9974543,277.979718 L80.9974543,0 L81,0 Z M74.8267126,136.620692 L62.8263509,126.031061 C65.1225593,121.581743 66.4666813,116.561999 66.5150493,111.220282 C66.5150493,111.126479 66.5023209,111.03521 66.5023209,110.946478 C69.261844,111.747608 72.095192,112.356062 75.0150933,112.733811 L74.8267126,136.620692 Z" id="Shape" fill="#FFFFFF" opacity="0.1"></path>
        </g>
    </g>
</svg>