<?xml version="1.0" encoding="UTF-8"?>
<svg width="563px" height="563px" viewBox="0 0 563 563" version="1.1" xmlns="http://www.w3.org/2000/svg" xmlns:xlink="http://www.w3.org/1999/xlink">
    <title>Birch-LargeTree</title>
    <g id="Birch-LargeTree" stroke="none" stroke-width="1" fill="none" fill-rule="evenodd">
        <g id="treeA-Copy-2" transform="translate(18.000000, 183.000000)" fill-rule="nonzero">
            <path d="M72.3953476,224.963321 L24.8159688,224.963321 C10.7008936,224.963321 -0.31333316,212.189149 1.12675714,197.495039 L16.4952037,40.6121129 C18.7517102,17.5419202 37.3179238,0 59.470674,0 L157.529324,0 C179.681527,0 198.248288,17.5419202 200.504795,40.6121129 L215.873241,197.495612 C217.313332,212.189722 206.299105,224.963894 192.191148,224.963894 L144.605199,224.963894 L144.356057,225 L72.6444887,225 L72.3953476,224.963321 Z" id="Path" fill="#F7B239"></path>
            <g id="Group" fill="#E09B2D">
                <path d="M30.1472727,198.538003 L45.4565455,40.8260076 C47.7043636,17.6345584 66.1996364,0 88.2665455,0 L58.614,0 C36.5470909,0 18.0518182,17.6345584 15.804,40.8265838 L0.494727273,198.538003 C-0.939818182,213.309711 10.032,226.151343 24.0927273,226.151343 L53.7452727,226.151343 C39.6845455,226.151343 28.7127273,213.310287 30.1472727,198.538003 Z" id="Path"></path>
                <polygon id="Path" points="143.172 226.188216 143.420182 226.151343 143.167091 226.151343"></polygon>
                <polygon id="Path" points="71.7370909 226.188216 71.7414545 226.151343 71.4889091 226.151343"></polygon>
            </g>
            <polygon id="Path" fill="#B27214" points="139.010549 190.769866 191 128.60177 183.407771 120.643426 135.394159 164.838564 129.644646 123.506797 162.119833 83.1856319 154.527605 75.2278626 126.395374 100.162934 118.997115 47 97.0028849 47 89.6046264 100.162934 61.4723951 75.2278626 53.8801666 83.1856319 86.3553543 123.506797 80.6058412 164.838564 32.5922285 120.643426 25 128.60177 76.9894505 190.776765 72.1199258 225.807505 63.3222337 289 152.677766 289 143.880074 225.807505"></polygon>
            <g id="Group" transform="translate(63.000000, 47.000000)" fill="#995C0D">
                <polygon id="Path" points="34.4670442 0.31287037 41.4518343 0.31287037 38.7202569 53.4032407 37.5251575 76.7152407 35.4120193 117.990593 34.0778398 143.893389 32.2846409 178.876315 29.0390718 241.982556 0.676624309 241.982556 9.50298895 178.876315 14.388384 143.893389 18.0165608 117.990593 23.7848122 76.7152407 27.044674 53.4032407"></polygon>
            </g>
        </g>
        <g id="treeA-Copy-3" transform="translate(318.000000, 183.000000)" fill-rule="nonzero">
            <path d="M72.3953476,224.963321 L24.8159688,224.963321 C10.7008936,224.963321 -0.31333316,212.189149 1.12675714,197.495039 L16.4952037,40.6121129 C18.7517102,17.5419202 37.3179238,0 59.470674,0 L157.529324,0 C179.681527,0 198.248288,17.5419202 200.504795,40.6121129 L215.873241,197.495612 C217.313332,212.189722 206.299105,224.963894 192.191148,224.963894 L144.605199,224.963894 L144.356057,225 L72.6444887,225 L72.3953476,224.963321 Z" id="Path" fill="#F7B239"></path>
            <g id="Group" fill="#E09B2D">
                <path d="M30.1472727,198.538003 L45.4565455,40.8260076 C47.7043636,17.6345584 66.1996364,0 88.2665455,0 L58.614,0 C36.5470909,0 18.0518182,17.6345584 15.804,40.8265838 L0.494727273,198.538003 C-0.939818182,213.309711 10.032,226.151343 24.0927273,226.151343 L53.7452727,226.151343 C39.6845455,226.151343 28.7127273,213.310287 30.1472727,198.538003 Z" id="Path"></path>
                <polygon id="Path" points="143.172 226.188216 143.420182 226.151343 143.167091 226.151343"></polygon>
                <polygon id="Path" points="71.7370909 226.188216 71.7414545 226.151343 71.4889091 226.151343"></polygon>
            </g>
            <polygon id="Path" fill="#B27214" points="139.010549 190.769866 191 128.60177 183.407771 120.643426 135.394159 164.838564 129.644646 123.506797 162.119833 83.1856319 154.527605 75.2278626 126.395374 100.162934 118.997115 47 97.0028849 47 89.6046264 100.162934 61.4723951 75.2278626 53.8801666 83.1856319 86.3553543 123.506797 80.6058412 164.838564 32.5922285 120.643426 25 128.60177 76.9894505 190.776765 72.1199258 225.807505 63.3222337 289 152.677766 289 143.880074 225.807505"></polygon>
            <g id="Group" transform="translate(63.000000, 47.000000)" fill="#995C0D">
                <polygon id="Path" points="34.4670442 0.31287037 41.4518343 0.31287037 38.7202569 53.4032407 37.5251575 76.7152407 35.4120193 117.990593 34.0778398 143.893389 32.2846409 178.876315 29.0390718 241.982556 0.676624309 241.982556 9.50298895 178.876315 14.388384 143.893389 18.0165608 117.990593 23.7848122 76.7152407 27.044674 53.4032407"></polygon>
            </g>
        </g>
        <g id="treeA-Copy" transform="translate(126.000000, 70.000000)" fill-rule="nonzero">
            <path d="M103.942129,323.947182 L35.3393038,323.947182 C14.9873349,323.947182 -0.89364316,305.552374 1.18276611,284.392857 L23.3419216,58.4814425 C26.5954891,25.2603651 53.3653785,0 85.3065533,0 L226.693445,0 C258.63383,0 285.404509,25.2603651 288.658076,58.4814425 L310.817232,284.393682 C312.893641,305.553199 297.012663,323.948007 276.670958,323.948007 L208.058658,323.948007 L207.699432,324 L104.301356,324 L103.942129,323.947182 Z" id="Path" fill="#F7B239"></path>
            <g id="Group" fill="#E09B2D">
                <path d="M43.5460606,285.125061 L65.6594545,58.6311827 C68.906303,25.325401 95.621697,0 127.496121,0 L84.6646667,0 C52.7902424,0 26.0748485,25.325401 22.828,58.6320102 L0.714606061,285.125061 C-1.35751515,306.339056 14.4906667,324.781223 34.8006061,324.781223 L77.6320606,324.781223 C57.3221212,324.781223 41.4739394,306.339883 43.5460606,285.125061 Z" id="Path"></path>
                <polygon id="Path" points="206.804 324.834178 207.162485 324.781223 206.796909 324.781223"></polygon>
                <polygon id="Path" points="103.620242 324.834178 103.626545 324.781223 103.261758 324.781223"></polygon>
            </g>
            <polygon id="Path" fill="#B27214" points="200.147719 273.743444 275 184.344694 264.06902 172.900464 194.940988 236.453803 186.663074 177.018039 233.419519 119.035537 222.48854 107.592133 181.984905 143.449178 171.333196 67 139.666804 67 129.015095 143.449178 88.5114605 107.592133 77.5804809 119.035537 124.336926 177.018039 116.059012 236.453803 46.9309796 172.900464 36 184.344694 110.852281 273.753364 103.841339 324.128148 91.1747823 415 219.825218 415 207.158661 324.128148"></polygon>
            <g id="Group" transform="translate(91.000000, 67.000000)" fill="#995C0D">
                <polygon id="Path" points="49.1435912 0.450381944 59.1820331 0.450381944 55.2562486 76.8748264 53.5386685 110.432826 50.5016961 169.849361 48.584232 207.136854 46.0070718 257.49534 41.3425856 348.337792 0.580475138 348.337792 13.2656022 257.49534 20.2868232 207.136854 25.5011878 169.849361 33.7912376 110.432826 38.4762652 76.8748264"></polygon>
            </g>
        </g>
    </g>
</svg>