<?xml version="1.0" encoding="UTF-8"?>
<svg width="563px" height="563px" viewBox="0 0 563 563" version="1.1" xmlns="http://www.w3.org/2000/svg" xmlns:xlink="http://www.w3.org/1999/xlink">
    <title>Birch-SmallTree</title>
    <g id="Birch-SmallTree" stroke="none" stroke-width="1" fill="none" fill-rule="evenodd">
        <g id="treeA-Copy-6" transform="translate(201.000000, 197.000000)" fill-rule="nonzero">
            <path d="M54.1314214,167.972613 L18.7235116,167.972613 C8.21926965,167.972613 0.0226357882,158.434564 1.09433089,147.462963 L12.5313144,30.3237109 C14.210575,13.0979671 28.0272921,0 44.5130597,0 L117.486939,0 C133.972299,0 147.789424,13.0979671 149.468685,30.3237109 L160.905668,147.463391 C161.977363,158.434992 153.780729,167.973041 143.281785,167.973041 L107.868985,167.973041 L107.683578,168 L54.3168288,168 L54.1314214,167.972613 Z" id="Path" fill="#F7B239"></path>
            <g id="Group" fill="#E09B2D">
                <path d="M22.4010985,148.684848 L33.7767386,30.5745431 C35.4469924,13.2064975 49.1900076,0 65.586947,0 L43.5534583,0 C27.1565189,0 13.4135038,13.2064975 11.74325,30.5749746 L0.367609848,148.684848 C-0.698337121,159.74736 7.45433333,169.364442 17.9022348,169.364442 L39.9357235,169.364442 C29.487822,169.364442 21.3351515,159.747792 22.4010985,148.684848 Z" id="Path"></path>
                <polygon id="Path" points="106.38475 169.392056 106.569163 169.364442 106.381102 169.364442"></polygon>
                <polygon id="Path" points="53.3046439 169.392056 53.3078864 169.364442 53.1202311 169.364442"></polygon>
            </g>
            <polygon id="Path" fill="#B27214" points="104.164507 142.530355 143 96.0327289 137.328697 90.0804137 101.463107 123.135455 97.1682896 92.2220261 121.426863 62.0644602 115.75556 56.1125749 94.7411224 74.7623601 89.2147125 35 72.7852875 35 67.2588776 74.7623601 46.2444397 56.1125749 40.5731365 62.0644602 64.8317104 92.2220261 60.5368934 123.135455 24.6713032 90.0804137 19 96.0327289 57.8354932 142.535514 54.1980169 168.736192 47.6262469 216 114.373753 216 107.801983 168.736192"></polygon>
            <g id="Group" transform="translate(47.000000, 35.000000)" fill="#995C0D">
                <polygon id="Path" points="25.4399612 0.234006351 30.5954015 0.234006351 28.5792372 39.9420933 27.69714 57.377928 26.1374428 88.2491622 25.1526913 107.622741 23.8291397 133.787657 21.4336006 180.986953 0.499413181 180.986953 7.01411089 133.787657 10.6199977 107.622741 13.2979377 88.2491622 17.5554566 57.377928 19.9615451 39.9420933"></polygon>
            </g>
        </g>
    </g>
</svg>