<?xml version="1.0" encoding="UTF-8"?>
<svg width="563px" height="563px" viewBox="0 0 563 563" version="1.1" xmlns="http://www.w3.org/2000/svg" xmlns:xlink="http://www.w3.org/1999/xlink">
    <title>Birch-Seed</title>
    <g id="Birch-Seed" stroke="none" stroke-width="1" fill="none" fill-rule="evenodd">
        <g id="sproutA-Copy" transform="translate(165.000000, 139.000000)" fill-rule="nonzero">
            <g id="Group" transform="translate(0.141732, 0.173228)" fill="#3EB214">
                <path d="M233.258268,114.108661 C233.258268,114.108661 227.453543,194.458268 134.577953,192.625197 C134.577953,192.625197 139.466142,101.888189 233.258268,114.108661 Z" id="Path"></path>
                <path d="M0.458267717,114.108661 C0.458267717,114.108661 6.26299213,194.458268 99.1385827,192.625197 C99.1385827,192.625197 94.2503937,101.888189 0.458267717,114.108661 Z" id="Path"></path>
                <path d="M116.858268,0.152755906 L116.858268,0.152755906 L116.858268,0.152755906 C74.6976378,42.3133858 74.6976378,110.137008 116.858268,152.297638 L116.858268,152.297638 C159.018898,110.137008 159.018898,42.007874 116.858268,0.152755906 Z" id="Path"></path>
            </g>
            <path d="M64.4519685,153.692913 C66.896063,156.137008 69.3401575,158.581102 72.0897638,161.025197 C74.5338583,163.774803 76.9779528,166.218898 79.1165354,169.274016 C84.0047244,174.773228 87.976378,180.883465 91.9480315,187.299213 C92.8645669,188.826772 93.7811024,190.354331 94.6976378,192.187402 C95.6141732,193.714961 96.5307087,195.24252 97.4472441,197.075591 C98.9748031,200.43622 100.807874,203.491339 102.029921,207.15748 C102.640945,208.685039 103.251969,210.51811 104.168504,212.045669 C104.779528,213.573228 105.390551,215.406299 105.696063,217.23937 C106.307087,219.072441 106.91811,220.6 107.223622,222.127559 C107.529134,223.96063 108.140157,225.488189 108.445669,227.32126 C108.751181,228.848819 109.362205,230.68189 109.667717,232.209449 C109.973228,233.737008 110.27874,235.570079 110.584252,237.097638 C110.889764,238.625197 111.195276,240.458268 111.500787,241.985827 C111.806299,243.513386 111.806299,245.040945 112.111811,246.874016 C112.722835,251.456693 112.722835,255.733858 113.028346,259.705512 L121.888189,259.705512 C121.888189,255.733858 122.193701,251.151181 122.804724,246.874016 C123.110236,245.346457 123.110236,243.818898 123.415748,241.985827 C123.72126,240.458268 124.026772,238.930709 124.332283,237.097638 C124.637795,235.570079 124.943307,233.737008 125.248819,232.209449 C125.554331,230.68189 126.165354,228.848819 126.470866,227.32126 C126.776378,225.793701 127.387402,223.96063 127.692913,222.127559 C128.303937,220.6 128.609449,218.766929 129.220472,217.23937 C129.831496,215.711811 130.137008,213.87874 130.748031,212.045669 C131.359055,210.51811 131.970079,208.685039 132.886614,207.15748 C134.108661,203.79685 135.941732,200.43622 137.469291,197.075591 C138.080315,195.24252 139.302362,193.714961 140.218898,192.187402 C141.135433,190.659843 142.051969,188.826772 142.968504,187.299213 C146.940157,181.188976 150.911811,175.07874 155.8,169.274016 C157.938583,166.524409 160.688189,163.774803 162.826772,161.025197 C165.270866,158.581102 167.714961,155.831496 170.464567,153.692913 C175.658268,148.804724 180.851969,144.527559 186.045669,140.861417 C191.23937,137.195276 196.127559,133.529134 201.015748,130.779528 C210.486614,124.974803 219.040945,120.697638 224.845669,118.253543 C230.955906,115.503937 234.316535,114.28189 234.316535,114.28189 C234.316535,114.28189 230.650394,115.198425 224.540157,117.64252 C218.429921,120.086614 209.875591,123.752756 199.793701,129.251969 C194.905512,132.001575 189.711811,135.362205 184.212598,138.722835 C179.018898,142.388976 173.519685,146.36063 168.020472,151.248819 C165.270866,153.387402 162.826772,156.137008 160.077165,158.581102 C157.633071,161.330709 154.883465,163.774803 152.43937,166.524409 C147.245669,172.023622 142.662992,178.133858 138.385827,184.549606 C137.469291,186.077165 136.247244,187.910236 135.330709,189.437795 C134.414173,190.965354 133.192126,192.798425 132.275591,194.325984 C130.44252,197.686614 128.609449,201.047244 127.08189,204.407874 C126.165354,206.240945 125.554331,207.768504 124.637795,209.601575 C124.026772,211.434646 123.415748,212.962205 122.804724,214.795276 C122.193701,216.322835 121.582677,217.850394 121.277165,219.072441 L117,0.325984252 L113.333858,219.377953 C112.722835,217.850394 112.111811,216.322835 111.806299,215.100787 C111.195276,213.267717 110.584252,211.740157 109.973228,209.907087 C109.056693,208.074016 108.445669,206.546457 107.529134,204.713386 C106.001575,201.352756 104.168504,197.992126 102.335433,194.631496 C101.418898,192.798425 100.502362,191.270866 99.280315,189.743307 C98.3637795,188.215748 97.4472441,186.382677 96.2251969,184.855118 C91.9480315,178.43937 87.3653543,172.329134 82.1716535,166.829921 C79.7275591,164.080315 76.9779528,161.330709 74.5338583,158.886614 C71.784252,156.44252 69.3401575,153.998425 66.5905512,151.554331 C61.0913386,146.971654 55.592126,142.694488 50.3984252,139.028346 C44.8992126,135.362205 39.7055118,132.307087 34.8173228,129.55748 C25.0409449,124.058268 16.1811024,120.392126 10.0708661,117.948031 C3.96062992,115.503937 0.294488189,114.587402 0.294488189,114.587402 C0.294488189,114.587402 3.96062992,115.809449 9.76535433,118.559055 C15.8755906,121.308661 24.1244094,125.280315 33.5952756,131.085039 C38.4834646,133.834646 43.3716535,137.500787 48.5653543,141.166929 C54.3700787,144.833071 59.5637795,149.110236 64.4519685,153.692913 Z" id="Path" fill="#995C0D"></path>
            <path d="M195.516535,285.674016 L152.43937,257.566929 C133.192126,245.040945 102.335433,245.040945 83.088189,257.566929 L40.0110236,285.674016 L195.516535,285.674016 Z" id="Path" fill="#995C0D"></path>
        </g>
    </g>
</svg>