<?xml version="1.0" encoding="UTF-8"?>
<svg width="563px" height="563px" viewBox="0 0 563 563" version="1.1" xmlns="http://www.w3.org/2000/svg" xmlns:xlink="http://www.w3.org/1999/xlink">
    <title>Birch-MediumTree</title>
    <g id="Birch-MediumTree" stroke="none" stroke-width="1" fill="none" fill-rule="evenodd">
        <g id="treeA-Copy-5" transform="translate(282.000000, 231.000000)" fill-rule="nonzero">
            <path d="M54.1314214,167.972613 L18.7235116,167.972613 C8.21926965,167.972613 0.0226357882,158.434564 1.09433089,147.462963 L12.5313144,30.3237109 C14.210575,13.0979671 28.0272921,0 44.5130597,0 L117.486939,0 C133.972299,0 147.789424,13.0979671 149.468685,30.3237109 L160.905668,147.463391 C161.977363,158.434992 153.780729,167.973041 143.281785,167.973041 L107.868985,167.973041 L107.683578,168 L54.3168288,168 L54.1314214,167.972613 Z" id="Path" fill="#F7B239"></path>
            <g id="Group" fill="#E09B2D">
                <path d="M22.4010985,148.684848 L33.7767386,30.5745431 C35.4469924,13.2064975 49.1900076,0 65.586947,0 L43.5534583,0 C27.1565189,0 13.4135038,13.2064975 11.74325,30.5749746 L0.367609848,148.684848 C-0.698337121,159.74736 7.45433333,169.364442 17.9022348,169.364442 L39.9357235,169.364442 C29.487822,169.364442 21.3351515,159.747792 22.4010985,148.684848 Z" id="Path"></path>
                <polygon id="Path" points="106.38475 169.392056 106.569163 169.364442 106.381102 169.364442"></polygon>
                <polygon id="Path" points="53.3046439 169.392056 53.3078864 169.364442 53.1202311 169.364442"></polygon>
            </g>
            <polygon id="Path" fill="#B27214" points="104.164507 142.530355 143 96.0327289 137.328697 90.0804137 101.463107 123.135455 97.1682896 92.2220261 121.426863 62.0644602 115.75556 56.1125749 94.7411224 74.7623601 89.2147125 35 72.7852875 35 67.2588776 74.7623601 46.2444397 56.1125749 40.5731365 62.0644602 64.8317104 92.2220261 60.5368934 123.135455 24.6713032 90.0804137 19 96.0327289 57.8354932 142.535514 54.1980169 168.736192 47.6262469 216 114.373753 216 107.801983 168.736192"></polygon>
            <g id="Group" transform="translate(47.000000, 35.000000)" fill="#995C0D">
                <polygon id="Path" points="25.4399612 0.234006351 30.5954015 0.234006351 28.5792372 39.9420933 27.69714 57.377928 26.1374428 88.2491622 25.1526913 107.622741 23.8291397 133.787657 21.4336006 180.986953 0.499413181 180.986953 7.01411089 133.787657 10.6199977 107.622741 13.2979377 88.2491622 17.5554566 57.377928 19.9615451 39.9420933"></polygon>
            </g>
        </g>
        <g id="treeA-Copy-4" transform="translate(96.000000, 137.000000)" fill-rule="nonzero">
            <path d="M72.3953476,224.963321 L24.8159688,224.963321 C10.7008936,224.963321 -0.31333316,212.189149 1.12675714,197.495039 L16.4952037,40.6121129 C18.7517102,17.5419202 37.3179238,0 59.470674,0 L157.529324,0 C179.681527,0 198.248288,17.5419202 200.504795,40.6121129 L215.873241,197.495612 C217.313332,212.189722 206.299105,224.963894 192.191148,224.963894 L144.605199,224.963894 L144.356057,225 L72.6444887,225 L72.3953476,224.963321 Z" id="Path" fill="#F7B239"></path>
            <g id="Group" fill="#E09B2D">
                <path d="M30.1472727,198.538003 L45.4565455,40.8260076 C47.7043636,17.6345584 66.1996364,0 88.2665455,0 L58.614,0 C36.5470909,0 18.0518182,17.6345584 15.804,40.8265838 L0.494727273,198.538003 C-0.939818182,213.309711 10.032,226.151343 24.0927273,226.151343 L53.7452727,226.151343 C39.6845455,226.151343 28.7127273,213.310287 30.1472727,198.538003 Z" id="Path"></path>
                <polygon id="Path" points="143.172 226.188216 143.420182 226.151343 143.167091 226.151343"></polygon>
                <polygon id="Path" points="71.7370909 226.188216 71.7414545 226.151343 71.4889091 226.151343"></polygon>
            </g>
            <polygon id="Path" fill="#B27214" points="139.010549 190.769866 191 128.60177 183.407771 120.643426 135.394159 164.838564 129.644646 123.506797 162.119833 83.1856319 154.527605 75.2278626 126.395374 100.162934 118.997115 47 97.0028849 47 89.6046264 100.162934 61.4723951 75.2278626 53.8801666 83.1856319 86.3553543 123.506797 80.6058412 164.838564 32.5922285 120.643426 25 128.60177 76.9894505 190.776765 72.1199258 225.807505 63.3222337 289 152.677766 289 143.880074 225.807505"></polygon>
            <g id="Group" transform="translate(63.000000, 47.000000)" fill="#995C0D">
                <polygon id="Path" points="34.4670442 0.31287037 41.4518343 0.31287037 38.7202569 53.4032407 37.5251575 76.7152407 35.4120193 117.990593 34.0778398 143.893389 32.2846409 178.876315 29.0390718 241.982556 0.676624309 241.982556 9.50298895 178.876315 14.388384 143.893389 18.0165608 117.990593 23.7848122 76.7152407 27.044674 53.4032407"></polygon>
            </g>
        </g>
    </g>
</svg>