<?xml version="1.0" encoding="UTF-8"?>
<svg width="563px" height="563px" viewBox="0 0 563 563" version="1.1" xmlns="http://www.w3.org/2000/svg" xmlns:xlink="http://www.w3.org/1999/xlink">
    <title>Empty-FourLeaf</title>

        <g id="Group" transform="translate(-15.000000, -15.000000)" fill="#000000" fill-rule="nonzero">
            <g id="leaf-svgrepo-com" transform="translate(430.500000, 163.000000) rotate(45.000000) translate(-430.500000, -163.000000) translate(338.000000, 26.000000)">
                <path d="M180.444621,167.100398 C175.079241,144.973828 164.969122,119.554441 150.394969,91.5475742 C125.688817,44.0690469 96.2037732,4.89828516 95.9086613,4.50815625 L92.5001985,0 L89.0917358,4.50815625 C88.7960902,4.89828516 59.3121135,44.0690469 34.6054281,91.5470391 C20.030741,119.553906 9.92115616,144.973293 4.55577578,167.099863 C-2.29370277,195.345945 -1.41637182,218.450781 7.16535506,235.774324 C19.7302925,261.139125 48.4410012,274 92.5001985,274 C136.558862,274 165.270105,261.139125 177.834508,235.774324 C186.415702,218.451852 187.2941,195.34648 180.444621,167.100398 Z M170.173339,231.95866 C159.566386,253.371332 134.87998,264.601586 96.7774537,265.374887 L96.7774537,233.285313 C97.4792117,231.202484 100.157099,223.785754 104.976549,216.394711 C112.164366,205.371027 120.416827,199.782391 129.505527,199.782391 L129.505527,191.204371 C114.008148,191.204371 103.351032,202.628352 96.7774537,213.295086 L96.7774537,150.901219 C98.9120789,147.05291 108.430373,131.277039 120.968627,131.277039 L120.968627,122.69902 C110.665859,122.69902 102.379244,129.448945 96.7774537,135.967148 L96.7774537,64.1898516 L88.223477,64.1898516 L88.223477,97.3775664 C83.3597335,92.7875313 76.2807828,88.4431328 66.8830954,88.4431328 L66.8830954,97.0211523 C79.0958197,97.0211523 86.3989061,107.894992 88.223477,110.978027 L88.223477,176.580691 C81.9716935,169.868762 72.064898,162.661277 58.3461957,162.661277 L58.3461957,171.239297 C75.8389153,171.239297 86.028015,187.080992 88.223477,190.889164 L88.223477,265.374887 C50.1214848,264.601051 25.4361456,253.372402 14.8286594,231.961336 C-15.8256254,170.089781 73.6445207,40.5086523 92.5044678,14.3416523 C100.912756,25.9818359 123.351403,58.1195742 142.811179,95.516293 C174.635239,156.670738 184.096431,203.851719 170.173339,231.95866 Z" id="Shape"></path>
            </g>
            <g id="leaf-svgrepo-com-copy" transform="translate(162.500000, 430.000000) rotate(225.000000) translate(-162.500000, -430.000000) translate(70.000000, 293.000000)">
                <path d="M180.444621,167.100398 C175.079241,144.973828 164.969122,119.554441 150.394969,91.5475742 C125.688817,44.0690469 96.2037732,4.89828516 95.9086613,4.50815625 L92.5001985,0 L89.0917358,4.50815625 C88.7960902,4.89828516 59.3121135,44.0690469 34.6054281,91.5470391 C20.030741,119.553906 9.92115616,144.973293 4.55577578,167.099863 C-2.29370277,195.345945 -1.41637182,218.450781 7.16535506,235.774324 C19.7302925,261.139125 48.4410012,274 92.5001985,274 C136.558862,274 165.270105,261.139125 177.834508,235.774324 C186.415702,218.451852 187.2941,195.34648 180.444621,167.100398 Z M170.173339,231.95866 C159.566386,253.371332 134.87998,264.601586 96.7774537,265.374887 L96.7774537,233.285313 C97.4792117,231.202484 100.157099,223.785754 104.976549,216.394711 C112.164366,205.371027 120.416827,199.782391 129.505527,199.782391 L129.505527,191.204371 C114.008148,191.204371 103.351032,202.628352 96.7774537,213.295086 L96.7774537,150.901219 C98.9120789,147.05291 108.430373,131.277039 120.968627,131.277039 L120.968627,122.69902 C110.665859,122.69902 102.379244,129.448945 96.7774537,135.967148 L96.7774537,64.1898516 L88.223477,64.1898516 L88.223477,97.3775664 C83.3597335,92.7875313 76.2807828,88.4431328 66.8830954,88.4431328 L66.8830954,97.0211523 C79.0958197,97.0211523 86.3989061,107.894992 88.223477,110.978027 L88.223477,176.580691 C81.9716935,169.868762 72.064898,162.661277 58.3461957,162.661277 L58.3461957,171.239297 C75.8389153,171.239297 86.028015,187.080992 88.223477,190.889164 L88.223477,265.374887 C50.1214848,264.601051 25.4361456,253.372402 14.8286594,231.961336 C-15.8256254,170.089781 73.6445207,40.5086523 92.5044678,14.3416523 C100.912756,25.9818359 123.351403,58.1195742 142.811179,95.516293 C174.635239,156.670738 184.096431,203.851719 170.173339,231.95866 Z" id="Shape"></path>
            </g>
            <g id="leaf-svgrepo-com-copy-2" transform="translate(427.500000, 429.000000) rotate(135.000000) translate(-427.500000, -429.000000) translate(335.000000, 292.000000)">
                <path d="M180.444621,167.100398 C175.079241,144.973828 164.969122,119.554441 150.394969,91.5475742 C125.688817,44.0690469 96.2037732,4.89828516 95.9086613,4.50815625 L92.5001985,0 L89.0917358,4.50815625 C88.7960902,4.89828516 59.3121135,44.0690469 34.6054281,91.5470391 C20.030741,119.553906 9.92115616,144.973293 4.55577578,167.099863 C-2.29370277,195.345945 -1.41637182,218.450781 7.16535506,235.774324 C19.7302925,261.139125 48.4410012,274 92.5001985,274 C136.558862,274 165.270105,261.139125 177.834508,235.774324 C186.415702,218.451852 187.2941,195.34648 180.444621,167.100398 Z M170.173339,231.95866 C159.566386,253.371332 134.87998,264.601586 96.7774537,265.374887 L96.7774537,233.285313 C97.4792117,231.202484 100.157099,223.785754 104.976549,216.394711 C112.164366,205.371027 120.416827,199.782391 129.505527,199.782391 L129.505527,191.204371 C114.008148,191.204371 103.351032,202.628352 96.7774537,213.295086 L96.7774537,150.901219 C98.9120789,147.05291 108.430373,131.277039 120.968627,131.277039 L120.968627,122.69902 C110.665859,122.69902 102.379244,129.448945 96.7774537,135.967148 L96.7774537,64.1898516 L88.223477,64.1898516 L88.223477,97.3775664 C83.3597335,92.7875313 76.2807828,88.4431328 66.8830954,88.4431328 L66.8830954,97.0211523 C79.0958197,97.0211523 86.3989061,107.894992 88.223477,110.978027 L88.223477,176.580691 C81.9716935,169.868762 72.064898,162.661277 58.3461957,162.661277 L58.3461957,171.239297 C75.8389153,171.239297 86.028015,187.080992 88.223477,190.889164 L88.223477,265.374887 C50.1214848,264.601051 25.4361456,253.372402 14.8286594,231.961336 C-15.8256254,170.089781 73.6445207,40.5086523 92.5044678,14.3416523 C100.912756,25.9818359 123.351403,58.1195742 142.811179,95.516293 C174.635239,156.670738 184.096431,203.851719 170.173339,231.95866 Z" id="Shape"></path>
            </g>
            <g id="leaf-svgrepo-com-copy-3" transform="translate(164.500000, 165.000000) rotate(315.000000) translate(-164.500000, -165.000000) translate(72.000000, 28.000000)">
                <path d="M180.444621,167.100398 C175.079241,144.973828 164.969122,119.554441 150.394969,91.5475742 C125.688817,44.0690469 96.2037732,4.89828516 95.9086613,4.50815625 L92.5001985,0 L89.0917358,4.50815625 C88.7960902,4.89828516 59.3121135,44.0690469 34.6054281,91.5470391 C20.030741,119.553906 9.92115616,144.973293 4.55577578,167.099863 C-2.29370277,195.345945 -1.41637182,218.450781 7.16535506,235.774324 C19.7302925,261.139125 48.4410012,274 92.5001985,274 C136.558862,274 165.270105,261.139125 177.834508,235.774324 C186.415702,218.451852 187.2941,195.34648 180.444621,167.100398 Z M170.173339,231.95866 C159.566386,253.371332 134.87998,264.601586 96.7774537,265.374887 L96.7774537,233.285313 C97.4792117,231.202484 100.157099,223.785754 104.976549,216.394711 C112.164366,205.371027 120.416827,199.782391 129.505527,199.782391 L129.505527,191.204371 C114.008148,191.204371 103.351032,202.628352 96.7774537,213.295086 L96.7774537,150.901219 C98.9120789,147.05291 108.430373,131.277039 120.968627,131.277039 L120.968627,122.69902 C110.665859,122.69902 102.379244,129.448945 96.7774537,135.967148 L96.7774537,64.1898516 L88.223477,64.1898516 L88.223477,97.3775664 C83.3597335,92.7875313 76.2807828,88.4431328 66.8830954,88.4431328 L66.8830954,97.0211523 C79.0958197,97.0211523 86.3989061,107.894992 88.223477,110.978027 L88.223477,176.580691 C81.9716935,169.868762 72.064898,162.661277 58.3461957,162.661277 L58.3461957,171.239297 C75.8389153,171.239297 86.028015,187.080992 88.223477,190.889164 L88.223477,265.374887 C50.1214848,264.601051 25.4361456,253.372402 14.8286594,231.961336 C-15.8256254,170.089781 73.6445207,40.5086523 92.5044678,14.3416523 C100.912756,25.9818359 123.351403,58.1195742 142.811179,95.516293 C174.635239,156.670738 184.096431,203.851719 170.173339,231.95866 Z" id="Shape"></path>
            </g>
        </g>
</svg>
