<?xml version="1.0" encoding="UTF-8"?>
<svg width="563px" height="563px" viewBox="0 0 563 563" version="1.1" xmlns="http://www.w3.org/2000/svg" xmlns:xlink="http://www.w3.org/1999/xlink">
    <title>Empty-ThreeLeaf</title>
    <g id="Empty-ThreeLeaf" stroke="none" stroke-width="1" fill="none" fill-rule="evenodd">
        <g id="Group-2" transform="translate(0.000000, 33.000000)" fill="#000000" fill-rule="nonzero">
            <g id="Group">
                <g id="leaf-svgrepo-com" transform="translate(201.000000, 0.000000)">
                    <path d="M174.592363,159.782133 C169.400995,138.624609 159.618772,114.31848 145.517294,87.5381914 C121.612423,42.1390156 93.0836508,4.68376172 92.7981101,4.31071875 L89.5001921,0 L86.2022741,4.31071875 C85.916217,4.68376172 57.3884774,42.1390156 33.4830899,87.5376797 C19.3810954,114.317969 9.59938894,138.624098 4.40802089,159.781621 C-2.21931241,186.790648 -1.37043544,208.883594 6.93296516,225.448441 C19.0903911,249.702375 46.8699417,262 89.5001921,262 C132.129926,262 159.909993,249.702375 172.066903,225.448441 C180.369787,208.884617 181.219697,186.79116 174.592363,159.782133 Z M164.654203,221.799887 C154.39126,242.274777 130.505494,253.013195 93.6387255,253.752629 L93.6387255,223.068438 C94.3177238,221.076828 96.9087607,213.984918 101.571904,206.91757 C108.526602,196.376676 116.511416,191.032797 125.305348,191.032797 L125.305348,182.830457 C110.310587,182.830457 99.9991066,193.754117 93.6387255,203.953695 L93.6387255,144.292406 C95.7041196,140.612637 104.913712,125.52768 117.04532,125.52768 L117.04532,117.32534 C107.076696,117.32534 99.0588359,123.779648 93.6387255,130.012383 L93.6387255,61.3786172 L85.362175,61.3786172 L85.362175,93.1128555 C80.6561746,88.7238437 73.8068114,84.5697109 64.7139139,84.5697109 L64.7139139,92.7720508 C76.5305499,92.7720508 83.5967794,103.169664 85.362175,106.117676 L85.362175,168.84723 C79.3131521,162.429254 69.7276581,155.537426 56.4538866,155.537426 L56.4538866,163.739766 C73.3792748,163.739766 83.2379172,178.887664 85.362175,182.529055 L85.362175,253.752629 C48.4959232,253.012684 24.6111895,242.275801 14.34773,221.802445 C-15.3123619,162.640594 71.2560497,38.7345508 89.5043229,13.7135508 C97.6399102,24.8439453 119.350817,55.5741914 138.179465,91.3330977 C168.971393,149.809246 178.125736,194.923906 164.654203,221.799887 Z" id="Shape"></path>
                </g>
                <g id="leaf-svgrepo-com-copy" transform="translate(201.000000, 0.000000)">
                    <path d="M174.592363,159.782133 C169.400995,138.624609 159.618772,114.31848 145.517294,87.5381914 C121.612423,42.1390156 93.0836508,4.68376172 92.7981101,4.31071875 L89.5001921,0 L86.2022741,4.31071875 C85.916217,4.68376172 57.3884774,42.1390156 33.4830899,87.5376797 C19.3810954,114.317969 9.59938894,138.624098 4.40802089,159.781621 C-2.21931241,186.790648 -1.37043544,208.883594 6.93296516,225.448441 C19.0903911,249.702375 46.8699417,262 89.5001921,262 C132.129926,262 159.909993,249.702375 172.066903,225.448441 C180.369787,208.884617 181.219697,186.79116 174.592363,159.782133 Z M164.654203,221.799887 C154.39126,242.274777 130.505494,253.013195 93.6387255,253.752629 L93.6387255,223.068438 C94.3177238,221.076828 96.9087607,213.984918 101.571904,206.91757 C108.526602,196.376676 116.511416,191.032797 125.305348,191.032797 L125.305348,182.830457 C110.310587,182.830457 99.9991066,193.754117 93.6387255,203.953695 L93.6387255,144.292406 C95.7041196,140.612637 104.913712,125.52768 117.04532,125.52768 L117.04532,117.32534 C107.076696,117.32534 99.0588359,123.779648 93.6387255,130.012383 L93.6387255,61.3786172 L85.362175,61.3786172 L85.362175,93.1128555 C80.6561746,88.7238437 73.8068114,84.5697109 64.7139139,84.5697109 L64.7139139,92.7720508 C76.5305499,92.7720508 83.5967794,103.169664 85.362175,106.117676 L85.362175,168.84723 C79.3131521,162.429254 69.7276581,155.537426 56.4538866,155.537426 L56.4538866,163.739766 C73.3792748,163.739766 83.2379172,178.887664 85.362175,182.529055 L85.362175,253.752629 C48.4959232,253.012684 24.6111895,242.275801 14.34773,221.802445 C-15.3123619,162.640594 71.2560497,38.7345508 89.5043229,13.7135508 C97.6399102,24.8439453 119.350817,55.5741914 138.179465,91.3330977 C168.971393,149.809246 178.125736,194.923906 164.654203,221.799887 Z" id="Shape"></path>
                </g>
                <g id="leaf-svgrepo-com-copy-2" transform="translate(419.500000, 352.000000) rotate(120.000000) translate(-419.500000, -352.000000) translate(330.000000, 221.000000)">
                    <path d="M174.254411,159.547838 C169.073092,138.421339 159.309804,114.150851 145.235622,87.4098308 C121.377022,42.0772255 92.9034722,4.67689374 92.6184842,4.30439778 L89.3269499,0 L86.0354155,4.30439778 C85.7499121,4.67689374 57.2773927,42.0772255 33.4182779,87.4093198 C19.3435801,114.15034 9.58080775,138.420828 4.39948844,159.547327 C-2.21501657,186.51675 -1.36778273,208.5773 6.91954528,225.117858 C19.0534386,249.336227 46.7792173,261.615819 89.3269499,261.615819 C131.874167,261.615819 159.600461,249.336227 171.733839,225.117858 C180.020652,208.578322 180.868916,186.517261 174.254411,159.547838 Z M164.335488,221.474653 C154.092411,241.91952 130.252879,252.642192 93.4574725,253.380542 L93.4574725,222.741344 C94.1351565,220.752655 96.721178,213.671144 101.375295,206.614159 C108.316532,196.088721 116.285889,190.752678 125.062799,190.752678 L125.062799,182.562366 C110.097062,182.562366 99.805542,193.470008 93.4574725,203.65463 L93.4574725,144.080825 C95.5188686,140.406451 104.710634,125.343614 116.81876,125.343614 L116.81876,117.153301 C106.869431,117.153301 98.8670914,123.598146 93.4574725,129.821741 L93.4574725,61.2886153 L85.1969426,61.2886153 L85.1969426,92.9763205 C80.5000514,88.5937445 73.6639463,84.4457031 64.5886496,84.4457031 L64.5886496,92.6360155 C76.3824125,92.6360155 83.4349642,103.018382 85.1969426,105.962071 L85.1969426,168.599643 C79.1596285,162.191078 69.5926888,155.309355 56.3446109,155.309355 L56.3446109,163.499668 C73.2372373,163.499668 83.0767966,178.625354 85.1969426,182.261405 L85.1969426,253.380542 C48.4020514,252.641681 24.5635506,241.920542 14.3199576,221.477208 C-15.2827223,162.402108 71.118122,38.6777528 89.3310726,13.6934421 C97.4509122,24.8075157 119.119794,55.4927008 137.911997,91.1991724 C168.644322,149.589575 177.780945,194.638082 164.335488,221.474653 Z" id="Shape"></path>
                </g>
                <g id="leaf-svgrepo-com-copy-3" transform="translate(158.500000, 352.000000) rotate(240.000000) translate(-158.500000, -352.000000) translate(69.000000, 221.000000)">
                    <path d="M174.254411,159.547838 C169.073092,138.421339 159.309804,114.150851 145.235622,87.4098308 C121.377022,42.0772255 92.9034722,4.67689374 92.6184842,4.30439778 L89.3269499,0 L86.0354155,4.30439778 C85.7499121,4.67689374 57.2773927,42.0772255 33.4182779,87.4093198 C19.3435801,114.15034 9.58080775,138.420828 4.39948844,159.547327 C-2.21501657,186.51675 -1.36778273,208.5773 6.91954528,225.117858 C19.0534386,249.336227 46.7792173,261.615819 89.3269499,261.615819 C131.874167,261.615819 159.600461,249.336227 171.733839,225.117858 C180.020652,208.578322 180.868916,186.517261 174.254411,159.547838 Z M164.335488,221.474653 C154.092411,241.91952 130.252879,252.642192 93.4574725,253.380542 L93.4574725,222.741344 C94.1351565,220.752655 96.721178,213.671144 101.375295,206.614159 C108.316532,196.088721 116.285889,190.752678 125.062799,190.752678 L125.062799,182.562366 C110.097062,182.562366 99.805542,193.470008 93.4574725,203.65463 L93.4574725,144.080825 C95.5188686,140.406451 104.710634,125.343614 116.81876,125.343614 L116.81876,117.153301 C106.869431,117.153301 98.8670914,123.598146 93.4574725,129.821741 L93.4574725,61.2886153 L85.1969426,61.2886153 L85.1969426,92.9763205 C80.5000514,88.5937445 73.6639463,84.4457031 64.5886496,84.4457031 L64.5886496,92.6360155 C76.3824125,92.6360155 83.4349642,103.018382 85.1969426,105.962071 L85.1969426,168.599643 C79.1596285,162.191078 69.5926888,155.309355 56.3446109,155.309355 L56.3446109,163.499668 C73.2372373,163.499668 83.0767966,178.625354 85.1969426,182.261405 L85.1969426,253.380542 C48.4020514,252.641681 24.5635506,241.920542 14.3199576,221.477208 C-15.2827223,162.402108 71.118122,38.6777528 89.3310726,13.6934421 C97.4509122,24.8075157 119.119794,55.4927008 137.911997,91.1991724 C168.644322,149.589575 177.780945,194.638082 164.335488,221.474653 Z" id="Shape"></path>
                </g>
            </g>
        </g>
    </g>
</svg>