<?xml version="1.0" encoding="UTF-8"?>
<svg width="563px" height="563px" viewBox="0 0 563 563" version="1.1" xmlns="http://www.w3.org/2000/svg" xmlns:xlink="http://www.w3.org/1999/xlink">
    <title>Poplar-MediumTree</title>
    <g id="Poplar-MediumTree" stroke="none" stroke-width="1" fill="none" fill-rule="evenodd">
        <g id="Poplar-Copy-2" transform="translate(101.000000, 83.000000)" fill-rule="nonzero">
            <path d="M115,225 L115,418 L160,418 L160,225 C153.379375,231.23727 121.620625,231.23727 115,225 Z" id="XMLID_1212_" fill="#B39A7C"></path>
            <path d="M273,128 C273,120.645689 270.011878,113.943467 265.109561,108.894578 C268.10225,102.677333 268.727122,95.4403556 266.294611,88.4458667 C263.8621,81.4513778 258.803756,75.9402667 252.471311,72.5532444 C253.261344,65.7756444 251.462078,58.7128889 246.835283,52.7630222 C242.208489,46.8131556 235.575406,43.0321778 228.432378,41.6398222 C226.942122,34.9660444 222.894533,28.7687111 216.526317,24.4458667 C210.1581,20.1230222 202.598744,18.4419556 195.344594,19.1800889 C191.720183,13.2636444 185.820811,8.5376 178.334522,6.26488889 C170.848233,3.99217778 163.103167,4.576 156.448011,7.37208889 C151.044883,2.79182222 143.871411,0 136,0 L136,256 C141.546978,256 146.743083,254.609067 151.222222,252.187733 C153.099122,251.172978 154.852722,249.981156 156.448772,248.627911 C163.103167,251.424 170.848994,252.007822 178.335283,249.735111 C185.821572,247.4624 191.720183,242.736356 195.345356,236.819911 C202.599506,237.558044 210.158861,235.876978 216.527078,231.554133 C222.895294,227.231289 226.942122,221.033956 228.433139,214.360178 C235.576167,212.967822 242.20925,209.186133 246.836044,203.236978 C251.462839,197.287111 253.262106,190.224356 252.472072,183.446756 C258.805278,180.060444 263.862861,174.548622 266.295372,167.554133 C268.727883,160.559644 268.103011,153.322667 265.110322,147.105422 C270.011878,142.056533 273,135.354311 273,128 Z M181.666667,206.222222 C173.259433,206.222222 166.444444,194.639644 166.444444,184.888889 C166.444444,175.138133 173.259433,163.555556 181.666667,163.555556 C190.0739,163.555556 196.888889,175.138133 196.888889,184.888889 C196.888889,194.639644 190.0739,206.222222 181.666667,206.222222 Z M197.293019,92.7288889 C188.885785,92.7288889 182.070796,81.1463111 182.070796,71.3955556 C182.070796,61.6448 188.885785,50.0622222 197.293019,50.0622222 C205.700252,50.0622222 212.515241,61.6448 212.515241,71.3955556 C212.515241,81.1463111 205.700252,92.7288889 197.293019,92.7288889 Z" id="XMLID_1220_" fill="#317F46"></path>
            <path d="M137,0 C129.128589,0 121.955117,2.79182222 116.551228,7.37208889 C109.896833,4.576 102.151006,3.99217778 94.6647167,6.26488889 C87.1784278,8.5376 81.2798167,13.2636444 77.6546444,19.1800889 C70.4004944,18.4419556 62.8411389,20.1230222 56.4729222,24.4458667 C50.1047056,28.7687111 46.0578778,34.9667556 44.5676222,41.6398222 C37.4245944,43.0321778 30.7915111,46.8138667 26.1647167,52.7630222 C21.5379222,58.7121778 19.7386556,65.7756444 20.5286889,72.5532444 C14.1962444,75.9395556 9.1379,81.4513778 6.70538889,88.4458667 C4.27287778,95.4403556 4.89775,102.676622 7.89043889,108.894578 C2.98812222,113.943467 0,120.645689 0,128 C0,135.354311 2.98812222,142.056533 7.89043889,147.105422 C4.89775,153.322667 4.27287778,160.559644 6.70538889,167.554133 C9.1379,174.548622 14.1962444,180.059733 20.5286889,183.446756 C19.7386556,190.224356 21.5379222,197.287111 26.1647167,203.236978 C30.7915111,209.186844 37.4253556,212.967822 44.5676222,214.360178 C46.0578778,221.033956 50.1054667,227.231289 56.4729222,231.554133 C62.8403778,235.876978 70.4004944,237.558044 77.6546444,236.819911 C81.2790556,242.736356 87.1784278,247.4624 94.6647167,249.735111 C102.151006,252.007822 109.896072,251.424 116.551228,248.627911 C118.147278,249.980444 119.900878,251.172267 121.777778,252.187733 C126.256917,254.609067 131.453022,256 137,256 L137,0 Z M76.1111111,71.1111111 C76.1111111,61.3603556 82.9261,49.7777778 91.3333333,49.7777778 C99.7405667,49.7777778 106.555556,61.3603556 106.555556,71.1111111 C106.555556,80.8618667 99.7405667,92.4444444 91.3333333,92.4444444 C82.9261,92.4444444 76.1111111,80.8618667 76.1111111,71.1111111 Z" id="XMLID_1232_" fill="#3FA45A"></path>
            <path d="M181,164 L181,207 C189.8368,207 197,195.326933 197,185.5 C197,175.673067 189.8368,164 181,164 Z" id="XMLID_1239_" fill="#FFDE55"></path>
            <path d="M167,185.5 C167,195.326933 174.1632,207 183,207 L183,164 C174.1632,164 167,175.673067 167,185.5 Z" id="XMLID_1242_" fill="#FFEB99"></path>
            <path d="M198,50 L198,93 C206.8368,93 214,81.3269333 214,71.5 C214,61.6730667 206.8368,50 198,50 Z" id="XMLID_1245_" fill="#FFDE55"></path>
            <path d="M182,71.5 C182,81.3269333 189.1632,93 198,93 L198,50 C189.1632,50 182,61.6730667 182,71.5 Z" id="XMLID_1248_" fill="#FFEB99"></path>
            <path d="M106,71.5 C106,61.6730667 98.8368,50 90,50 L90,93 C98.8368,93 106,81.3269333 106,71.5 Z" id="XMLID_1257_" fill="#FFEB99"></path>
            <path d="M92,50 C83.1632,50 76,61.6730667 76,71.5 C76,81.3269333 83.1632,93 92,93 L92,50 Z" id="XMLID_1260_" fill="#FFFFFF"></path>
            <path d="M76,127 L76,170 C84.8368,170 92,158.326933 92,148.5 C92,138.673067 84.8368,127 76,127 Z" id="XMLID_1263_" fill="#FFEB99"></path>
            <path d="M60,148.5 C60,158.326933 67.1632,170 76,170 L76,127 C67.1632,127 60,138.673067 60,148.5 Z" id="XMLID_1266_" fill="#FFFFFF"></path>
        </g>
        <g id="Poplar-Copy-4" transform="translate(327.000000, 242.000000)" fill-rule="nonzero">
            <path d="M85,163 L85,259 L107,259 L107,163 C103.76325,166.102476 100.0084,167.884692 96,167.884692 C91.9916,167.884692 88.23675,166.102476 85,163 Z" id="XMLID_1212_" fill="#B39A7C"></path>
            <path d="M191,84 C191,79.1737333 188.906133,74.7754 185.470933,71.4620667 C187.568,67.382 188.005867,62.6327333 186.301333,58.0426 C184.5968,53.4524667 181.052267,49.8358 176.614933,47.6130667 C177.168533,43.1652667 175.907733,38.5303333 172.6656,34.6257333 C169.423467,30.7211333 164.775467,28.2398667 159.770133,27.3261333 C158.725867,22.9464667 155.8896,18.8794667 151.4272,16.0426 C146.9648,13.2057333 141.667733,12.1025333 136.584533,12.5869333 C134.0448,8.70426667 129.910933,5.6028 124.665067,4.11133333 C119.4192,2.61986667 113.992,3.003 109.328533,4.83793333 C105.5424,1.83213333 100.515733,0 95,0 L95,168 C98.8869333,168 102.528,167.0872 105.666667,165.4982 C106.981867,164.832267 108.210667,164.050133 109.329067,163.162067 C113.992,164.997 119.419733,165.380133 124.6656,163.888667 C129.911467,162.3972 134.0448,159.295733 136.585067,155.413067 C141.668267,155.897467 146.965333,154.794267 151.427733,151.9574 C155.890133,149.120533 158.725867,145.053533 159.770667,140.673867 C164.776,139.760133 169.424,137.2784 172.666133,133.374267 C175.908267,129.469667 177.169067,124.834733 176.615467,120.386933 C181.053333,118.164667 184.597333,114.547533 186.301867,109.9574 C188.0064,105.367267 187.568533,100.618 185.471467,96.5379333 C188.906133,93.2246 191,88.8262667 191,84 Z" id="XMLID_1220_" fill="#317F46"></path>
            <path d="M96,0 C90.4842667,0 85.4576,1.83213333 81.6709333,4.83793333 C77.008,3.003 71.5802667,2.61986667 66.3344,4.11133333 C61.0885333,5.6028 56.9552,8.70426667 54.4149333,12.5869333 C49.3317333,12.1025333 44.0346667,13.2057333 39.5722667,16.0426 C35.1098667,18.8794667 32.2741333,22.9469333 31.2298667,27.3261333 C26.2245333,28.2398667 21.5765333,30.7216 18.3344,34.6257333 C15.0922667,38.5298667 13.8314667,43.1652667 14.3850667,47.6130667 C9.94773333,49.8353333 6.4032,53.4524667 4.69866667,58.0426 C2.99413333,62.6327333 3.432,67.3815333 5.52906667,71.4620667 C2.09386667,74.7754 0,79.1737333 0,84 C0,88.8262667 2.09386667,93.2246 5.52906667,96.5379333 C3.432,100.618 2.99413333,105.367267 4.69866667,109.9574 C6.4032,114.547533 9.94773333,118.1642 14.3850667,120.386933 C13.8314667,124.834733 15.0922667,129.469667 18.3344,133.374267 C21.5765333,137.278867 26.2250667,139.760133 31.2298667,140.673867 C32.2741333,145.053533 35.1104,149.120533 39.5722667,151.9574 C44.0341333,154.794267 49.3317333,155.897467 54.4149333,155.413067 C56.9546667,159.295733 61.0885333,162.3972 66.3344,163.888667 C71.5802667,165.380133 77.0074667,164.997 81.6709333,163.162067 C82.7893333,164.049667 84.0181333,164.8318 85.3333333,165.4982 C88.472,167.0872 92.1130667,168 96,168 L96,0 Z" id="XMLID_1232_" fill="#3FA45A"></path>
            <path d="M133,94 L133,122 C139.0753,122 144,114.398933 144,108 C144,101.601067 139.0753,94 133,94 Z" id="XMLID_1251_" fill="#FFDE55"></path>
            <path d="M122,108 C122,114.398933 126.9247,122 133,122 L133,94 C126.9247,94 122,101.601067 122,108 Z" id="XMLID_1254_" fill="#FFEB99"></path>
            <path d="M62,64 C62,57.6010667 57.0753,50 51,50 L51,78 C57.0753,78 62,70.3989333 62,64 Z" id="XMLID_1257_" fill="#FFEB99"></path>
            <path d="M52,50 C45.9247,50 41,57.6010667 41,64 C41,70.3989333 45.9247,78 52,78 L52,50 Z" id="XMLID_1260_" fill="#FFFFFF"></path>
        </g>
    </g>
</svg>