<?xml version="1.0" encoding="UTF-8"?>
<svg width="563px" height="563px" viewBox="0 0 563 563" version="1.1" xmlns="http://www.w3.org/2000/svg" xmlns:xlink="http://www.w3.org/1999/xlink">
    <title>Poplar-LargeTree</title>
    <defs>
        <filter x="-5.3%" y="-3.3%" width="110.6%" height="106.5%" filterUnits="objectBoundingBox" id="filter-1">
            <feOffset dx="0" dy="2" in="SourceAlpha" result="shadowOffsetOuter1"></feOffset>
            <feGaussianBlur stdDeviation="2" in="shadowOffsetOuter1" result="shadowBlurOuter1"></feGaussianBlur>
            <feColorMatrix values="0 0 0 0 0   0 0 0 0 0   0 0 0 0 0  0 0 0 0.5 0" type="matrix" in="shadowBlurOuter1" result="shadowMatrixOuter1"></feColorMatrix>
            <feMerge>
                <feMergeNode in="shadowMatrixOuter1"></feMergeNode>
                <feMergeNode in="SourceGraphic"></feMergeNode>
            </feMerge>
        </filter>
        <filter x="-6.7%" y="-3.7%" width="113.3%" height="107.5%" filterUnits="objectBoundingBox" id="filter-2">
            <feOffset dx="0" dy="2" in="SourceAlpha" result="shadowOffsetOuter1"></feOffset>
            <feGaussianBlur stdDeviation="2" in="shadowOffsetOuter1" result="shadowBlurOuter1"></feGaussianBlur>
            <feColorMatrix values="0 0 0 0 0   0 0 0 0 0   0 0 0 0 0  0 0 0 0.5 0" type="matrix" in="shadowBlurOuter1" result="shadowMatrixOuter1"></feColorMatrix>
            <feMerge>
                <feMergeNode in="shadowMatrixOuter1"></feMergeNode>
                <feMergeNode in="SourceGraphic"></feMergeNode>
            </feMerge>
        </filter>
        <filter x="-3.8%" y="-2.7%" width="107.5%" height="105.3%" filterUnits="objectBoundingBox" id="filter-3">
            <feOffset dx="3" dy="2" in="SourceAlpha" result="shadowOffsetOuter1"></feOffset>
            <feGaussianBlur stdDeviation="2" in="shadowOffsetOuter1" result="shadowBlurOuter1"></feGaussianBlur>
            <feColorMatrix values="0 0 0 0 0   0 0 0 0 0   0 0 0 0 0  0 0 0 0.5 0" type="matrix" in="shadowBlurOuter1" result="shadowMatrixOuter1"></feColorMatrix>
            <feMerge>
                <feMergeNode in="shadowMatrixOuter1"></feMergeNode>
                <feMergeNode in="SourceGraphic"></feMergeNode>
            </feMerge>
        </filter>
    </defs>
    <g id="Poplar-LargeTree" stroke="none" stroke-width="1" fill="none" fill-rule="evenodd">
        <g id="Poplar-Copy-3" filter="url(#filter-1)" transform="translate(314.000000, 143.000000)" fill-rule="nonzero">
            <path d="M95,198 L95,368 L132,368 L132,198 C126.556375,203.493968 100.443625,203.493968 95,198 Z" id="XMLID_1212_" fill="#B39A7C"></path>
            <path d="M226,112.5 C226,106.03625 223.535344,100.145625 219.491828,95.708125 C221.96025,90.24375 222.475656,83.883125 220.469278,77.735625 C218.4629,71.588125 214.290689,66.744375 209.067578,63.7675 C209.719211,57.810625 208.235144,51.603125 204.418883,46.37375 C200.602622,41.144375 195.131539,37.82125 189.239844,36.5975 C188.010656,30.731875 184.672133,25.285 179.419517,21.485625 C174.1669,17.68625 167.931811,16.20875 161.948461,16.8575 C158.958983,11.6575 154.093078,7.50375 147.918256,5.50625 C141.743433,3.50875 135.355167,4.021875 129.865878,6.479375 C125.409283,2.45375 119.492478,0 113,0 L113,225 C117.575244,225 121.861083,223.7775 125.555556,221.649375 C127.103656,220.7575 128.550056,219.71 129.866506,218.520625 C135.355167,220.978125 141.744061,221.49125 147.918883,219.49375 C154.093706,217.49625 158.958983,213.3425 161.949089,208.1425 C167.932439,208.79125 174.167528,207.31375 179.420144,203.514375 C184.672761,199.715 188.010656,194.268125 189.240472,188.4025 C195.132167,187.17875 200.60325,183.855 204.419511,178.62625 C208.235772,173.396875 209.719839,167.189375 209.068206,161.2325 C214.291944,158.25625 218.463528,153.411875 220.469906,147.264375 C222.476283,141.116875 221.960878,134.75625 219.492456,129.291875 C223.535344,124.854375 226,118.96375 226,112.5 Z M150.666667,181.25 C143.732233,181.25 138.111111,171.07 138.111111,162.5 C138.111111,153.93 143.732233,143.75 150.666667,143.75 C157.6011,143.75 163.222222,153.93 163.222222,162.5 C163.222222,171.07 157.6011,181.25 150.666667,181.25 Z M163.555556,81.5 C156.621122,81.5 151,71.32 151,62.75 C151,54.18 156.621122,44 163.555556,44 C170.489989,44 176.111111,54.18 176.111111,62.75 C176.111111,71.32 170.489989,81.5 163.555556,81.5 Z" id="XMLID_1220_" fill="#317F46"></path>
            <path d="M113,0 C106.507522,0 100.590717,2.45375 96.1334944,6.479375 C90.6448333,4.021875 84.2559389,3.50875 78.0811167,5.50625 C71.9062944,7.50375 67.0410167,11.6575 64.0509111,16.8575 C58.0675611,16.20875 51.8324722,17.68625 46.5798556,21.485625 C41.3272389,25.285 37.9893444,30.7325 36.7601556,36.5975 C30.8684611,37.82125 25.3973778,41.145 21.5811167,46.37375 C17.7648556,51.6025 16.2807889,57.810625 16.9324222,63.7675 C11.7093111,66.74375 7.5371,71.588125 5.53072222,77.735625 C3.52434444,83.883125 4.03975,90.243125 6.50817222,95.708125 C2.46465556,100.145625 0,106.03625 0,112.5 C0,118.96375 2.46465556,124.854375 6.50817222,129.291875 C4.03975,134.75625 3.52434444,141.116875 5.53072222,147.264375 C7.5371,153.411875 11.7093111,158.255625 16.9324222,161.2325 C16.2807889,167.189375 17.7648556,173.396875 21.5811167,178.62625 C25.3973778,183.855625 30.8690889,187.17875 36.7601556,188.4025 C37.9893444,194.268125 41.3278667,199.715 46.5798556,203.514375 C51.8318444,207.31375 58.0675611,208.79125 64.0509111,208.1425 C67.0403889,213.3425 71.9062944,217.49625 78.0811167,219.49375 C84.2559389,221.49125 90.6442056,220.978125 96.1334944,218.520625 C97.4499444,219.709375 98.8963444,220.756875 100.444444,221.649375 C104.138917,223.7775 108.424756,225 113,225 L113,0 Z M62.7777778,62.5 C62.7777778,53.93 68.3989,43.75 75.3333333,43.75 C82.2677667,43.75 87.8888889,53.93 87.8888889,62.5 C87.8888889,71.07 82.2677667,81.25 75.3333333,81.25 C68.3989,81.25 62.7777778,71.07 62.7777778,62.5 Z" id="XMLID_1232_" fill="#3FA45A"></path>
            <path d="M150,144 L150,182 C157.1799,182 163,171.684267 163,163 C163,154.315733 157.1799,144 150,144 Z" id="XMLID_1239_" fill="#FFDE55"></path>
            <path d="M138,163 C138,171.684267 143.8201,182 151,182 L151,144 C143.8201,144 138,154.315733 138,163 Z" id="XMLID_1242_" fill="#FFEB99"></path>
            <path d="M164,44 L164,82 C171.1799,82 177,71.6842667 177,63 C177,54.3157333 171.1799,44 164,44 Z" id="XMLID_1245_" fill="#FFDE55"></path>
            <path d="M151,63 C151,71.6842667 156.8201,82 164,82 L164,44 C156.8201,44 151,54.3157333 151,63 Z" id="XMLID_1248_" fill="#FFEB99"></path>
            <path d="M88,63 C88,54.3157333 82.1799,44 75,44 L75,82 C82.1799,82 88,71.6842667 88,63 Z" id="XMLID_1257_" fill="#FFEB99"></path>
            <path d="M76,44 C68.8201,44 63,54.3157333 63,63 C63,71.6842667 68.8201,82 76,82 L76,44 Z" id="XMLID_1260_" fill="#FFFFFF"></path>
            <path d="M63,112 L63,150 C70.1799,150 76,139.684267 76,131 C76,122.315733 70.1799,112 63,112 Z" id="XMLID_1263_" fill="#FFEB99"></path>
            <path d="M50,131 C50,139.684267 55.8201,150 63,150 L63,112 C55.8201,112 50,122.315733 50,131 Z" id="XMLID_1266_" fill="#FFFFFF"></path>
        </g>
        <g id="Poplar-Copy-4" filter="url(#filter-2)" transform="translate(28.000000, 181.000000)" fill-rule="nonzero">
            <path d="M76,173 L76,321 L105,321 L105,173 C100.733375,177.782984 80.266625,177.782984 76,173 Z" id="XMLID_1212_" fill="#B39A7C"></path>
            <path d="M180,98 C180,92.3693556 178.037,87.2379667 174.8165,83.3724111 C176.7825,78.6123333 177.193,73.0715222 175.595,67.7163667 C173.997,62.3612111 170.674,58.1417667 166.514,55.5485778 C167.033,50.3594778 165.851,44.9520556 162.8115,40.3966889 C159.772,35.8413222 155.4145,32.9465111 150.722,31.8804889 C149.743,26.7708778 147.084,22.0260444 142.9005,18.7163667 C138.717,15.4066889 133.751,14.1196222 128.9855,14.6847556 C126.6045,10.1549778 122.729,6.5366 117.811,4.79655556 C112.893,3.05651111 107.805,3.5035 103.433,5.64425556 C99.8835,2.13748889 95.171,0 90,0 L90,196 C93.644,196 97.0575,194.935067 100,193.081233 C101.233,192.304311 102.385,191.391822 103.4335,190.355744 C107.805,192.4965 112.8935,192.943489 117.8115,191.203444 C122.7295,189.4634 126.6045,185.845022 128.986,181.315244 C133.7515,181.880378 138.7175,180.593311 142.901,177.283633 C147.0845,173.973956 149.743,169.229122 150.7225,164.119511 C155.415,163.053489 159.7725,160.158133 162.812,155.603311 C165.8515,151.047944 167.0335,145.640522 166.5145,140.451422 C170.675,137.858778 173.9975,133.638789 175.5955,128.283633 C177.1935,122.928478 176.783,117.387667 174.817,112.627589 C178.037,108.762033 180,103.630644 180,98 Z M120,157.888889 C114.477,157.888889 110,149.020978 110,141.555556 C110,134.090133 114.477,125.222222 120,125.222222 C125.523,125.222222 130,134.090133 130,141.555556 C130,149.020978 125.523,157.888889 120,157.888889 Z M130.265487,70.9955556 C124.742487,70.9955556 120.265487,62.1276444 120.265487,54.6622222 C120.265487,47.1968 124.742487,38.3288889 130.265487,38.3288889 C135.788487,38.3288889 140.265487,47.1968 140.265487,54.6622222 C140.265487,62.1276444 135.788487,70.9955556 130.265487,70.9955556 Z" id="XMLID_1220_" fill="#317F46"></path>
            <path d="M90,0 C84.829,0 80.1165,2.13748889 76.5665,5.64425556 C72.195,3.5035 67.1065,3.05651111 62.1885,4.79655556 C57.2705,6.5366 53.3955,10.1549778 51.014,14.6847556 C46.2485,14.1196222 41.2825,15.4066889 37.099,18.7163667 C32.9155,22.0260444 30.257,26.7714222 29.278,31.8804889 C24.5855,32.9465111 20.228,35.8418667 17.1885,40.3966889 C14.149,44.9515111 12.967,50.3594778 13.486,55.5485778 C9.326,58.1412222 6.003,62.3612111 4.405,67.7163667 C2.807,73.0715222 3.2175,78.6117889 5.1835,83.3724111 C1.963,87.2379667 0,92.3693556 0,98 C0,103.630644 1.963,108.762033 5.1835,112.627589 C3.2175,117.387667 2.807,122.928478 4.405,128.283633 C6.003,133.638789 9.326,137.858233 13.486,140.451422 C12.967,145.640522 14.149,151.047944 17.1885,155.603311 C20.228,160.158678 24.586,163.053489 29.278,164.119511 C30.257,169.229122 32.916,173.973956 37.099,177.283633 C41.282,180.593311 46.2485,181.880378 51.014,181.315244 C53.395,185.845022 57.2705,189.4634 62.1885,191.203444 C67.1065,192.943489 72.1945,192.4965 76.5665,190.355744 C77.615,191.391278 78.767,192.303767 80,193.081233 C82.9425,194.935067 86.356,196 90,196 L90,0 Z M50,54.4444444 C50,46.9790222 54.477,38.1111111 60,38.1111111 C65.523,38.1111111 70,46.9790222 70,54.4444444 C70,61.9098667 65.523,70.7777778 60,70.7777778 C54.477,70.7777778 50,61.9098667 50,54.4444444 Z" id="XMLID_1232_" fill="#3FA45A"></path>
            <path d="M120,126 L120,159 C125.523,159 130,150.0416 130,142.5 C130,134.9584 125.523,126 120,126 Z" id="XMLID_1239_" fill="#FFDE55"></path>
            <path d="M110,142.5 C110,150.0416 114.477,159 120,159 L120,126 C114.477,126 110,134.9584 110,142.5 Z" id="XMLID_1242_" fill="#FFEB99"></path>
            <path d="M131,38 L131,71 C136.523,71 141,62.0416 141,54.5 C141,46.9584 136.523,38 131,38 Z" id="XMLID_1245_" fill="#FFDE55"></path>
            <path d="M120,54.5 C120,62.0416 124.477,71 130,71 L130,38 C124.477,38 120,46.9584 120,54.5 Z" id="XMLID_1248_" fill="#FFEB99"></path>
            <path d="M70,54.5 C70,46.9584 65.523,38 60,38 L60,71 C65.523,71 70,62.0416 70,54.5 Z" id="XMLID_1257_" fill="#FFEB99"></path>
            <path d="M60,38 C54.477,38 50,46.9584 50,54.5 C50,62.0416 54.477,71 60,71 L60,38 Z" id="XMLID_1260_" fill="#FFFFFF"></path>
            <path d="M50,98 L50,131 C55.523,131 60,122.0416 60,114.5 C60,106.9584 55.523,98 50,98 Z" id="XMLID_1263_" fill="#FFEB99"></path>
            <path d="M40,114.5 C40,122.0416 44.477,131 50,131 L50,98 C44.477,98 40,106.9584 40,114.5 Z" id="XMLID_1266_" fill="#FFFFFF"></path>
        </g>
        <g id="Poplar-Copy" filter="url(#filter-3)" transform="translate(102.000000, 4.000000)" fill-rule="nonzero">
            <path d="M160,354.639 L160,508.639 L200,508.639 L200,354.639 C194.115,359.615889 187.288,362.47486 180,362.47486 C172.712,362.47486 165.885,359.615889 160,354.639 Z" id="XMLID_1212_" fill="#B39A7C"></path>
            <path d="M360,180 C360,169.658 356.074,160.233 349.633,153.133 C353.565,144.39 354.386,134.213 351.19,124.377 C347.994,114.541 341.348,106.791 333.028,102.028 C334.066,92.497 331.702,82.565 325.623,74.198 C319.544,65.831 310.829,60.514 301.444,58.556 C299.486,49.171 294.168,40.456 285.801,34.377 C277.434,28.298 267.502,25.934 257.971,26.972 C253.209,18.652 245.458,12.006 235.622,8.81 C225.786,5.614 215.61,6.435 206.866,10.367 C199.767,3.926 190.342,0 180,0 L180,360 C187.288,360 194.115,358.044 200,354.639 C202.466,353.212 204.77,351.536 206.867,349.633 C215.61,353.565 225.787,354.386 235.623,351.19 C245.459,347.994 253.209,341.348 257.972,333.028 C267.503,334.066 277.435,331.702 285.802,325.623 C294.169,319.544 299.486,310.829 301.445,301.444 C310.83,299.486 319.545,294.168 325.624,285.802 C331.703,277.435 334.067,267.503 333.029,257.972 C341.35,253.21 347.995,245.459 351.191,235.623 C354.387,225.787 353.566,215.61 349.634,206.867 C356.074,199.767 360,190.342 360,180 Z M240,290 C228.954,290 220,273.712 220,260 C220,246.288 228.954,230 240,230 C251.046,230 260,246.288 260,260 C260,273.712 251.046,290 240,290 Z M240,150 C228.954,150 220,133.712 220,120 C220,106.288 228.954,90 240,90 C251.046,90 260,106.288 260,120 C260,133.712 251.046,150 240,150 Z M290,209.993 C278.954,209.993 270,193.705 270,179.993 C270,166.281 278.954,149.993 290,149.993 C301.046,149.993 310,166.281 310,179.993 C310,193.705 301.046,209.993 290,209.993 Z" id="XMLID_1220_" fill="#317F46"></path>
            <path d="M180,0 C169.658,0 160.233,3.926 153.133,10.367 C144.39,6.435 134.213,5.614 124.377,8.81 C114.541,12.006 106.791,18.652 102.028,26.972 C92.497,25.934 82.565,28.298 74.198,34.377 C65.831,40.456 60.514,49.172 58.556,58.556 C49.171,60.514 40.456,65.832 34.377,74.198 C28.298,82.564 25.934,92.497 26.972,102.028 C18.652,106.79 12.006,114.541 8.81,124.377 C5.614,134.213 6.435,144.389 10.367,153.133 C3.926,160.233 0,169.658 0,180 C0,190.342 3.926,199.767 10.367,206.867 C6.435,215.61 5.614,225.787 8.81,235.623 C12.006,245.459 18.652,253.209 26.972,257.972 C25.934,267.503 28.298,277.435 34.377,285.802 C40.456,294.169 49.172,299.486 58.556,301.444 C60.514,310.829 65.832,319.544 74.198,325.623 C82.564,331.702 92.497,334.066 102.028,333.028 C106.79,341.348 114.541,347.994 124.377,351.19 C134.213,354.386 144.389,353.565 153.133,349.633 C155.23,351.535 157.534,353.211 160,354.639 C165.885,358.044 172.712,360 180,360 L180,0 Z M70,209.993 C58.997,209.993 50,193.705 50,179.993 C50,166.281 58.997,149.993 70,149.993 C81.003,149.993 90,166.281 90,179.993 C90,193.705 81.003,209.993 70,209.993 Z M100,100 C100,86.288 108.954,70 120,70 C131.046,70 140,86.288 140,100 C140,113.712 131.046,130 120,130 C108.954,130 100,113.712 100,100 Z M140,270 C128.954,270 120,253.712 120,240 C120,226.288 128.954,210 140,210 C151.046,210 160,226.288 160,240 C160,253.712 151.046,270 140,270 Z" id="XMLID_1232_" fill="#3FA45A"></path>
            <path d="M240,230 L240,290 C251.046,290 260,273.712 260,260 C260,246.288 251.046,230 240,230 Z" id="XMLID_1239_" fill="#FFDE55"></path>
            <path d="M220,260 C220,273.712 228.954,290 240,290 L240,230 C228.954,230 220,246.288 220,260 Z" id="XMLID_1242_" fill="#FFEB99"></path>
            <path d="M290,149.993 L290,209.993 C301.046,209.993 310,193.705 310,179.993 C310,166.281 301.046,149.993 290,149.993 Z" id="XMLID_1245_" fill="#FFDE55"></path>
            <path d="M270,179.993 C270,193.705 278.954,209.993 290,209.993 L290,149.993 C278.954,149.993 270,166.281 270,179.993 Z" id="XMLID_1248_" fill="#FFEB99"></path>
            <path d="M240,90 L240,150 C251.046,150 260,133.712 260,120 C260,106.288 251.046,90 240,90 Z" id="XMLID_1251_" fill="#FFDE55"></path>
            <path d="M220,120 C220,133.712 228.954,150 240,150 L240,90 C228.954,90 220,106.288 220,120 Z" id="XMLID_1254_" fill="#FFEB99"></path>
            <path d="M140,100 C140,86.288 131.046,70 120,70 L120,130 C131.046,130 140,113.712 140,100 Z" id="XMLID_1257_" fill="#FFEB99"></path>
            <path d="M120,70 C108.954,70 100,86.288 100,100 C100,113.712 108.954,130 120,130 L120,70 Z" id="XMLID_1260_" fill="#FFFFFF"></path>
            <path d="M140,210 L140,270 C151.046,270 160,253.712 160,240 C160,226.288 151.046,210 140,210 Z" id="XMLID_1263_" fill="#FFEB99"></path>
            <path d="M120,240 C120,253.712 128.954,270 140,270 L140,210 C128.954,210 120,226.288 120,240 Z" id="XMLID_1266_" fill="#FFFFFF"></path>
            <path d="M70,149.993 L70,209.993 C81.003,209.993 90,193.705 90,179.993 C90,166.281 81.003,149.993 70,149.993 Z" id="XMLID_1269_" fill="#FFEB99"></path>
            <path d="M50,179.993 C50,193.705 58.997,209.993 70,209.993 L70,149.993 C58.997,149.993 50,166.281 50,179.993 Z" id="XMLID_1272_" fill="#FFFFFF"></path>
        </g>
    </g>
</svg>