<?xml version="1.0" encoding="UTF-8"?>
<svg width="563px" height="563px" viewBox="0 0 563 563" version="1.1" xmlns="http://www.w3.org/2000/svg" xmlns:xlink="http://www.w3.org/1999/xlink">
    <title>Poplar-SmallTree</title>
    <g id="Poplar-SmallTree" stroke="none" stroke-width="1" fill="none" fill-rule="evenodd">
        <g id="Poplar-Copy-3" transform="translate(185.000000, 140.000000)" fill-rule="nonzero">
            <path d="M87,186 L87,283 L115,283 L115,186 C110.8805,189.134794 106.1016,190.935574 101,190.935574 C95.8984,190.935574 91.1195,189.134794 87,186 Z" id="XMLID_1212_" fill="#B39A7C"></path>
            <path d="M194,95.5 C194,90.0129944 191.884322,85.0125083 188.413339,81.2455639 C190.53225,76.6069167 190.974678,71.2074528 189.252389,65.9889083 C187.5301,60.7703639 183.948644,56.6585583 179.465089,54.1315222 C180.024456,49.0747972 178.750522,43.8053194 175.474617,39.3661611 C172.198711,34.9270028 167.502294,32.1060389 162.444822,31.0672111 C161.389678,26.0879472 158.523867,21.4641556 154.014983,18.2389083 C149.5061,15.0136611 144.153856,13.7594278 139.017706,14.3101444 C136.451517,9.89592222 132.274589,6.36985 126.974078,4.67419444 C121.673567,2.97853889 116.189833,3.414125 111.477789,5.50026944 C107.652217,2.08296111 102.573189,0 97,0 L97,191 C100.927422,191 104.606417,189.962233 107.777778,188.155692 C109.106678,187.398589 110.348278,186.509378 111.478328,185.499731 C116.189833,187.585875 121.674106,188.021461 126.974617,186.325806 C132.275128,184.63015 136.451517,181.104078 139.018244,176.689856 C144.154394,177.240572 149.506639,175.986339 154.015522,172.761092 C158.524406,169.535844 161.389678,164.912053 162.445361,159.932789 C167.502833,158.893961 172.19925,156.072467 175.475156,151.633839 C178.751061,147.194681 180.024994,141.925203 179.465628,136.868478 C183.949722,134.341972 187.530639,130.229636 189.252928,125.011092 C190.975217,119.792547 190.532789,114.393083 188.413878,109.754436 C191.884322,105.987492 194,100.987006 194,95.5 Z" id="XMLID_1220_" fill="#317F46"></path>
            <path d="M97,0 C91.4268111,0 86.3477833,2.08296111 82.5216722,5.50026944 C77.8101667,3.414125 72.3258944,2.97853889 67.0253833,4.67419444 C61.7248722,6.36985 57.5484833,9.89592222 54.9817556,14.3101444 C49.8456056,13.7594278 44.4933611,15.0136611 39.9844778,18.2389083 C35.4755944,21.4641556 32.6103222,26.0884778 31.5551778,31.0672111 C26.4977056,32.1060389 21.8012889,34.9275333 18.5253833,39.3661611 C15.2494778,43.8047889 13.9755444,49.0747972 14.5349111,54.1315222 C10.0513556,56.6580278 6.4699,60.7703639 4.74761111,65.9889083 C3.02532222,71.2074528 3.46775,76.6063861 5.58666111,81.2455639 C2.11567778,85.0125083 0,90.0129944 0,95.5 C0,100.987006 2.11567778,105.987492 5.58666111,109.754436 C3.46775,114.393083 3.02532222,119.792547 4.74761111,125.011092 C6.4699,130.229636 10.0513556,134.341442 14.5349111,136.868478 C13.9755444,141.925203 15.2494778,147.194681 18.5253833,151.633839 C21.8012889,156.072997 26.4982444,158.893961 31.5551778,159.932789 C32.6103222,164.912053 35.4761333,169.535844 39.9844778,172.761092 C44.4928222,175.986339 49.8456056,177.240572 54.9817556,176.689856 C57.5479444,181.104078 61.7248722,184.63015 67.0253833,186.325806 C72.3258944,188.021461 77.8096278,187.585875 82.5216722,185.499731 C83.6517222,186.508847 84.8933222,187.398058 86.2222222,188.155692 C89.3935833,189.962233 93.0725778,191 97,191 L97,0 Z" id="XMLID_1232_" fill="#3FA45A"></path>
            <path d="M134,107 L134,139 C140.6276,139 146,130.313067 146,123 C146,115.686933 140.6276,107 134,107 Z" id="XMLID_1251_" fill="#FFDE55"></path>
            <path d="M124,123 C124,130.313067 129.3724,139 136,139 L136,107 C129.3724,107 124,115.686933 124,123 Z" id="XMLID_1254_" fill="#FFEB99"></path>
            <path d="M64,73 C64,65.6869333 58.6276,57 52,57 L52,89 C58.6276,89 64,80.3130667 64,73 Z" id="XMLID_1257_" fill="#FFEB99"></path>
            <path d="M53,57 C46.3724,57 41,65.6869333 41,73 C41,80.3130667 46.3724,89 53,89 L53,57 Z" id="XMLID_1260_" fill="#FFFFFF"></path>
        </g>
    </g>
</svg>