<?xml version="1.0" encoding="UTF-8"?>
<svg width="563px" height="563px" viewBox="0 0 563 563" version="1.1" xmlns="http://www.w3.org/2000/svg" xmlns:xlink="http://www.w3.org/1999/xlink">
    <title>Poplar-Seed</title>
    <g id="Poplar-Seed" stroke="none" stroke-width="1" fill="none" fill-rule="evenodd">
        <g id="sproutD-Copy" transform="translate(165.000000, 138.000000)" fill-rule="nonzero">
            <g id="Group" transform="translate(0.415677, 0.000000)" fill="#FFEB99">
                <path d="M233.631261,113.96917 C233.631261,113.96917 227.817254,194.220553 134.79315,192.389723 C134.79315,192.389723 139.689156,101.763636 233.631261,113.96917 Z" id="Path"></path>
                <path d="M0.459000512,113.96917 C0.459000512,113.96917 6.273007,194.220553 99.2971108,192.389723 C99.2971108,192.389723 94.4011054,101.763636 0.459000512,113.96917 Z" id="Path"></path>
                <path d="M117.045131,0.15256917 L117.045131,0.15256917 L117.045131,0.15256917 C74.8170835,42.2616601 74.8170835,110.002372 117.045131,152.111462 L117.045131,152.111462 C159.273178,110.002372 159.273178,41.9565217 117.045131,0.15256917 Z" id="Path"></path>
            </g>
            <path d="M64.5918583,154.142521 C67.0366652,156.583039 69.4814721,159.023557 72.2318798,161.464075 C74.6766867,164.209658 77.1214936,166.650177 79.2606997,169.700824 C84.1503135,175.191991 88.1231247,181.293286 92.0959359,187.699647 C93.0127385,189.224971 93.9295411,190.750294 94.8463437,192.580683 C95.7631463,194.106007 96.6799489,195.631331 97.5967515,197.46172 C99.1247558,200.817432 100.958361,203.86808 102.180764,207.528857 C102.791966,209.054181 103.403168,210.88457 104.31997,212.409894 C104.931172,213.935218 105.542374,215.765607 105.847975,217.595995 C106.459177,219.426384 107.070378,220.951708 107.375979,222.477032 C107.68158,224.30742 108.292782,225.832744 108.598383,227.663133 C108.903983,229.188457 109.515185,231.018846 109.820786,232.54417 C110.126387,234.069494 110.431988,235.899882 110.737589,237.425206 C111.043189,238.95053 111.34879,240.780919 111.654391,242.306243 C111.959992,243.831567 111.959992,245.35689 112.265593,247.187279 C112.876795,251.763251 112.876795,256.034158 113.182396,260 L122.044821,260 C122.044821,256.034158 122.350421,251.458186 122.961623,247.187279 C123.267224,245.661955 123.267224,244.136631 123.572825,242.306243 C123.878426,240.780919 124.184027,239.255595 124.489627,237.425206 C124.795228,235.899882 125.100829,234.069494 125.40643,232.54417 C125.712031,231.018846 126.323233,229.188457 126.628833,227.663133 C126.934434,226.137809 127.545636,224.30742 127.851237,222.477032 C128.462439,220.951708 128.76804,219.121319 129.379241,217.595995 C129.990443,216.070671 130.296044,214.240283 130.907246,212.409894 C131.518447,210.88457 132.129649,209.054181 133.046452,207.528857 C134.268855,204.173145 136.10246,200.817432 137.630465,197.46172 C138.241666,195.631331 139.46407,194.106007 140.380872,192.580683 C141.297675,191.055359 142.214478,189.224971 143.13128,187.699647 C147.104091,181.598351 151.076903,175.497055 155.966516,169.700824 C158.105722,166.955241 160.85613,164.209658 162.995336,161.464075 C165.440143,159.023557 167.88495,156.277974 170.635358,154.142521 C175.830572,149.261484 181.025787,144.990577 186.221002,141.3298 C191.416217,137.669022 196.30583,134.008245 201.195444,131.262662 C210.669071,125.466431 219.225895,121.195524 225.032311,118.755006 C231.144329,116.009423 234.505938,114.789164 234.505938,114.789164 C234.505938,114.789164 230.838728,115.704358 224.726711,118.144876 C218.614693,120.585395 210.057869,124.246172 199.973041,129.737338 C195.083427,132.482921 189.888212,135.838634 184.387397,139.194346 C179.192182,142.855124 173.691366,146.820966 168.190551,151.702002 C165.440143,153.837456 162.995336,156.583039 160.244928,159.023557 C157.800122,161.76914 155.049714,164.209658 152.604907,166.955241 C147.409692,172.446408 142.825679,178.547703 138.547267,184.954064 C137.630465,186.479388 136.408061,188.309776 135.491259,189.8351 C134.574456,191.360424 133.352052,193.190813 132.43525,194.716137 C130.601645,198.071849 128.76804,201.427562 127.240035,204.783274 C126.323233,206.613663 125.712031,208.138987 124.795228,209.969376 C124.184027,211.799764 123.572825,213.325088 122.961623,215.155477 C122.350421,216.680801 121.73922,218.206125 121.433619,219.426384 L117.155207,1 L113.487996,219.731449 C112.876795,218.206125 112.265593,216.680801 111.959992,215.460542 C111.34879,213.630153 110.737589,212.104829 110.126387,210.274441 C109.209584,208.444052 108.598383,206.918728 107.68158,205.088339 C106.153576,201.732627 104.31997,198.376914 102.486365,195.021201 C101.569563,193.190813 100.65276,191.665489 99.4303567,190.140165 C98.5135541,188.614841 97.5967515,186.784452 96.374348,185.259128 C92.0959359,178.852768 87.511923,172.751472 82.3167083,167.260306 C79.8719014,164.514723 77.1214936,161.76914 74.6766867,159.328622 C71.926279,156.888104 69.4814721,154.447585 66.7310643,152.007067 C61.2302488,147.431095 55.7294332,143.160188 50.5342185,139.499411 C45.033403,135.838634 39.8381883,132.787986 34.9485745,130.042403 C25.1693469,124.551237 16.3069219,120.890459 10.1949046,118.449941 C4.08288732,116.009423 0.41567696,115.094229 0.41567696,115.094229 C0.41567696,115.094229 4.08288732,116.314488 9.88930372,119.060071 C16.001321,121.805654 24.2525443,125.771496 33.7261711,131.567727 C38.6157849,134.31331 43.5053987,137.974087 48.7006134,141.634865 C54.5070298,145.295642 59.7022444,149.566549 64.5918583,154.142521 Z" id="Path" fill="#2C9984"></path>
            <path d="M195.7981,286 L152.652385,257.519348 C133.374513,244.826884 102.468717,244.826884 83.1908451,257.519348 L40.0451306,286 L195.7981,286 Z" id="Path" fill="#B39A7C"></path>
        </g>
    </g>
</svg>