<?xml version="1.0" encoding="UTF-8"?>
<svg width="508px" height="508px" viewBox="0 0 508 508" version="1.1" xmlns="http://www.w3.org/2000/svg" xmlns:xlink="http://www.w3.org/1999/xlink">
    <title>sun-svgrepo-com</title>
    <defs>
        <linearGradient x1="15.1497108%" y1="15.1493418%" x2="84.0737707%" y2="84.0734018%" id="linearGradient-1">
            <stop stop-color="#6EC7DB" offset="0%"></stop>
            <stop stop-color="#30AFCC" offset="100%"></stop>
        </linearGradient>
    </defs>
    <g id="Symbols" stroke="none" stroke-width="1" fill="none" fill-rule="evenodd">
        <g id="sun-svgrepo-com" fill-rule="nonzero">
            <circle id="Oval" fill="url(#linearGradient-1)" cx="254" cy="254" r="254"></circle>
            <g id="Group" transform="translate(69.000000, 68.000000)">
                <circle id="Oval" fill="#FFF99A" cx="185.216263" cy="185.216263" r="122.210137"></circle>
                <path d="M369.831338,185.216263 C369.831338,172.472305 339.207629,164.058745 337.139827,153.963223 C335.07577,143.867701 359.994291,124.395892 355.323005,113.356373 C350.651719,102.309361 319.383694,106.763378 313.805872,98.5108976 C308.231795,90.2621628 324.107425,63.0248557 315.757548,54.6712324 C307.403924,46.3213551 280.170363,62.1932394 271.917882,56.6229085 C263.665402,51.0488316 268.115673,19.7770615 257.072408,15.1095213 C246.029142,10.4419811 226.561079,35.3567562 216.465557,33.2926995 C206.370035,31.2248968 197.956475,0.60493411 185.212517,0.60493411 C172.468559,0.60493411 164.054999,31.2248968 153.959477,33.2926995 C143.863955,35.3567562 124.395892,10.4419811 113.348881,15.1095213 C102.305615,19.7808075 106.755886,51.0525776 98.5071516,56.6229085 C90.2584168,62.1932394 63.0211096,46.3213551 54.6712324,54.6712324 C46.3176091,63.0248557 62.1932394,90.2621628 56.6229085,98.5108976 C51.0488316,106.763378 19.7808075,102.309361 15.1095213,113.356373 C10.4382351,124.399638 35.3567562,143.867701 33.2926995,153.963223 C31.2248968,164.054999 0.601188091,172.468559 0.601188091,185.216263 C0.601188091,197.960221 31.2248968,206.370035 33.2926995,216.473049 C35.3567562,226.564825 10.4382351,246.036634 15.1095213,257.0799 C19.7808075,268.123165 51.0488316,263.672894 56.6229085,271.921628 C62.1969854,280.174109 46.3213551,307.411416 54.6712324,315.761294 C63.0211096,324.111171 90.2584168,308.235541 98.5071516,313.809618 C106.759632,319.383694 102.309361,350.655465 113.348881,355.326751 C124.392146,359.998037 143.863955,335.079516 153.959477,337.143573 C164.054999,339.211375 172.468559,369.831338 185.212517,369.831338 C197.956475,369.831338 206.370035,339.207629 216.465557,337.143573 C226.561079,335.07577 246.029142,359.998037 257.072408,355.326751 C268.115673,350.655465 263.665402,319.383694 271.917882,313.809618 C280.170363,308.239287 307.403924,324.114917 315.757548,315.761294 C324.107425,307.411416 308.231795,280.174109 313.805872,271.921628 C319.379948,263.672894 350.651719,268.123165 355.323005,257.0799 C359.994291,246.036634 335.07577,226.564825 337.139827,216.473049 C339.207629,206.370035 369.831338,197.960221 369.831338,185.216263 Z M185.216263,323.796505 C108.68134,323.796505 46.6360207,261.751186 46.6360207,185.216263 C46.6360207,108.677594 108.68134,46.6360207 185.216263,46.6360207 C261.751186,46.6360207 323.796505,108.677594 323.796505,185.216263 C323.796505,261.751186 261.751186,323.796505 185.216263,323.796505 Z" id="Shape" fill="#FFD800"></path>
            </g>
        </g>
    </g>
</svg>